<?xml version="1.0" encoding="UTF-8" standalone="no"?><svg xmlns="http://www.w3.org/2000/svg" xmlns:xlink="http://www.w3.org/1999/xlink" contentStyleType="text/css" height="989px" preserveAspectRatio="none" style="width:777px;height:989px;background:#FFFFFF;" version="1.1" viewBox="0 0 777 989" width="777px" zoomAndPan="magnify"><defs/><g><rect fill="none" height="28.2" id="_title" style="stroke:none;stroke-width:1.0;" width="152" x="311.75" y="10"/><text fill="#000000" font-family="Sarabun" font-size="14" font-weight="bold" lengthAdjust="spacing" textLength="142" x="316.75" y="29.952">Use Case 1: ยืนยันตัวตน</text><rect fill="#FFFFFF" height="734" style="stroke:#181818;stroke-width:1.0;" width="10" x="287" y="155.3"/><rect fill="#FFFFFF" height="30.9" style="stroke:#181818;stroke-width:1.0;" width="10" x="519" y="186.2"/><rect fill="#FFFFFF" height="227.5" style="stroke:#181818;stroke-width:1.0;" width="10" x="519" y="340.7"/><rect fill="#FFFFFF" height="28" style="stroke:#181818;stroke-width:1.0;" width="10" x="524" y="441.4"/><rect fill="#FFFFFF" height="166.6" style="stroke:#181818;stroke-width:1.0;" width="10" x="519" y="691.8"/><rect fill="#FFFFFF" height="28" style="stroke:#181818;stroke-width:1.0;" width="10" x="524" y="792.5"/><rect fill="#FFFFFF" height="30.9" style="stroke:#181818;stroke-width:1.0;" width="10" x="731" y="371.6"/><rect fill="#FFFFFF" height="30" style="stroke:#181818;stroke-width:1.0;" width="10" x="731" y="507.3"/><rect fill="#FFFFFF" height="30.9" style="stroke:#181818;stroke-width:1.0;" width="10" x="731" y="722.7"/><line style="stroke:#181818;stroke-width:0.5;stroke-dasharray:5.0,5.0;" x1="35" x2="35" y1="122.4" y2="907.3"/><line style="stroke:#181818;stroke-width:0.5;stroke-dasharray:5.0,5.0;" x1="292" x2="292" y1="122.4" y2="907.3"/><line style="stroke:#181818;stroke-width:0.5;stroke-dasharray:5.0,5.0;" x1="524" x2="524" y1="122.4" y2="907.3"/><line style="stroke:#181818;stroke-width:0.5;stroke-dasharray:5.0,5.0;" x1="735.5" x2="735.5" y1="122.4" y2="907.3"/><text fill="#000000" font-family="Sarabun" font-size="14" lengthAdjust="spacing" textLength="54" x="5" y="119.152">ผู้ใช้ระบบ</text><ellipse cx="35" cy="52.7" fill="#E3E3E3" rx="8" ry="8" style="stroke:#181818;stroke-width:0.5;"/><path d="M35,60.7 L35,87.7 M22,68.7 L48,68.7 M35,87.7 L22,102.7 M35,87.7 L48,102.7 " fill="none" style="stroke:#181818;stroke-width:0.5;"/><text fill="#000000" font-family="Sarabun" font-size="14" lengthAdjust="spacing" textLength="54" x="5" y="921.252">ผู้ใช้ระบบ</text><ellipse cx="35" cy="933" fill="#E3E3E3" rx="8" ry="8" style="stroke:#181818;stroke-width:0.5;"/><path d="M35,941 L35,968 M22,949 L48,949 M35,968 L22,983 M35,968 L48,983 " fill="none" style="stroke:#181818;stroke-width:0.5;"/><rect fill="#E3E3E3" height="32.2" rx="2.5" ry="2.5" style="stroke:#181818;stroke-width:0.5;" width="96" x="244" y="89.2"/><text fill="#000000" font-family="Sarabun" font-size="14" lengthAdjust="spacing" textLength="82" x="251" y="111.152">เว็บเบราว์เซอร์</text><rect fill="#E3E3E3" height="32.2" rx="2.5" ry="2.5" style="stroke:#181818;stroke-width:0.5;" width="96" x="244" y="906.3"/><text fill="#000000" font-family="Sarabun" font-size="14" lengthAdjust="spacing" textLength="82" x="251" y="928.252">เว็บเบราว์เซอร์</text><rect fill="#E3E3E3" height="32.2" rx="2.5" ry="2.5" style="stroke:#181818;stroke-width:0.5;" width="90" x="479" y="89.2"/><text fill="#000000" font-family="Sarabun" font-size="14" lengthAdjust="spacing" textLength="76" x="486" y="111.152">เว็บเซิร์ฟเวอร์</text><rect fill="#E3E3E3" height="32.2" rx="2.5" ry="2.5" style="stroke:#181818;stroke-width:0.5;" width="90" x="479" y="906.3"/><text fill="#000000" font-family="Sarabun" font-size="14" lengthAdjust="spacing" textLength="76" x="486" y="928.252">เว็บเซิร์ฟเวอร์</text><rect fill="#E3E3E3" height="32.2" rx="2.5" ry="2.5" style="stroke:#181818;stroke-width:0.5;" width="71" x="700.5" y="89.2"/><text fill="#000000" font-family="Sarabun" font-size="14" lengthAdjust="spacing" textLength="57" x="707.5" y="111.152">ฐานข้อมูล</text><rect fill="#E3E3E3" height="32.2" rx="2.5" ry="2.5" style="stroke:#181818;stroke-width:0.5;" width="71" x="700.5" y="906.3"/><text fill="#000000" font-family="Sarabun" font-size="14" lengthAdjust="spacing" textLength="57" x="707.5" y="928.252">ฐานข้อมูล</text><rect fill="#FFFFFF" height="734" style="stroke:#181818;stroke-width:1.0;" width="10" x="287" y="155.3"/><rect fill="#FFFFFF" height="30.9" style="stroke:#181818;stroke-width:1.0;" width="10" x="519" y="186.2"/><rect fill="#FFFFFF" height="227.5" style="stroke:#181818;stroke-width:1.0;" width="10" x="519" y="340.7"/><rect fill="#FFFFFF" height="28" style="stroke:#181818;stroke-width:1.0;" width="10" x="524" y="441.4"/><rect fill="#FFFFFF" height="166.6" style="stroke:#181818;stroke-width:1.0;" width="10" x="519" y="691.8"/><rect fill="#FFFFFF" height="28" style="stroke:#181818;stroke-width:1.0;" width="10" x="524" y="792.5"/><rect fill="#FFFFFF" height="30.9" style="stroke:#181818;stroke-width:1.0;" width="10" x="731" y="371.6"/><rect fill="#FFFFFF" height="30" style="stroke:#181818;stroke-width:1.0;" width="10" x="731" y="507.3"/><rect fill="#FFFFFF" height="30.9" style="stroke:#181818;stroke-width:1.0;" width="10" x="731" y="722.7"/><polygon fill="#181818" points="275,151.3,285,155.3,275,159.3,279,155.3" style="stroke:#181818;stroke-width:1.0;"/><line style="stroke:#181818;stroke-width:1.0;" x1="35" x2="281" y1="155.3" y2="155.3"/><text fill="#000000" font-family="Sarabun" font-size="13" font-weight="bold" lengthAdjust="spacing" textLength="7" x="42" y="150.284">1</text><text fill="#000000" font-family="Sarabun" font-size="13" lengthAdjust="spacing" textLength="120" x="53" y="150.284">กดลงทะเบียนบัญชีผู้ใช้</text><polygon fill="#181818" points="507,182.2,517,186.2,507,190.2,511,186.2" style="stroke:#181818;stroke-width:1.0;"/><line style="stroke:#181818;stroke-width:1.0;" x1="297" x2="513" y1="186.2" y2="186.2"/><text fill="#000000" font-family="Sarabun" font-size="13" font-weight="bold" lengthAdjust="spacing" textLength="7" x="304" y="181.184">2</text><text fill="#000000" font-family="Sarabun" font-size="13" lengthAdjust="spacing" textLength="175" x="315" y="181.184">ขอเข้าถึงหน้าลงทะเบียนบัญชีผู้ใช้</text><polygon fill="#181818" points="308,213.1,298,217.1,308,221.1,304,217.1" style="stroke:#181818;stroke-width:1.0;"/><line style="stroke:#181818;stroke-width:1.0;stroke-dasharray:2.0,2.0;" x1="302" x2="523" y1="217.1" y2="217.1"/><text fill="#000000" font-family="Sarabun" font-size="13" font-weight="bold" lengthAdjust="spacing" textLength="7" x="314" y="212.084">3</text><text fill="#000000" font-family="Sarabun" font-size="13" lengthAdjust="spacing" textLength="187" x="325" y="212.084">หน้าฟอร์มลงทะเบียนบัญชีผู้ใช้ระบบ</text><polygon fill="#181818" points="46,244,36,248,46,252,42,248" style="stroke:#181818;stroke-width:1.0;"/><line style="stroke:#181818;stroke-width:1.0;stroke-dasharray:2.0,2.0;" x1="40" x2="286" y1="248" y2="248"/><text fill="#000000" font-family="Sarabun" font-size="13" font-weight="bold" lengthAdjust="spacing" textLength="7" x="52" y="242.984">4</text><text fill="#000000" font-family="Sarabun" font-size="13" lengthAdjust="spacing" textLength="217" x="63" y="242.984">แสดงหน้าฟอร์มลงทะเบียนบัญชีผู้ใช้ระบบ</text><polygon fill="#181818" points="275,274.9,285,278.9,275,282.9,279,278.9" style="stroke:#181818;stroke-width:1.0;"/><line style="stroke:#181818;stroke-width:1.0;" x1="35" x2="281" y1="278.9" y2="278.9"/><text fill="#000000" font-family="Sarabun" font-size="13" font-weight="bold" lengthAdjust="spacing" textLength="7" x="42" y="273.884">5</text><text fill="#000000" font-family="Sarabun" font-size="13" lengthAdjust="spacing" textLength="60" x="53" y="273.884">กรอกข้อมูล</text><polygon fill="#181818" points="275,305.8,285,309.8,275,313.8,279,309.8" style="stroke:#181818;stroke-width:1.0;"/><line style="stroke:#181818;stroke-width:1.0;" x1="35" x2="281" y1="309.8" y2="309.8"/><text fill="#000000" font-family="Sarabun" font-size="13" font-weight="bold" lengthAdjust="spacing" textLength="7" x="42" y="304.784">6</text><text fill="#000000" font-family="Sarabun" font-size="13" lengthAdjust="spacing" textLength="133" x="53" y="304.784">กดปุ่ม "Create Account"</text><polygon fill="#181818" points="507,336.7,517,340.7,507,344.7,511,340.7" style="stroke:#181818;stroke-width:1.0;"/><line style="stroke:#181818;stroke-width:1.0;" x1="297" x2="513" y1="340.7" y2="340.7"/><text fill="#000000" font-family="Sarabun" font-size="13" font-weight="bold" lengthAdjust="spacing" textLength="7" x="304" y="335.684">7</text><text fill="#000000" font-family="Sarabun" font-size="13" lengthAdjust="spacing" textLength="142" x="315" y="335.684">ส่งข้อมูลส่วนตัวที่ผู้ใช้กรอก</text><polygon fill="#181818" points="719,367.6,729,371.6,719,375.6,723,371.6" style="stroke:#181818;stroke-width:1.0;"/><line style="stroke:#181818;stroke-width:1.0;" x1="529" x2="725" y1="371.6" y2="371.6"/><text fill="#000000" font-family="Sarabun" font-size="13" font-weight="bold" lengthAdjust="spacing" textLength="7" x="536" y="366.584">8</text><text fill="#000000" font-family="Sarabun" font-size="13" lengthAdjust="spacing" textLength="69" x="547" y="366.584">ขอข้อมูลผู้ใช้</text><polygon fill="#181818" points="540,398.5,530,402.5,540,406.5,536,402.5" style="stroke:#181818;stroke-width:1.0;"/><line style="stroke:#181818;stroke-width:1.0;stroke-dasharray:2.0,2.0;" x1="534" x2="735" y1="402.5" y2="402.5"/><text fill="#000000" font-family="Sarabun" font-size="13" font-weight="bold" lengthAdjust="spacing" textLength="7" x="546" y="397.484">9</text><text fill="#000000" font-family="Sarabun" font-size="13" lengthAdjust="spacing" textLength="53" x="557" y="397.484">ข้อมูลผู้ใช้</text><line style="stroke:#181818;stroke-width:1.0;" x1="534" x2="576" y1="433.4" y2="433.4"/><line style="stroke:#181818;stroke-width:1.0;" x1="576" x2="576" y1="433.4" y2="446.4"/><line style="stroke:#181818;stroke-width:1.0;" x1="535" x2="576" y1="446.4" y2="446.4"/><polygon fill="#181818" points="545,442.4,535,446.4,545,450.4,541,446.4" style="stroke:#181818;stroke-width:1.0;"/><text fill="#000000" font-family="Sarabun" font-size="13" font-weight="bold" lengthAdjust="spacing" textLength="14" x="541" y="428.384">10</text><text fill="#000000" font-family="Sarabun" font-size="13" lengthAdjust="spacing" textLength="142" x="559" y="428.384">ตรวจสอบข้อมูลที่ผู้ใช้กรอก</text><line style="stroke:#181818;stroke-width:1.0;" x1="729" x2="719" y1="507.3" y2="503.3"/><line style="stroke:#181818;stroke-width:1.0;" x1="729" x2="719" y1="507.3" y2="511.3"/><line style="stroke:#181818;stroke-width:1.0;" x1="529" x2="730" y1="507.3" y2="507.3"/><text fill="#000000" font-family="Sarabun" font-size="13" font-weight="bold" lengthAdjust="spacing" textLength="14" x="536" y="502.284">11</text><text fill="#000000" font-family="Sarabun" font-size="13" lengthAdjust="spacing" textLength="80" x="554" y="502.284">เขียนข้อมูลผู้ใช้</text><polygon fill="#181818" points="308,564.2,298,568.2,308,572.2,304,568.2" style="stroke:#181818;stroke-width:1.0;"/><line style="stroke:#181818;stroke-width:1.0;stroke-dasharray:2.0,2.0;" x1="302" x2="523" y1="568.2" y2="568.2"/><text fill="#000000" font-family="Sarabun" font-size="13" font-weight="bold" lengthAdjust="spacing" textLength="14" x="314" y="563.184">12</text><text fill="#000000" font-family="Sarabun" font-size="13" lengthAdjust="spacing" textLength="143" x="332" y="563.184">หน้าฟอร์มลงชื่อเข้าใช้ระบบ</text><polygon fill="#181818" points="46,595.1,36,599.1,46,603.1,42,599.1" style="stroke:#181818;stroke-width:1.0;"/><line style="stroke:#181818;stroke-width:1.0;stroke-dasharray:2.0,2.0;" x1="40" x2="286" y1="599.1" y2="599.1"/><text fill="#000000" font-family="Sarabun" font-size="13" font-weight="bold" lengthAdjust="spacing" textLength="14" x="52" y="594.084">13</text><text fill="#000000" font-family="Sarabun" font-size="13" lengthAdjust="spacing" textLength="151" x="70" y="594.084">แสดงฟอร์มลงชื่อเข้าใช้ระบบ</text><polygon fill="#181818" points="275,626,285,630,275,634,279,630" style="stroke:#181818;stroke-width:1.0;"/><line style="stroke:#181818;stroke-width:1.0;" x1="35" x2="281" y1="630" y2="630"/><text fill="#000000" font-family="Sarabun" font-size="13" font-weight="bold" lengthAdjust="spacing" textLength="14" x="42" y="624.984">14</text><text fill="#000000" font-family="Sarabun" font-size="13" lengthAdjust="spacing" textLength="60" x="60" y="624.984">กรอกข้อมูล</text><polygon fill="#181818" points="275,656.9,285,660.9,275,664.9,279,660.9" style="stroke:#181818;stroke-width:1.0;"/><line style="stroke:#181818;stroke-width:1.0;" x1="35" x2="281" y1="660.9" y2="660.9"/><text fill="#000000" font-family="Sarabun" font-size="13" font-weight="bold" lengthAdjust="spacing" textLength="14" x="42" y="655.884">15</text><text fill="#000000" font-family="Sarabun" font-size="13" lengthAdjust="spacing" textLength="83" x="60" y="655.884">กดปุ่ม "Sign In"</text><polygon fill="#181818" points="507,687.8,517,691.8,507,695.8,511,691.8" style="stroke:#181818;stroke-width:1.0;"/><line style="stroke:#181818;stroke-width:1.0;" x1="297" x2="513" y1="691.8" y2="691.8"/><text fill="#000000" font-family="Sarabun" font-size="13" font-weight="bold" lengthAdjust="spacing" textLength="14" x="304" y="686.784">16</text><text fill="#000000" font-family="Sarabun" font-size="13" lengthAdjust="spacing" textLength="120" x="322" y="686.784">ส่งข้อมูลการเข้าสู่ระบบ</text><polygon fill="#181818" points="719,718.7,729,722.7,719,726.7,723,722.7" style="stroke:#181818;stroke-width:1.0;"/><line style="stroke:#181818;stroke-width:1.0;" x1="529" x2="725" y1="722.7" y2="722.7"/><text fill="#000000" font-family="Sarabun" font-size="13" font-weight="bold" lengthAdjust="spacing" textLength="14" x="536" y="717.684">17</text><text fill="#000000" font-family="Sarabun" font-size="13" lengthAdjust="spacing" textLength="165" x="554" y="717.684">ขอข้อมูลการเข้าสู่ระบบของผู้ใช้</text><polygon fill="#181818" points="540,749.6,530,753.6,540,757.6,536,753.6" style="stroke:#181818;stroke-width:1.0;"/><line style="stroke:#181818;stroke-width:1.0;stroke-dasharray:2.0,2.0;" x1="534" x2="735" y1="753.6" y2="753.6"/><text fill="#000000" font-family="Sarabun" font-size="13" font-weight="bold" lengthAdjust="spacing" textLength="14" x="546" y="748.584">18</text><text fill="#000000" font-family="Sarabun" font-size="13" lengthAdjust="spacing" textLength="149" x="564" y="748.584">ข้อมูลการเข้าสู่ระบบของผู้ใช้</text><line style="stroke:#181818;stroke-width:1.0;" x1="534" x2="576" y1="784.5" y2="784.5"/><line style="stroke:#181818;stroke-width:1.0;" x1="576" x2="576" y1="784.5" y2="797.5"/><line style="stroke:#181818;stroke-width:1.0;" x1="535" x2="576" y1="797.5" y2="797.5"/><polygon fill="#181818" points="545,793.5,535,797.5,545,801.5,541,797.5" style="stroke:#181818;stroke-width:1.0;"/><text fill="#000000" font-family="Sarabun" font-size="13" font-weight="bold" lengthAdjust="spacing" textLength="14" x="541" y="779.484">19</text><text fill="#000000" font-family="Sarabun" font-size="13" lengthAdjust="spacing" textLength="142" x="559" y="779.484">ตรวจสอบข้อมูลที่ผู้ใช้กรอก</text><polygon fill="#181818" points="308,854.4,298,858.4,308,862.4,304,858.4" style="stroke:#181818;stroke-width:1.0;"/><line style="stroke:#181818;stroke-width:1.0;stroke-dasharray:2.0,2.0;" x1="302" x2="523" y1="858.4" y2="858.4"/><text fill="#000000" font-family="Sarabun" font-size="13" font-weight="bold" lengthAdjust="spacing" textLength="14" x="314" y="853.384">20</text><text fill="#000000" font-family="Sarabun" font-size="13" lengthAdjust="spacing" textLength="45" x="332" y="853.384">หน้าหลัก</text><polygon fill="#181818" points="46,885.3,36,889.3,46,893.3,42,889.3" style="stroke:#181818;stroke-width:1.0;"/><line style="stroke:#181818;stroke-width:1.0;stroke-dasharray:2.0,2.0;" x1="40" x2="291" y1="889.3" y2="889.3"/><text fill="#000000" font-family="Sarabun" font-size="13" font-weight="bold" lengthAdjust="spacing" textLength="14" x="52" y="884.284">21</text><text fill="#000000" font-family="Sarabun" font-size="13" lengthAdjust="spacing" textLength="75" x="70" y="884.284">แสดงหน้าหลัก</text><!--MD5=[519ed5fe937c5016b80db4bc6c4aff44]
@startuml
skinparam monochrome true
skinparam defaultFontName Sarabun
autonumber

title Use Case 1: ยืนยันตัวตน

actor "ผู้ใช้ระบบ" as User
participant "เว็บเบราว์เซอร์" as Browser
participant "เว็บเซิร์ฟเวอร์" as Server
participant "ฐานข้อมูล" as Database

User -> Browser: กดลงทะเบียนบัญชีผู้ใช้
activate Browser
Browser -> Server: ขอเข้าถึงหน้าลงทะเบียนบัญชีผู้ใช้
activate Server
Server - -> Browser: หน้าฟอร์มลงทะเบียนบัญชีผู้ใช้ระบบ
deactivate Server
Browser - -> User: แสดงหน้าฟอร์มลงทะเบียนบัญชีผู้ใช้ระบบ
User -> Browser: กรอกข้อมูล
User -> Browser: กดปุ่ม "Create Account"
Browser -> Server: ส่งข้อมูลส่วนตัวที่ผู้ใช้กรอก
activate Server
Server -> Database: ขอข้อมูลผู้ใช้
activate Database
Database - -> Server: ข้อมูลผู้ใช้
deactivate Database
Server -> Server: ตรวจสอบข้อมูลที่ผู้ใช้กรอก
activate Server
deactivate Server
Server ->> Database: เขียนข้อมูลผู้ใช้
activate Database
deactivate Database
Server - -> Browser: หน้าฟอร์มลงชื่อเข้าใช้ระบบ
deactivate Server
Browser - -> User: แสดงฟอร์มลงชื่อเข้าใช้ระบบ
User -> Browser: กรอกข้อมูล
User -> Browser: กดปุ่ม "Sign In"
Browser -> Server: ส่งข้อมูลการเข้าสู่ระบบ
activate Server
Server -> Database: ขอข้อมูลการเข้าสู่ระบบของผู้ใช้
activate Database
Database - -> Server: ข้อมูลการเข้าสู่ระบบของผู้ใช้
deactivate Database
Server -> Server: ตรวจสอบข้อมูลที่ผู้ใช้กรอก
activate Server
deactivate Server
Server - -> Browser: หน้าหลัก
deactivate Server
Browser - -> User: แสดงหน้าหลัก
deactivate Browser
deactivate User
@enduml

PlantUML version 1.2022.7(Tue Aug 23 00:01:30 ICT 2022)
(GPL source distribution)
Java Runtime: OpenJDK Runtime Environment
JVM: OpenJDK 64-Bit Server VM
Default Encoding: UTF-8
Language: en
Country: TH
--></g></svg>