<?xml version="1.0" encoding="UTF-8" standalone="no"?><svg xmlns="http://www.w3.org/2000/svg" xmlns:xlink="http://www.w3.org/1999/xlink" contentStyleType="text/css" height="823px" preserveAspectRatio="none" style="width:613px;height:823px;background:#FFFFFF;" version="1.1" viewBox="0 0 613 823" width="613px" zoomAndPan="magnify"><defs/><g><rect fill="none" height="28.2" id="_title" style="stroke:none;stroke-width:1.0;" width="155" x="228" y="10"/><text fill="#000000" font-family="Sarabun" font-size="14" font-weight="bold" lengthAdjust="spacing" textLength="145" x="233" y="29.952">Use Case 2: จัดการคอร์ส</text><rect fill="#FFFFFF" height="567.4" style="stroke:#181818;stroke-width:1.0;" width="10" x="29.5" y="155.3"/><rect fill="#FFFFFF" height="567.4" style="stroke:#181818;stroke-width:1.0;" width="10" x="202.5" y="155.3"/><rect fill="#FFFFFF" height="92.7" style="stroke:#181818;stroke-width:1.0;" width="10" x="368.5" y="186.2"/><rect fill="#FFFFFF" height="165.7" style="stroke:#181818;stroke-width:1.0;" width="10" x="368.5" y="402.5"/><rect fill="#FFFFFF" height="28" style="stroke:#181818;stroke-width:1.0;" width="10" x="373.5" y="441.4"/><rect fill="#FFFFFF" height="30.9" style="stroke:#181818;stroke-width:1.0;" width="10" x="368.5" y="660.9"/><rect fill="#FFFFFF" height="30.9" style="stroke:#181818;stroke-width:1.0;" width="10" x="566.5" y="217.1"/><rect fill="#FFFFFF" height="30" style="stroke:#181818;stroke-width:1.0;" width="10" x="566.5" y="507.3"/><line style="stroke:#181818;stroke-width:0.5;stroke-dasharray:5.0,5.0;" x1="34" x2="34" y1="122.4" y2="740.7"/><line style="stroke:#181818;stroke-width:0.5;stroke-dasharray:5.0,5.0;" x1="207.5" x2="207.5" y1="122.4" y2="740.7"/><line style="stroke:#181818;stroke-width:0.5;stroke-dasharray:5.0,5.0;" x1="373.5" x2="373.5" y1="122.4" y2="740.7"/><line style="stroke:#181818;stroke-width:0.5;stroke-dasharray:5.0,5.0;" x1="571" x2="571" y1="122.4" y2="740.7"/><text fill="#000000" font-family="Sarabun" font-size="14" lengthAdjust="spacing" textLength="53" x="5" y="119.152">เจ้าหน้าที่</text><ellipse cx="34.5" cy="52.7" fill="#E3E3E3" rx="8" ry="8" style="stroke:#181818;stroke-width:0.5;"/><path d="M34.5,60.7 L34.5,87.7 M21.5,68.7 L47.5,68.7 M34.5,87.7 L21.5,102.7 M34.5,87.7 L47.5,102.7 " fill="none" style="stroke:#181818;stroke-width:0.5;"/><text fill="#000000" font-family="Sarabun" font-size="14" lengthAdjust="spacing" textLength="53" x="5" y="754.652">เจ้าหน้าที่</text><ellipse cx="34.5" cy="766.4" fill="#E3E3E3" rx="8" ry="8" style="stroke:#181818;stroke-width:0.5;"/><path d="M34.5,774.4 L34.5,801.4 M21.5,782.4 L47.5,782.4 M34.5,801.4 L21.5,816.4 M34.5,801.4 L47.5,816.4 " fill="none" style="stroke:#181818;stroke-width:0.5;"/><rect fill="#E3E3E3" height="32.2" rx="2.5" ry="2.5" style="stroke:#181818;stroke-width:0.5;" width="96" x="159.5" y="89.2"/><text fill="#000000" font-family="Sarabun" font-size="14" lengthAdjust="spacing" textLength="82" x="166.5" y="111.152">เว็บเบราว์เซอร์</text><rect fill="#E3E3E3" height="32.2" rx="2.5" ry="2.5" style="stroke:#181818;stroke-width:0.5;" width="96" x="159.5" y="739.7"/><text fill="#000000" font-family="Sarabun" font-size="14" lengthAdjust="spacing" textLength="82" x="166.5" y="761.652">เว็บเบราว์เซอร์</text><rect fill="#E3E3E3" height="32.2" rx="2.5" ry="2.5" style="stroke:#181818;stroke-width:0.5;" width="90" x="328.5" y="89.2"/><text fill="#000000" font-family="Sarabun" font-size="14" lengthAdjust="spacing" textLength="76" x="335.5" y="111.152">เว็บเซิร์ฟเวอร์</text><rect fill="#E3E3E3" height="32.2" rx="2.5" ry="2.5" style="stroke:#181818;stroke-width:0.5;" width="90" x="328.5" y="739.7"/><text fill="#000000" font-family="Sarabun" font-size="14" lengthAdjust="spacing" textLength="76" x="335.5" y="761.652">เว็บเซิร์ฟเวอร์</text><rect fill="#E3E3E3" height="32.2" rx="2.5" ry="2.5" style="stroke:#181818;stroke-width:0.5;" width="71" x="536" y="89.2"/><text fill="#000000" font-family="Sarabun" font-size="14" lengthAdjust="spacing" textLength="57" x="543" y="111.152">ฐานข้อมูล</text><rect fill="#E3E3E3" height="32.2" rx="2.5" ry="2.5" style="stroke:#181818;stroke-width:0.5;" width="71" x="536" y="739.7"/><text fill="#000000" font-family="Sarabun" font-size="14" lengthAdjust="spacing" textLength="57" x="543" y="761.652">ฐานข้อมูล</text><rect fill="#FFFFFF" height="567.4" style="stroke:#181818;stroke-width:1.0;" width="10" x="29.5" y="155.3"/><rect fill="#FFFFFF" height="567.4" style="stroke:#181818;stroke-width:1.0;" width="10" x="202.5" y="155.3"/><rect fill="#FFFFFF" height="92.7" style="stroke:#181818;stroke-width:1.0;" width="10" x="368.5" y="186.2"/><rect fill="#FFFFFF" height="165.7" style="stroke:#181818;stroke-width:1.0;" width="10" x="368.5" y="402.5"/><rect fill="#FFFFFF" height="28" style="stroke:#181818;stroke-width:1.0;" width="10" x="373.5" y="441.4"/><rect fill="#FFFFFF" height="30.9" style="stroke:#181818;stroke-width:1.0;" width="10" x="368.5" y="660.9"/><rect fill="#FFFFFF" height="30.9" style="stroke:#181818;stroke-width:1.0;" width="10" x="566.5" y="217.1"/><rect fill="#FFFFFF" height="30" style="stroke:#181818;stroke-width:1.0;" width="10" x="566.5" y="507.3"/><polygon fill="#181818" points="190.5,151.3,200.5,155.3,190.5,159.3,194.5,155.3" style="stroke:#181818;stroke-width:1.0;"/><line style="stroke:#181818;stroke-width:1.0;" x1="39.5" x2="196.5" y1="155.3" y2="155.3"/><text fill="#000000" font-family="Sarabun" font-size="13" font-weight="bold" lengthAdjust="spacing" textLength="7" x="46.5" y="150.284">1</text><text fill="#000000" font-family="Sarabun" font-size="13" lengthAdjust="spacing" textLength="71" x="57.5" y="150.284">กดสร้างคอร์ส</text><polygon fill="#181818" points="356.5,182.2,366.5,186.2,356.5,190.2,360.5,186.2" style="stroke:#181818;stroke-width:1.0;"/><line style="stroke:#181818;stroke-width:1.0;" x1="212.5" x2="362.5" y1="186.2" y2="186.2"/><text fill="#000000" font-family="Sarabun" font-size="13" font-weight="bold" lengthAdjust="spacing" textLength="7" x="219.5" y="181.184">2</text><text fill="#000000" font-family="Sarabun" font-size="13" lengthAdjust="spacing" textLength="126" x="230.5" y="181.184">ขอเข้าถึงหน้าสร้างคอร์ส</text><polygon fill="#181818" points="554.5,213.1,564.5,217.1,554.5,221.1,558.5,217.1" style="stroke:#181818;stroke-width:1.0;"/><line style="stroke:#181818;stroke-width:1.0;" x1="378.5" x2="560.5" y1="217.1" y2="217.1"/><text fill="#000000" font-family="Sarabun" font-size="13" font-weight="bold" lengthAdjust="spacing" textLength="7" x="385.5" y="212.084">3</text><text fill="#000000" font-family="Sarabun" font-size="13" lengthAdjust="spacing" textLength="158" x="396.5" y="212.084">ขอข้อมูลคอร์สและตารางเวลา</text><polygon fill="#181818" points="389.5,244,379.5,248,389.5,252,385.5,248" style="stroke:#181818;stroke-width:1.0;"/><line style="stroke:#181818;stroke-width:1.0;stroke-dasharray:2.0,2.0;" x1="383.5" x2="570.5" y1="248" y2="248"/><text fill="#000000" font-family="Sarabun" font-size="13" font-weight="bold" lengthAdjust="spacing" textLength="7" x="395.5" y="242.984">4</text><text fill="#000000" font-family="Sarabun" font-size="13" lengthAdjust="spacing" textLength="142" x="406.5" y="242.984">ข้อมูลคอร์สและตารางเวลา</text><polygon fill="#181818" points="223.5,274.9,213.5,278.9,223.5,282.9,219.5,278.9" style="stroke:#181818;stroke-width:1.0;"/><line style="stroke:#181818;stroke-width:1.0;stroke-dasharray:2.0,2.0;" x1="217.5" x2="372.5" y1="278.9" y2="278.9"/><text fill="#000000" font-family="Sarabun" font-size="13" font-weight="bold" lengthAdjust="spacing" textLength="7" x="229.5" y="273.884">5</text><text fill="#000000" font-family="Sarabun" font-size="13" lengthAdjust="spacing" textLength="78" x="240.5" y="273.884">หน้าสร้างคอร์ส</text><polygon fill="#181818" points="50.5,305.8,40.5,309.8,50.5,313.8,46.5,309.8" style="stroke:#181818;stroke-width:1.0;"/><line style="stroke:#181818;stroke-width:1.0;stroke-dasharray:2.0,2.0;" x1="44.5" x2="201.5" y1="309.8" y2="309.8"/><text fill="#000000" font-family="Sarabun" font-size="13" font-weight="bold" lengthAdjust="spacing" textLength="7" x="56.5" y="304.784">6</text><text fill="#000000" font-family="Sarabun" font-size="13" lengthAdjust="spacing" textLength="108" x="67.5" y="304.784">แสดงหน้าสร้างคอร์ส</text><polygon fill="#181818" points="190.5,336.7,200.5,340.7,190.5,344.7,194.5,340.7" style="stroke:#181818;stroke-width:1.0;"/><line style="stroke:#181818;stroke-width:1.0;" x1="39.5" x2="196.5" y1="340.7" y2="340.7"/><text fill="#000000" font-family="Sarabun" font-size="13" font-weight="bold" lengthAdjust="spacing" textLength="7" x="46.5" y="335.684">7</text><text fill="#000000" font-family="Sarabun" font-size="13" lengthAdjust="spacing" textLength="112" x="57.5" y="335.684">กรอกข้อมูลของคอร์ส</text><polygon fill="#181818" points="190.5,367.6,200.5,371.6,190.5,375.6,194.5,371.6" style="stroke:#181818;stroke-width:1.0;"/><line style="stroke:#181818;stroke-width:1.0;" x1="39.5" x2="196.5" y1="371.6" y2="371.6"/><text fill="#000000" font-family="Sarabun" font-size="13" font-weight="bold" lengthAdjust="spacing" textLength="7" x="46.5" y="366.584">8</text><text fill="#000000" font-family="Sarabun" font-size="13" lengthAdjust="spacing" textLength="84" x="57.5" y="366.584">กดปุ่ม "Create"</text><polygon fill="#181818" points="356.5,398.5,366.5,402.5,356.5,406.5,360.5,402.5" style="stroke:#181818;stroke-width:1.0;"/><line style="stroke:#181818;stroke-width:1.0;" x1="212.5" x2="362.5" y1="402.5" y2="402.5"/><text fill="#000000" font-family="Sarabun" font-size="13" font-weight="bold" lengthAdjust="spacing" textLength="7" x="219.5" y="397.484">9</text><text fill="#000000" font-family="Sarabun" font-size="13" lengthAdjust="spacing" textLength="98" x="230.5" y="397.484">ส่งข้อมูลของคอร์ส</text><line style="stroke:#181818;stroke-width:1.0;" x1="383.5" x2="425.5" y1="433.4" y2="433.4"/><line style="stroke:#181818;stroke-width:1.0;" x1="425.5" x2="425.5" y1="433.4" y2="446.4"/><line style="stroke:#181818;stroke-width:1.0;" x1="384.5" x2="425.5" y1="446.4" y2="446.4"/><polygon fill="#181818" points="394.5,442.4,384.5,446.4,394.5,450.4,390.5,446.4" style="stroke:#181818;stroke-width:1.0;"/><text fill="#000000" font-family="Sarabun" font-size="13" font-weight="bold" lengthAdjust="spacing" textLength="14" x="390.5" y="428.384">10</text><text fill="#000000" font-family="Sarabun" font-size="13" lengthAdjust="spacing" textLength="121" x="408.5" y="428.384">ตรวจสอบข้อมูลที่กรอก</text><line style="stroke:#181818;stroke-width:1.0;" x1="564.5" x2="554.5" y1="507.3" y2="503.3"/><line style="stroke:#181818;stroke-width:1.0;" x1="564.5" x2="554.5" y1="507.3" y2="511.3"/><line style="stroke:#181818;stroke-width:1.0;" x1="378.5" x2="565.5" y1="507.3" y2="507.3"/><text fill="#000000" font-family="Sarabun" font-size="13" font-weight="bold" lengthAdjust="spacing" textLength="14" x="385.5" y="502.284">11</text><text fill="#000000" font-family="Sarabun" font-size="13" lengthAdjust="spacing" textLength="111" x="403.5" y="502.284">เขียนข้อมูลของคอร์ส</text><polygon fill="#181818" points="223.5,564.2,213.5,568.2,223.5,572.2,219.5,568.2" style="stroke:#181818;stroke-width:1.0;"/><line style="stroke:#181818;stroke-width:1.0;stroke-dasharray:2.0,2.0;" x1="217.5" x2="372.5" y1="568.2" y2="568.2"/><text fill="#000000" font-family="Sarabun" font-size="13" font-weight="bold" lengthAdjust="spacing" textLength="14" x="229.5" y="563.184">12</text><text fill="#000000" font-family="Sarabun" font-size="13" lengthAdjust="spacing" textLength="91" x="247.5" y="563.184">ผลการสร้างคอร์ส</text><polygon fill="#181818" points="50.5,595.1,40.5,599.1,50.5,603.1,46.5,599.1" style="stroke:#181818;stroke-width:1.0;"/><line style="stroke:#181818;stroke-width:1.0;stroke-dasharray:2.0,2.0;" x1="44.5" x2="201.5" y1="599.1" y2="599.1"/><text fill="#000000" font-family="Sarabun" font-size="13" font-weight="bold" lengthAdjust="spacing" textLength="14" x="56.5" y="594.084">13</text><text fill="#000000" font-family="Sarabun" font-size="13" lengthAdjust="spacing" textLength="121" x="74.5" y="594.084">แสดงผลการสร้างคอร์ส</text><polygon fill="#181818" points="190.5,626,200.5,630,190.5,634,194.5,630" style="stroke:#181818;stroke-width:1.0;"/><line style="stroke:#181818;stroke-width:1.0;" x1="39.5" x2="196.5" y1="630" y2="630"/><text fill="#000000" font-family="Sarabun" font-size="13" font-weight="bold" lengthAdjust="spacing" textLength="14" x="46.5" y="624.984">14</text><text fill="#000000" font-family="Sarabun" font-size="13" lengthAdjust="spacing" textLength="62" x="64.5" y="624.984">กดปุ่ม "OK"</text><polygon fill="#181818" points="356.5,656.9,366.5,660.9,356.5,664.9,360.5,660.9" style="stroke:#181818;stroke-width:1.0;"/><line style="stroke:#181818;stroke-width:1.0;" x1="212.5" x2="362.5" y1="660.9" y2="660.9"/><text fill="#000000" font-family="Sarabun" font-size="13" font-weight="bold" lengthAdjust="spacing" textLength="14" x="219.5" y="655.884">15</text><text fill="#000000" font-family="Sarabun" font-size="13" lengthAdjust="spacing" textLength="93" x="237.5" y="655.884">ขอเข้าถึงหน้าหลัก</text><polygon fill="#181818" points="223.5,687.8,213.5,691.8,223.5,695.8,219.5,691.8" style="stroke:#181818;stroke-width:1.0;"/><line style="stroke:#181818;stroke-width:1.0;stroke-dasharray:2.0,2.0;" x1="217.5" x2="372.5" y1="691.8" y2="691.8"/><text fill="#000000" font-family="Sarabun" font-size="13" font-weight="bold" lengthAdjust="spacing" textLength="14" x="229.5" y="686.784">16</text><text fill="#000000" font-family="Sarabun" font-size="13" lengthAdjust="spacing" textLength="45" x="247.5" y="686.784">หน้าหลัก</text><polygon fill="#181818" points="45.5,718.7,35.5,722.7,45.5,726.7,41.5,722.7" style="stroke:#181818;stroke-width:1.0;"/><line style="stroke:#181818;stroke-width:1.0;stroke-dasharray:2.0,2.0;" x1="39.5" x2="206.5" y1="722.7" y2="722.7"/><text fill="#000000" font-family="Sarabun" font-size="13" font-weight="bold" lengthAdjust="spacing" textLength="14" x="51.5" y="717.684">17</text><text fill="#000000" font-family="Sarabun" font-size="13" lengthAdjust="spacing" textLength="75" x="69.5" y="717.684">แสดงหน้าหลัก</text><!--MD5=[2153283129904c5169f4fd4f1a71fd35]
@startuml
skinparam monochrome true
skinparam defaultFontName Sarabun
autonumber

title Use Case 2: จัดการคอร์ส

actor "เจ้าหน้าที่" as Staff
participant "เว็บเบราว์เซอร์" as Browser
participant "เว็บเซิร์ฟเวอร์" as Server
participant "ฐานข้อมูล" as Database

Staff -> Browser: กดสร้างคอร์ส
activate Staff
activate Browser
Browser -> Server: ขอเข้าถึงหน้าสร้างคอร์ส
activate Server
Server -> Database: ขอข้อมูลคอร์สและตารางเวลา
activate Database
Database - -> Server: ข้อมูลคอร์สและตารางเวลา
deactivate Database
Server - -> Browser: หน้าสร้างคอร์ส
deactivate Server
Browser - -> Staff: แสดงหน้าสร้างคอร์ส
Staff -> Browser: กรอกข้อมูลของคอร์ส
Staff -> Browser: กดปุ่ม "Create"
Browser -> Server: ส่งข้อมูลของคอร์ส
activate Server
Server -> Server: ตรวจสอบข้อมูลที่กรอก
activate Server
deactivate Server
Server ->> Database: เขียนข้อมูลของคอร์ส
activate Database
deactivate Database
Server - -> Browser: ผลการสร้างคอร์ส
deactivate Server
Browser - -> Staff: แสดงผลการสร้างคอร์ส
Staff -> Browser: กดปุ่ม "OK"
Browser -> Server: ขอเข้าถึงหน้าหลัก
activate Server
Server - -> Browser: หน้าหลัก
deactivate Server
Browser - -> Staff: แสดงหน้าหลัก
deactivate Browser
deactivate Staff
@enduml

PlantUML version 1.2022.7(Tue Aug 23 00:01:30 ICT 2022)
(GPL source distribution)
Java Runtime: OpenJDK Runtime Environment
JVM: OpenJDK 64-Bit Server VM
Default Encoding: UTF-8
Language: en
Country: TH
--></g></svg>