<?xml version="1.0" encoding="us-ascii" standalone="no"?><svg xmlns="http://www.w3.org/2000/svg" xmlns:xlink="http://www.w3.org/1999/xlink" contentStyleType="text/css" height="471px" preserveAspectRatio="none" style="width:1163px;height:471px;background:#FFFFFF;" version="1.1" viewBox="0 0 1163 471" width="1163px" zoomAndPan="magnify"><defs/><g><text fill="#000000" font-family="Sarabun" font-size="14" font-weight="bold" lengthAdjust="spacing" textLength="271" x="446.75" y="22.9951">State Machine Diagram &#3586;&#3629;&#3591; Course</text><rect fill="#FFFFFF" height="408.5938" style="stroke:#181818;stroke-width:1.5;" width="1137.5" x="20" y="57.2969"/><path d="M124,57.2969 L124,66.5938 L114,76.5938 L20,76.5938 " fill="none" style="stroke:#181818;stroke-width:1.5;"/><text fill="#000000" font-family="Sarabun" font-size="14" lengthAdjust="spacing" textLength="94" x="23" y="71.292">CourseStatus</text><g id="pending"><rect fill="#F1F1F1" height="50" rx="12.5" ry="12.5" style="stroke:#181818;stroke-width:0.5;" width="83" x="33" y="187.5938"/><line style="stroke:#181818;stroke-width:0.5;" x1="33" x2="116" y1="213.8906" y2="213.8906"/><text fill="#000000" font-family="Sarabun" font-size="14" lengthAdjust="spacing" textLength="63" x="43" y="205.5889">PENDING</text></g><g id="open"><rect fill="#F1F1F1" height="50" rx="12.5" ry="12.5" style="stroke:#181818;stroke-width:0.5;" width="59" x="350" y="187.5938"/><line style="stroke:#181818;stroke-width:0.5;" x1="350" x2="409" y1="213.8906" y2="213.8906"/><text fill="#000000" font-family="Sarabun" font-size="14" lengthAdjust="spacing" textLength="39" x="360" y="205.5889">OPEN</text></g><g id="full"><rect fill="#F1F1F1" height="50" rx="12.5" ry="12.5" style="stroke:#181818;stroke-width:0.5;" width="52" x="123.5" y="314.5938"/><line style="stroke:#181818;stroke-width:0.5;" x1="123.5" x2="175.5" y1="340.8906" y2="340.8906"/><text fill="#000000" font-family="Sarabun" font-size="14" lengthAdjust="spacing" textLength="32" x="133.5" y="332.5889">FULL</text></g><g id="active"><rect fill="#F1F1F1" height="50" rx="12.5" ry="12.5" style="stroke:#181818;stroke-width:0.5;" width="69" x="530" y="314.5938"/><line style="stroke:#181818;stroke-width:0.5;" x1="530" x2="599" y1="340.8906" y2="340.8906"/><text fill="#000000" font-family="Sarabun" font-size="14" lengthAdjust="spacing" textLength="49" x="540" y="332.5889">ACTIVE</text></g><g id="ended"><rect fill="#F1F1F1" height="50" rx="12.5" ry="12.5" style="stroke:#181818;stroke-width:0.5;" width="70" x="1077.5" y="314.5938"/><line style="stroke:#181818;stroke-width:0.5;" x1="1077.5" x2="1147.5" y1="340.8906" y2="340.8906"/><text fill="#000000" font-family="Sarabun" font-size="14" lengthAdjust="spacing" textLength="50" x="1087.5" y="332.5889">ENDED</text></g><ellipse cx="74.5" cy="100.5938" fill="#222222" rx="10" ry="10" style="stroke:#222222;stroke-width:1.0;"/><ellipse cx="1112.5" cy="436.5938" fill="none" rx="11" ry="11" style="stroke:#222222;stroke-width:1.0;"/><ellipse cx="1112.5" cy="436.5938" fill="#222222" rx="6" ry="6" style="stroke:#222222;stroke-width:1.0;"/><!--link *start* to pending--><g id="link_*start*_pending"><path d="M74.5,110.9738 C74.5,127.7038 74.5,157.1837 74.5,181.2238 " fill="none" id="*start*-to-pending" style="stroke:#181818;stroke-width:1.0;"/><polygon fill="#181818" points="74.5,187.2238,78.5,178.2238,74.5,182.2238,70.5,178.2238,74.5,187.2238" style="stroke:#181818;stroke-width:1.0;"/><text fill="#000000" font-family="Sarabun" font-size="13" lengthAdjust="spacing" textLength="80" x="75.5" y="153.6606">&#3626;&#3619;&#3657;&#3634;&#3591;&#3588;&#3629;&#3619;&#3660;&#3626;</text></g><!--link pending to open--><g id="link_pending_open"><path d="M116.27,212.5938 C178.76,212.5938 289.05,212.5938 343.69,212.5938 " fill="none" id="pending-to-open" style="stroke:#181818;stroke-width:1.0;"/><polygon fill="#181818" points="349.69,212.5938,340.69,208.5938,344.69,212.5938,340.69,216.5938,349.69,212.5938" style="stroke:#181818;stroke-width:1.0;"/><text fill="#000000" font-family="Sarabun" font-size="13" lengthAdjust="spacing" textLength="188" x="139" y="205.6606">&#3603; &#3623;&#3633;&#3609;&#3649;&#3621;&#3632;&#3648;&#3623;&#3621;&#3634;&#3648;&#3611;&#3636;&#3604;&#3619;&#3633;&#3610;&#3626;&#3617;&#3633;&#3588;&#3619;</text></g><!--link open to full--><g id="link_open_full"><path d="M349.9,227.7638 C328.05,238.3738 297.69,253.4438 271.5,267.5938 C238.08,285.6538 205.5548,304.7865 181.0248,319.5065 " fill="none" id="open-to-full" style="stroke:#181818;stroke-width:1.0;"/><polygon fill="#181818" points="175.88,322.5938,185.6553,321.3927,180.1673,320.021,181.539,314.533,175.88,322.5938" style="stroke:#181818;stroke-width:1.0;"/><text fill="#000000" font-family="Sarabun" font-size="13" lengthAdjust="spacing" textLength="176" x="272.5" y="280.6606">&#3621;&#3641;&#3585;&#3588;&#3657;&#3634;&#3626;&#3617;&#3633;&#3588;&#3619;&#3592;&#3609;&#3588;&#3619;&#3610;&#3592;&#3635;&#3609;&#3623;&#3609;</text></g><!--link full to active--><g id="link_full_active"><path d="M175.77,339.5938 C247.76,339.5938 442.17,339.5938 523.52,339.5938 " fill="none" id="full-to-active" style="stroke:#181818;stroke-width:1.0;"/><polygon fill="#181818" points="529.52,339.5938,520.52,335.5938,524.52,339.5938,520.52,343.5938,529.52,339.5938" style="stroke:#181818;stroke-width:1.0;"/><text fill="#000000" font-family="Sarabun" font-size="13" lengthAdjust="spacing" textLength="308" x="198.75" y="332.6606">&#3603; &#3623;&#3633;&#3609;&#3649;&#3621;&#3632;&#3648;&#3623;&#3621;&#3634;&#3648;&#3619;&#3636;&#3656;&#3617;&#3605;&#3657;&#3609;&#3588;&#3634;&#3610;&#3648;&#3619;&#3637;&#3618;&#3609;&#3649;&#3619;&#3585;&#3586;&#3629;&#3591;&#3588;&#3629;&#3619;&#3660;&#3626;</text></g><!--link open to active--><g id="link_open_active"><path d="M409.22,233.6738 C442.11,255.9038 490.0787,288.3043 524.8387,311.7943 " fill="none" id="open-to-active" style="stroke:#181818;stroke-width:1.0;"/><polygon fill="#181818" points="529.81,315.1538,524.5927,306.8003,525.6672,312.3542,520.1134,313.4287,529.81,315.1538" style="stroke:#181818;stroke-width:1.0;"/><text fill="#000000" font-family="Sarabun" font-size="13" lengthAdjust="spacing" textLength="308" x="483.5" y="280.6606">&#3603; &#3623;&#3633;&#3609;&#3649;&#3621;&#3632;&#3648;&#3623;&#3621;&#3634;&#3648;&#3619;&#3636;&#3656;&#3617;&#3605;&#3657;&#3609;&#3588;&#3634;&#3610;&#3648;&#3619;&#3637;&#3618;&#3609;&#3649;&#3619;&#3585;&#3586;&#3629;&#3591;&#3588;&#3629;&#3619;&#3660;&#3626;</text></g><!--link active to ended--><g id="link_active_ended"><path d="M599.2,339.5938 C697.66,339.5938 972.1,339.5938 1071.25,339.5938 " fill="none" id="active-to-ended" style="stroke:#181818;stroke-width:1.0;"/><polygon fill="#181818" points="1077.25,339.5938,1068.25,335.5938,1072.25,339.5938,1068.25,343.5938,1077.25,339.5938" style="stroke:#181818;stroke-width:1.0;"/><text fill="#000000" font-family="Sarabun" font-size="13" lengthAdjust="spacing" textLength="432" x="622.25" y="332.6606">&#3621;&#3641;&#3585;&#3588;&#3657;&#3634;&#3607;&#3640;&#3585;&#3588;&#3609;&#3651;&#3609;&#3588;&#3629;&#3619;&#3660;&#3626;&#3648;&#3619;&#3637;&#3618;&#3609;&#3588;&#3619;&#3610;&#3605;&#3634;&#3617;&#3592;&#3635;&#3609;&#3623;&#3609;&#3588;&#3619;&#3633;&#3657;&#3591;&#3607;&#3637;&#3656;&#3588;&#3629;&#3619;&#3660;&#3626;&#3585;&#3635;&#3627;&#3609;&#3604;</text></g><!--link active to ended--><g id="link_active_ended"><path d="M596.31,364.9938 C610.44,374.7038 627.8,384.6338 645.25,389.5938 C665.88,395.4638 1010.62,395.4338 1031.25,389.5938 C1048.78,384.6338 1061.295,378.0872 1075.515,368.3772 " fill="none" id="active-to-ended-1" style="stroke:#181818;stroke-width:1.0;"/><polygon fill="#181818" points="1080.47,364.9938,1070.7818,366.7656,1076.3408,367.8133,1075.2931,373.3723,1080.47,364.9938" style="stroke:#181818;stroke-width:1.0;"/><text fill="#000000" font-family="Sarabun" font-size="13" lengthAdjust="spacing" textLength="236" x="720.25" y="355.6606">&#3603; &#3623;&#3633;&#3609;&#3649;&#3621;&#3632;&#3648;&#3623;&#3621;&#3634;&#3605;&#3634;&#3617;&#3611;&#3599;&#3636;&#3607;&#3636;&#3609; 2 &#3626;&#3633;&#3611;&#3604;&#3634;&#3627;&#3660;</text><text fill="#000000" font-family="Sarabun" font-size="13" lengthAdjust="spacing" textLength="384" x="646.25" y="370.7935">&#3627;&#3621;&#3633;&#3591;&#3592;&#3634;&#3585;&#3623;&#3633;&#3609;&#3649;&#3621;&#3632;&#3648;&#3623;&#3621;&#3634;&#3648;&#3619;&#3636;&#3656;&#3617;&#3605;&#3657;&#3609;&#3588;&#3634;&#3610;&#3648;&#3619;&#3637;&#3618;&#3609;&#3626;&#3640;&#3604;&#3607;&#3657;&#3634;&#3618;&#3586;&#3629;&#3591;&#3588;&#3629;&#3619;&#3660;&#3626;</text><text fill="#000000" font-family="Sarabun" font-size="13" lengthAdjust="spacing" textLength="95" x="790.75" y="385.9263">(2-week offset)</text></g><!--link ended to *end*--><g id="link_ended_*end*"><path d="M1112.5,365.0538 C1112.5,384.6338 1112.5,405.0838 1112.5,419.3938 " fill="none" id="ended-to-*end*" style="stroke:#181818;stroke-width:1.0;"/><polygon fill="#181818" points="1112.5,425.3938,1116.5,416.3938,1112.5,420.3938,1108.5,416.3938,1112.5,425.3938" style="stroke:#181818;stroke-width:1.0;"/></g><!--SRC=[nPFVQnD14CVVzwzO-gH2gEHHIa6QL0er2lvuiJwioLvwzB9NxlOi8WMhGYe8FfWIqZwr8GWMmKGBU__D_2dEpDusD5JqGJ2GiFdEpFSpCxUNxyHcLsMg9ryBYPzUQjBsTfRsjBHPeLdhw4WLYLrFZMqf33p2_1U54Vj2sDWcA5XbjRolsjknqR8HgouPWdiBxXkulbnBYopNGgpazbMYLpr8nIRAoCw3lPPrOoFhjrdP5olBLS4ysLiHiCY5o1cyzB3PQcoqxYr9bSjTRJgnwORG0uondc8WYEjFDZTPZ8ea2UBTjSSRJviigxQDN-eGGFDcWtMqrXqXdjrwBckTTC_KLWFk3axx5TmOoW_WPZWpkFSyF2eVCIIgF8abr0dbVyRl5t1JS2Ce3y1Dm7s7yWsB4tAXymcud-06P4IPnumvvJC2neBCBfkXSSWPgqjm1vHIzNEb2DmXCQlpCV_zmGgIHu9Sg4-_XR_kT4oTbeSCEcAkHym8KILSW3iB9cFkiBeYY-loO_tV7ZoRkk3dVlrYX-1SfP3dkq2S-onovsi_OeVJXVs7X2aZ-eouuA6ksX8KgywvP71TjtzSsRm3l6QV-AOD-NSaw_v2JpaquBHp16yP9auuqkVEPzp9FtqqH7QC7OOzd_tkCMsP6_NQdjOxCesYNDkRWkU_V2VmPVq5]--></g></svg>