<?xml version="1.0" encoding="UTF-8" standalone="no"?><svg xmlns="http://www.w3.org/2000/svg" xmlns:xlink="http://www.w3.org/1999/xlink" contentStyleType="text/css" height="937px" preserveAspectRatio="none" style="width:800px;height:937px;background:#FFFFFF;" version="1.1" viewBox="0 0 800 937" width="800px" zoomAndPan="magnify"><defs/><g><rect fill="none" height="28.2" id="_title" style="stroke:none;stroke-width:1.0;" width="152" x="317.75" y="10"/><text fill="#000000" font-family="Sarabun" font-size="14" font-weight="bold" lengthAdjust="spacing" textLength="142" x="322.75" y="29.952">Use Case 1: ยืนยันตัวตน</text><rect fill="#FFFFFF" height="887.5" style="stroke:#000000;stroke-width:1.5;" width="790.5" x="4" y="44.2"/><path d="M136,44.2 L136,55.4 L126,65.4 L4,65.4 " fill="none" style="stroke:#000000;stroke-width:1.5;"/><text fill="#000000" font-family="Sarabun" font-size="14" font-weight="bold" lengthAdjust="spacing" textLength="14" x="7" y="60.152">sd</text><text fill="#000000" font-family="Sarabun" font-size="14" lengthAdjust="spacing" textLength="105" x="24" y="60.152">AuthenticateUser</text><rect fill="#FFFFFF" height="734" style="stroke:#181818;stroke-width:1.0;" width="10" x="40.5" y="138.5"/><rect fill="#FFFFFF" height="734" style="stroke:#181818;stroke-width:1.0;" width="10" x="302.5" y="138.5"/><rect fill="#FFFFFF" height="30.9" style="stroke:#181818;stroke-width:1.0;" width="10" x="534.5" y="169.4"/><rect fill="#FFFFFF" height="227.5" style="stroke:#181818;stroke-width:1.0;" width="10" x="534.5" y="323.9"/><rect fill="#FFFFFF" height="28" style="stroke:#181818;stroke-width:1.0;" width="10" x="539.5" y="424.6"/><rect fill="#FFFFFF" height="166.6" style="stroke:#181818;stroke-width:1.0;" width="10" x="534.5" y="675"/><rect fill="#FFFFFF" height="28" style="stroke:#181818;stroke-width:1.0;" width="10" x="539.5" y="775.7"/><rect fill="#FFFFFF" height="30.9" style="stroke:#181818;stroke-width:1.0;" width="10" x="746.5" y="354.8"/><rect fill="#FFFFFF" height="30" style="stroke:#181818;stroke-width:1.0;" width="10" x="746.5" y="490.5"/><rect fill="#FFFFFF" height="30.9" style="stroke:#181818;stroke-width:1.0;" width="10" x="746.5" y="705.9"/><line style="stroke:#181818;stroke-width:0.5;stroke-dasharray:5.0,5.0;" x1="45" x2="45" y1="105.6" y2="890.5"/><line style="stroke:#181818;stroke-width:0.5;stroke-dasharray:5.0,5.0;" x1="307" x2="307" y1="105.6" y2="890.5"/><line style="stroke:#181818;stroke-width:0.5;stroke-dasharray:5.0,5.0;" x1="539" x2="539" y1="105.6" y2="890.5"/><line style="stroke:#181818;stroke-width:0.5;stroke-dasharray:5.0,5.0;" x1="751.5" x2="751.5" y1="105.6" y2="890.5"/><rect fill="#E3E3E3" height="32.2" rx="2.5" ry="2.5" style="stroke:#181818;stroke-width:0.5;" width="71" x="10" y="72.4"/><text fill="#000000" font-family="Sarabun" font-size="14" lengthAdjust="spacing" textLength="57" x="17" y="94.352">user:User</text><rect fill="#E3E3E3" height="32.2" rx="2.5" ry="2.5" style="stroke:#181818;stroke-width:0.5;" width="71" x="10" y="889.5"/><text fill="#000000" font-family="Sarabun" font-size="14" lengthAdjust="spacing" textLength="57" x="17" y="911.452">user:User</text><rect fill="#E3E3E3" height="32.2" rx="2.5" ry="2.5" style="stroke:#181818;stroke-width:0.5;" width="93" x="261" y="72.4"/><text fill="#000000" font-family="Sarabun" font-size="14" lengthAdjust="spacing" textLength="79" x="268" y="94.352">:WebBrowser</text><rect fill="#E3E3E3" height="32.2" rx="2.5" ry="2.5" style="stroke:#181818;stroke-width:0.5;" width="93" x="261" y="889.5"/><text fill="#000000" font-family="Sarabun" font-size="14" lengthAdjust="spacing" textLength="79" x="268" y="911.452">:WebBrowser</text><rect fill="#E3E3E3" height="32.2" rx="2.5" ry="2.5" style="stroke:#181818;stroke-width:0.5;" width="83" x="498" y="72.4"/><text fill="#000000" font-family="Sarabun" font-size="14" lengthAdjust="spacing" textLength="69" x="505" y="94.352">:WebServer</text><rect fill="#E3E3E3" height="32.2" rx="2.5" ry="2.5" style="stroke:#181818;stroke-width:0.5;" width="83" x="498" y="889.5"/><text fill="#000000" font-family="Sarabun" font-size="14" lengthAdjust="spacing" textLength="69" x="505" y="911.452">:WebServer</text><rect fill="#E3E3E3" height="32.2" rx="2.5" ry="2.5" style="stroke:#181818;stroke-width:0.5;" width="74" x="714.5" y="72.4"/><text fill="#000000" font-family="Sarabun" font-size="14" lengthAdjust="spacing" textLength="60" x="721.5" y="94.352">:Database</text><rect fill="#E3E3E3" height="32.2" rx="2.5" ry="2.5" style="stroke:#181818;stroke-width:0.5;" width="74" x="714.5" y="889.5"/><text fill="#000000" font-family="Sarabun" font-size="14" lengthAdjust="spacing" textLength="60" x="721.5" y="911.452">:Database</text><rect fill="#FFFFFF" height="734" style="stroke:#181818;stroke-width:1.0;" width="10" x="40.5" y="138.5"/><rect fill="#FFFFFF" height="734" style="stroke:#181818;stroke-width:1.0;" width="10" x="302.5" y="138.5"/><rect fill="#FFFFFF" height="30.9" style="stroke:#181818;stroke-width:1.0;" width="10" x="534.5" y="169.4"/><rect fill="#FFFFFF" height="227.5" style="stroke:#181818;stroke-width:1.0;" width="10" x="534.5" y="323.9"/><rect fill="#FFFFFF" height="28" style="stroke:#181818;stroke-width:1.0;" width="10" x="539.5" y="424.6"/><rect fill="#FFFFFF" height="166.6" style="stroke:#181818;stroke-width:1.0;" width="10" x="534.5" y="675"/><rect fill="#FFFFFF" height="28" style="stroke:#181818;stroke-width:1.0;" width="10" x="539.5" y="775.7"/><rect fill="#FFFFFF" height="30.9" style="stroke:#181818;stroke-width:1.0;" width="10" x="746.5" y="354.8"/><rect fill="#FFFFFF" height="30" style="stroke:#181818;stroke-width:1.0;" width="10" x="746.5" y="490.5"/><rect fill="#FFFFFF" height="30.9" style="stroke:#181818;stroke-width:1.0;" width="10" x="746.5" y="705.9"/><polygon fill="#181818" points="290.5,134.5,300.5,138.5,290.5,142.5,294.5,138.5" style="stroke:#181818;stroke-width:1.0;"/><line style="stroke:#181818;stroke-width:1.0;" x1="50.5" x2="296.5" y1="138.5" y2="138.5"/><text fill="#000000" font-family="Sarabun" font-size="13" font-weight="bold" lengthAdjust="spacing" textLength="7" x="57.5" y="133.484">1</text><text fill="#000000" font-family="Sarabun" font-size="13" lengthAdjust="spacing" textLength="120" x="68.5" y="133.484">กดลงทะเบียนบัญชีผู้ใช้</text><polygon fill="#181818" points="522.5,165.4,532.5,169.4,522.5,173.4,526.5,169.4" style="stroke:#181818;stroke-width:1.0;"/><line style="stroke:#181818;stroke-width:1.0;" x1="312.5" x2="528.5" y1="169.4" y2="169.4"/><text fill="#000000" font-family="Sarabun" font-size="13" font-weight="bold" lengthAdjust="spacing" textLength="7" x="319.5" y="164.384">2</text><text fill="#000000" font-family="Sarabun" font-size="13" lengthAdjust="spacing" textLength="175" x="330.5" y="164.384">ขอเข้าถึงหน้าลงทะเบียนบัญชีผู้ใช้</text><polygon fill="#181818" points="323.5,196.3,313.5,200.3,323.5,204.3,319.5,200.3" style="stroke:#181818;stroke-width:1.0;"/><line style="stroke:#181818;stroke-width:1.0;stroke-dasharray:2.0,2.0;" x1="317.5" x2="538.5" y1="200.3" y2="200.3"/><text fill="#000000" font-family="Sarabun" font-size="13" font-weight="bold" lengthAdjust="spacing" textLength="7" x="329.5" y="195.284">3</text><text fill="#000000" font-family="Sarabun" font-size="13" lengthAdjust="spacing" textLength="187" x="340.5" y="195.284">หน้าฟอร์มลงทะเบียนบัญชีผู้ใช้ระบบ</text><polygon fill="#181818" points="61.5,227.2,51.5,231.2,61.5,235.2,57.5,231.2" style="stroke:#181818;stroke-width:1.0;"/><line style="stroke:#181818;stroke-width:1.0;stroke-dasharray:2.0,2.0;" x1="55.5" x2="301.5" y1="231.2" y2="231.2"/><text fill="#000000" font-family="Sarabun" font-size="13" font-weight="bold" lengthAdjust="spacing" textLength="7" x="67.5" y="226.184">4</text><text fill="#000000" font-family="Sarabun" font-size="13" lengthAdjust="spacing" textLength="217" x="78.5" y="226.184">แสดงหน้าฟอร์มลงทะเบียนบัญชีผู้ใช้ระบบ</text><polygon fill="#181818" points="290.5,258.1,300.5,262.1,290.5,266.1,294.5,262.1" style="stroke:#181818;stroke-width:1.0;"/><line style="stroke:#181818;stroke-width:1.0;" x1="50.5" x2="296.5" y1="262.1" y2="262.1"/><text fill="#000000" font-family="Sarabun" font-size="13" font-weight="bold" lengthAdjust="spacing" textLength="7" x="57.5" y="257.084">5</text><text fill="#000000" font-family="Sarabun" font-size="13" lengthAdjust="spacing" textLength="60" x="68.5" y="257.084">กรอกข้อมูล</text><polygon fill="#181818" points="290.5,289,300.5,293,290.5,297,294.5,293" style="stroke:#181818;stroke-width:1.0;"/><line style="stroke:#181818;stroke-width:1.0;" x1="50.5" x2="296.5" y1="293" y2="293"/><text fill="#000000" font-family="Sarabun" font-size="13" font-weight="bold" lengthAdjust="spacing" textLength="7" x="57.5" y="287.984">6</text><text fill="#000000" font-family="Sarabun" font-size="13" lengthAdjust="spacing" textLength="133" x="68.5" y="287.984">กดปุ่ม "Create Account"</text><polygon fill="#181818" points="522.5,319.9,532.5,323.9,522.5,327.9,526.5,323.9" style="stroke:#181818;stroke-width:1.0;"/><line style="stroke:#181818;stroke-width:1.0;" x1="312.5" x2="528.5" y1="323.9" y2="323.9"/><text fill="#000000" font-family="Sarabun" font-size="13" font-weight="bold" lengthAdjust="spacing" textLength="7" x="319.5" y="318.884">7</text><text fill="#000000" font-family="Sarabun" font-size="13" lengthAdjust="spacing" textLength="142" x="330.5" y="318.884">ส่งข้อมูลส่วนตัวที่ผู้ใช้กรอก</text><polygon fill="#181818" points="734.5,350.8,744.5,354.8,734.5,358.8,738.5,354.8" style="stroke:#181818;stroke-width:1.0;"/><line style="stroke:#181818;stroke-width:1.0;" x1="544.5" x2="740.5" y1="354.8" y2="354.8"/><text fill="#000000" font-family="Sarabun" font-size="13" font-weight="bold" lengthAdjust="spacing" textLength="7" x="551.5" y="349.784">8</text><text fill="#000000" font-family="Sarabun" font-size="13" lengthAdjust="spacing" textLength="69" x="562.5" y="349.784">ขอข้อมูลผู้ใช้</text><polygon fill="#181818" points="555.5,381.7,545.5,385.7,555.5,389.7,551.5,385.7" style="stroke:#181818;stroke-width:1.0;"/><line style="stroke:#181818;stroke-width:1.0;stroke-dasharray:2.0,2.0;" x1="549.5" x2="750.5" y1="385.7" y2="385.7"/><text fill="#000000" font-family="Sarabun" font-size="13" font-weight="bold" lengthAdjust="spacing" textLength="7" x="561.5" y="380.684">9</text><text fill="#000000" font-family="Sarabun" font-size="13" lengthAdjust="spacing" textLength="53" x="572.5" y="380.684">ข้อมูลผู้ใช้</text><line style="stroke:#181818;stroke-width:1.0;" x1="549.5" x2="591.5" y1="416.6" y2="416.6"/><line style="stroke:#181818;stroke-width:1.0;" x1="591.5" x2="591.5" y1="416.6" y2="429.6"/><line style="stroke:#181818;stroke-width:1.0;" x1="550.5" x2="591.5" y1="429.6" y2="429.6"/><polygon fill="#181818" points="560.5,425.6,550.5,429.6,560.5,433.6,556.5,429.6" style="stroke:#181818;stroke-width:1.0;"/><text fill="#000000" font-family="Sarabun" font-size="13" font-weight="bold" lengthAdjust="spacing" textLength="14" x="556.5" y="411.584">10</text><text fill="#000000" font-family="Sarabun" font-size="13" lengthAdjust="spacing" textLength="142" x="574.5" y="411.584">ตรวจสอบข้อมูลที่ผู้ใช้กรอก</text><line style="stroke:#181818;stroke-width:1.0;" x1="744.5" x2="734.5" y1="490.5" y2="486.5"/><line style="stroke:#181818;stroke-width:1.0;" x1="744.5" x2="734.5" y1="490.5" y2="494.5"/><line style="stroke:#181818;stroke-width:1.0;" x1="544.5" x2="745.5" y1="490.5" y2="490.5"/><text fill="#000000" font-family="Sarabun" font-size="13" font-weight="bold" lengthAdjust="spacing" textLength="14" x="551.5" y="485.484">11</text><text fill="#000000" font-family="Sarabun" font-size="13" lengthAdjust="spacing" textLength="80" x="569.5" y="485.484">เขียนข้อมูลผู้ใช้</text><polygon fill="#181818" points="323.5,547.4,313.5,551.4,323.5,555.4,319.5,551.4" style="stroke:#181818;stroke-width:1.0;"/><line style="stroke:#181818;stroke-width:1.0;stroke-dasharray:2.0,2.0;" x1="317.5" x2="538.5" y1="551.4" y2="551.4"/><text fill="#000000" font-family="Sarabun" font-size="13" font-weight="bold" lengthAdjust="spacing" textLength="14" x="329.5" y="546.384">12</text><text fill="#000000" font-family="Sarabun" font-size="13" lengthAdjust="spacing" textLength="143" x="347.5" y="546.384">หน้าฟอร์มลงชื่อเข้าใช้ระบบ</text><polygon fill="#181818" points="61.5,578.3,51.5,582.3,61.5,586.3,57.5,582.3" style="stroke:#181818;stroke-width:1.0;"/><line style="stroke:#181818;stroke-width:1.0;stroke-dasharray:2.0,2.0;" x1="55.5" x2="301.5" y1="582.3" y2="582.3"/><text fill="#000000" font-family="Sarabun" font-size="13" font-weight="bold" lengthAdjust="spacing" textLength="14" x="67.5" y="577.284">13</text><text fill="#000000" font-family="Sarabun" font-size="13" lengthAdjust="spacing" textLength="151" x="85.5" y="577.284">แสดงฟอร์มลงชื่อเข้าใช้ระบบ</text><polygon fill="#181818" points="290.5,609.2,300.5,613.2,290.5,617.2,294.5,613.2" style="stroke:#181818;stroke-width:1.0;"/><line style="stroke:#181818;stroke-width:1.0;" x1="50.5" x2="296.5" y1="613.2" y2="613.2"/><text fill="#000000" font-family="Sarabun" font-size="13" font-weight="bold" lengthAdjust="spacing" textLength="14" x="57.5" y="608.184">14</text><text fill="#000000" font-family="Sarabun" font-size="13" lengthAdjust="spacing" textLength="60" x="75.5" y="608.184">กรอกข้อมูล</text><polygon fill="#181818" points="290.5,640.1,300.5,644.1,290.5,648.1,294.5,644.1" style="stroke:#181818;stroke-width:1.0;"/><line style="stroke:#181818;stroke-width:1.0;" x1="50.5" x2="296.5" y1="644.1" y2="644.1"/><text fill="#000000" font-family="Sarabun" font-size="13" font-weight="bold" lengthAdjust="spacing" textLength="14" x="57.5" y="639.084">15</text><text fill="#000000" font-family="Sarabun" font-size="13" lengthAdjust="spacing" textLength="83" x="75.5" y="639.084">กดปุ่ม "Sign In"</text><polygon fill="#181818" points="522.5,671,532.5,675,522.5,679,526.5,675" style="stroke:#181818;stroke-width:1.0;"/><line style="stroke:#181818;stroke-width:1.0;" x1="312.5" x2="528.5" y1="675" y2="675"/><text fill="#000000" font-family="Sarabun" font-size="13" font-weight="bold" lengthAdjust="spacing" textLength="14" x="319.5" y="669.984">16</text><text fill="#000000" font-family="Sarabun" font-size="13" lengthAdjust="spacing" textLength="120" x="337.5" y="669.984">ส่งข้อมูลการเข้าสู่ระบบ</text><polygon fill="#181818" points="734.5,701.9,744.5,705.9,734.5,709.9,738.5,705.9" style="stroke:#181818;stroke-width:1.0;"/><line style="stroke:#181818;stroke-width:1.0;" x1="544.5" x2="740.5" y1="705.9" y2="705.9"/><text fill="#000000" font-family="Sarabun" font-size="13" font-weight="bold" lengthAdjust="spacing" textLength="14" x="551.5" y="700.884">17</text><text fill="#000000" font-family="Sarabun" font-size="13" lengthAdjust="spacing" textLength="165" x="569.5" y="700.884">ขอข้อมูลการเข้าสู่ระบบของผู้ใช้</text><polygon fill="#181818" points="555.5,732.8,545.5,736.8,555.5,740.8,551.5,736.8" style="stroke:#181818;stroke-width:1.0;"/><line style="stroke:#181818;stroke-width:1.0;stroke-dasharray:2.0,2.0;" x1="549.5" x2="750.5" y1="736.8" y2="736.8"/><text fill="#000000" font-family="Sarabun" font-size="13" font-weight="bold" lengthAdjust="spacing" textLength="14" x="561.5" y="731.784">18</text><text fill="#000000" font-family="Sarabun" font-size="13" lengthAdjust="spacing" textLength="149" x="579.5" y="731.784">ข้อมูลการเข้าสู่ระบบของผู้ใช้</text><line style="stroke:#181818;stroke-width:1.0;" x1="549.5" x2="591.5" y1="767.7" y2="767.7"/><line style="stroke:#181818;stroke-width:1.0;" x1="591.5" x2="591.5" y1="767.7" y2="780.7"/><line style="stroke:#181818;stroke-width:1.0;" x1="550.5" x2="591.5" y1="780.7" y2="780.7"/><polygon fill="#181818" points="560.5,776.7,550.5,780.7,560.5,784.7,556.5,780.7" style="stroke:#181818;stroke-width:1.0;"/><text fill="#000000" font-family="Sarabun" font-size="13" font-weight="bold" lengthAdjust="spacing" textLength="14" x="556.5" y="762.684">19</text><text fill="#000000" font-family="Sarabun" font-size="13" lengthAdjust="spacing" textLength="142" x="574.5" y="762.684">ตรวจสอบข้อมูลที่ผู้ใช้กรอก</text><polygon fill="#181818" points="323.5,837.6,313.5,841.6,323.5,845.6,319.5,841.6" style="stroke:#181818;stroke-width:1.0;"/><line style="stroke:#181818;stroke-width:1.0;stroke-dasharray:2.0,2.0;" x1="317.5" x2="538.5" y1="841.6" y2="841.6"/><text fill="#000000" font-family="Sarabun" font-size="13" font-weight="bold" lengthAdjust="spacing" textLength="14" x="329.5" y="836.584">20</text><text fill="#000000" font-family="Sarabun" font-size="13" lengthAdjust="spacing" textLength="45" x="347.5" y="836.584">หน้าหลัก</text><polygon fill="#181818" points="56.5,868.5,46.5,872.5,56.5,876.5,52.5,872.5" style="stroke:#181818;stroke-width:1.0;"/><line style="stroke:#181818;stroke-width:1.0;stroke-dasharray:2.0,2.0;" x1="50.5" x2="306.5" y1="872.5" y2="872.5"/><text fill="#000000" font-family="Sarabun" font-size="13" font-weight="bold" lengthAdjust="spacing" textLength="14" x="62.5" y="867.484">21</text><text fill="#000000" font-family="Sarabun" font-size="13" lengthAdjust="spacing" textLength="75" x="80.5" y="867.484">แสดงหน้าหลัก</text><!--MD5=[052377685282447d15dff96b6a045c79]
@startuml
skinparam monochrome true
skinparam defaultFontName Sarabun
autonumber

title Use Case 1: ยืนยันตัวตน
mainframe **sd** AuthenticateUser

participant "user:User" as User
participant ":WebBrowser" as Browser
participant ":WebServer" as Server
participant ":Database" as Database

User -> Browser: กดลงทะเบียนบัญชีผู้ใช้
activate User
activate Browser
Browser -> Server: ขอเข้าถึงหน้าลงทะเบียนบัญชีผู้ใช้
activate Server
Server - -> Browser: หน้าฟอร์มลงทะเบียนบัญชีผู้ใช้ระบบ
deactivate Server
Browser - -> User: แสดงหน้าฟอร์มลงทะเบียนบัญชีผู้ใช้ระบบ
User -> Browser: กรอกข้อมูล
User -> Browser: กดปุ่ม "Create Account"
Browser -> Server: ส่งข้อมูลส่วนตัวที่ผู้ใช้กรอก
activate Server
Server -> Database: ขอข้อมูลผู้ใช้
activate Database
Database - -> Server: ข้อมูลผู้ใช้
deactivate Database
Server -> Server: ตรวจสอบข้อมูลที่ผู้ใช้กรอก
activate Server
deactivate Server
Server ->> Database: เขียนข้อมูลผู้ใช้
activate Database
deactivate Database
Server - -> Browser: หน้าฟอร์มลงชื่อเข้าใช้ระบบ
deactivate Server
Browser - -> User: แสดงฟอร์มลงชื่อเข้าใช้ระบบ
User -> Browser: กรอกข้อมูล
User -> Browser: กดปุ่ม "Sign In"
Browser -> Server: ส่งข้อมูลการเข้าสู่ระบบ
activate Server
Server -> Database: ขอข้อมูลการเข้าสู่ระบบของผู้ใช้
activate Database
Database - -> Server: ข้อมูลการเข้าสู่ระบบของผู้ใช้
deactivate Database
Server -> Server: ตรวจสอบข้อมูลที่ผู้ใช้กรอก
activate Server
deactivate Server
Server - -> Browser: หน้าหลัก
deactivate Server
Browser - -> User: แสดงหน้าหลัก
deactivate Browser
deactivate User
@enduml

PlantUML version 1.2022.7(Tue Aug 23 00:01:30 ICT 2022)
(GPL source distribution)
Java Runtime: OpenJDK Runtime Environment
JVM: OpenJDK 64-Bit Server VM
Default Encoding: UTF-8
Language: en
Country: TH
--></g></svg>