<?xml version="1.0" encoding="UTF-8" standalone="no"?><svg xmlns="http://www.w3.org/2000/svg" xmlns:xlink="http://www.w3.org/1999/xlink" contentStyleType="text/css" height="732px" preserveAspectRatio="none" style="width:617px;height:732px;background:#FFFFFF;" version="1.1" viewBox="0 0 617 732" width="617px" zoomAndPan="magnify"><defs/><g><rect fill="none" height="28.2" id="_title" style="stroke:none;stroke-width:1.0;" width="155" x="230" y="10"/><text fill="#000000" font-family="Sarabun" font-size="14" font-weight="bold" lengthAdjust="spacing" textLength="145" x="235" y="29.952">Use Case 2: จัดการคอร์ส</text><rect fill="#FFFFFF" height="567.4" style="stroke:#181818;stroke-width:1.0;" width="10" x="33.5" y="110.3"/><rect fill="#FFFFFF" height="567.4" style="stroke:#181818;stroke-width:1.0;" width="10" x="206.5" y="110.3"/><rect fill="#FFFFFF" height="92.7" style="stroke:#181818;stroke-width:1.0;" width="10" x="372.5" y="141.2"/><rect fill="#FFFFFF" height="165.7" style="stroke:#181818;stroke-width:1.0;" width="10" x="372.5" y="357.5"/><rect fill="#FFFFFF" height="28" style="stroke:#181818;stroke-width:1.0;" width="10" x="377.5" y="396.4"/><rect fill="#FFFFFF" height="30.9" style="stroke:#181818;stroke-width:1.0;" width="10" x="372.5" y="615.9"/><rect fill="#FFFFFF" height="30.9" style="stroke:#181818;stroke-width:1.0;" width="10" x="570.5" y="172.1"/><rect fill="#FFFFFF" height="30" style="stroke:#181818;stroke-width:1.0;" width="10" x="570.5" y="462.3"/><line style="stroke:#181818;stroke-width:0.5;stroke-dasharray:5.0,5.0;" x1="38" x2="38" y1="77.4" y2="695.7"/><line style="stroke:#181818;stroke-width:0.5;stroke-dasharray:5.0,5.0;" x1="211.5" x2="211.5" y1="77.4" y2="695.7"/><line style="stroke:#181818;stroke-width:0.5;stroke-dasharray:5.0,5.0;" x1="377.5" x2="377.5" y1="77.4" y2="695.7"/><line style="stroke:#181818;stroke-width:0.5;stroke-dasharray:5.0,5.0;" x1="575" x2="575" y1="77.4" y2="695.7"/><rect fill="#E3E3E3" height="32.2" rx="2.5" ry="2.5" style="stroke:#181818;stroke-width:0.5;" width="67" x="5" y="44.2"/><text fill="#000000" font-family="Sarabun" font-size="14" lengthAdjust="spacing" textLength="53" x="12" y="66.152">เจ้าหน้าที่</text><rect fill="#E3E3E3" height="32.2" rx="2.5" ry="2.5" style="stroke:#181818;stroke-width:0.5;" width="67" x="5" y="694.7"/><text fill="#000000" font-family="Sarabun" font-size="14" lengthAdjust="spacing" textLength="53" x="12" y="716.652">เจ้าหน้าที่</text><rect fill="#E3E3E3" height="32.2" rx="2.5" ry="2.5" style="stroke:#181818;stroke-width:0.5;" width="96" x="163.5" y="44.2"/><text fill="#000000" font-family="Sarabun" font-size="14" lengthAdjust="spacing" textLength="82" x="170.5" y="66.152">เว็บเบราว์เซอร์</text><rect fill="#E3E3E3" height="32.2" rx="2.5" ry="2.5" style="stroke:#181818;stroke-width:0.5;" width="96" x="163.5" y="694.7"/><text fill="#000000" font-family="Sarabun" font-size="14" lengthAdjust="spacing" textLength="82" x="170.5" y="716.652">เว็บเบราว์เซอร์</text><rect fill="#E3E3E3" height="32.2" rx="2.5" ry="2.5" style="stroke:#181818;stroke-width:0.5;" width="90" x="332.5" y="44.2"/><text fill="#000000" font-family="Sarabun" font-size="14" lengthAdjust="spacing" textLength="76" x="339.5" y="66.152">เว็บเซิร์ฟเวอร์</text><rect fill="#E3E3E3" height="32.2" rx="2.5" ry="2.5" style="stroke:#181818;stroke-width:0.5;" width="90" x="332.5" y="694.7"/><text fill="#000000" font-family="Sarabun" font-size="14" lengthAdjust="spacing" textLength="76" x="339.5" y="716.652">เว็บเซิร์ฟเวอร์</text><rect fill="#E3E3E3" height="32.2" rx="2.5" ry="2.5" style="stroke:#181818;stroke-width:0.5;" width="71" x="540" y="44.2"/><text fill="#000000" font-family="Sarabun" font-size="14" lengthAdjust="spacing" textLength="57" x="547" y="66.152">ฐานข้อมูล</text><rect fill="#E3E3E3" height="32.2" rx="2.5" ry="2.5" style="stroke:#181818;stroke-width:0.5;" width="71" x="540" y="694.7"/><text fill="#000000" font-family="Sarabun" font-size="14" lengthAdjust="spacing" textLength="57" x="547" y="716.652">ฐานข้อมูล</text><rect fill="#FFFFFF" height="567.4" style="stroke:#181818;stroke-width:1.0;" width="10" x="33.5" y="110.3"/><rect fill="#FFFFFF" height="567.4" style="stroke:#181818;stroke-width:1.0;" width="10" x="206.5" y="110.3"/><rect fill="#FFFFFF" height="92.7" style="stroke:#181818;stroke-width:1.0;" width="10" x="372.5" y="141.2"/><rect fill="#FFFFFF" height="165.7" style="stroke:#181818;stroke-width:1.0;" width="10" x="372.5" y="357.5"/><rect fill="#FFFFFF" height="28" style="stroke:#181818;stroke-width:1.0;" width="10" x="377.5" y="396.4"/><rect fill="#FFFFFF" height="30.9" style="stroke:#181818;stroke-width:1.0;" width="10" x="372.5" y="615.9"/><rect fill="#FFFFFF" height="30.9" style="stroke:#181818;stroke-width:1.0;" width="10" x="570.5" y="172.1"/><rect fill="#FFFFFF" height="30" style="stroke:#181818;stroke-width:1.0;" width="10" x="570.5" y="462.3"/><polygon fill="#181818" points="194.5,106.3,204.5,110.3,194.5,114.3,198.5,110.3" style="stroke:#181818;stroke-width:1.0;"/><line style="stroke:#181818;stroke-width:1.0;" x1="43.5" x2="200.5" y1="110.3" y2="110.3"/><text fill="#000000" font-family="Sarabun" font-size="13" font-weight="bold" lengthAdjust="spacing" textLength="7" x="50.5" y="105.284">1</text><text fill="#000000" font-family="Sarabun" font-size="13" lengthAdjust="spacing" textLength="71" x="61.5" y="105.284">กดสร้างคอร์ส</text><polygon fill="#181818" points="360.5,137.2,370.5,141.2,360.5,145.2,364.5,141.2" style="stroke:#181818;stroke-width:1.0;"/><line style="stroke:#181818;stroke-width:1.0;" x1="216.5" x2="366.5" y1="141.2" y2="141.2"/><text fill="#000000" font-family="Sarabun" font-size="13" font-weight="bold" lengthAdjust="spacing" textLength="7" x="223.5" y="136.184">2</text><text fill="#000000" font-family="Sarabun" font-size="13" lengthAdjust="spacing" textLength="126" x="234.5" y="136.184">ขอเข้าถึงหน้าสร้างคอร์ส</text><polygon fill="#181818" points="558.5,168.1,568.5,172.1,558.5,176.1,562.5,172.1" style="stroke:#181818;stroke-width:1.0;"/><line style="stroke:#181818;stroke-width:1.0;" x1="382.5" x2="564.5" y1="172.1" y2="172.1"/><text fill="#000000" font-family="Sarabun" font-size="13" font-weight="bold" lengthAdjust="spacing" textLength="7" x="389.5" y="167.084">3</text><text fill="#000000" font-family="Sarabun" font-size="13" lengthAdjust="spacing" textLength="158" x="400.5" y="167.084">ขอข้อมูลคอร์สและตารางเวลา</text><polygon fill="#181818" points="393.5,199,383.5,203,393.5,207,389.5,203" style="stroke:#181818;stroke-width:1.0;"/><line style="stroke:#181818;stroke-width:1.0;stroke-dasharray:2.0,2.0;" x1="387.5" x2="574.5" y1="203" y2="203"/><text fill="#000000" font-family="Sarabun" font-size="13" font-weight="bold" lengthAdjust="spacing" textLength="7" x="399.5" y="197.984">4</text><text fill="#000000" font-family="Sarabun" font-size="13" lengthAdjust="spacing" textLength="142" x="410.5" y="197.984">ข้อมูลคอร์สและตารางเวลา</text><polygon fill="#181818" points="227.5,229.9,217.5,233.9,227.5,237.9,223.5,233.9" style="stroke:#181818;stroke-width:1.0;"/><line style="stroke:#181818;stroke-width:1.0;stroke-dasharray:2.0,2.0;" x1="221.5" x2="376.5" y1="233.9" y2="233.9"/><text fill="#000000" font-family="Sarabun" font-size="13" font-weight="bold" lengthAdjust="spacing" textLength="7" x="233.5" y="228.884">5</text><text fill="#000000" font-family="Sarabun" font-size="13" lengthAdjust="spacing" textLength="78" x="244.5" y="228.884">หน้าสร้างคอร์ส</text><polygon fill="#181818" points="54.5,260.8,44.5,264.8,54.5,268.8,50.5,264.8" style="stroke:#181818;stroke-width:1.0;"/><line style="stroke:#181818;stroke-width:1.0;stroke-dasharray:2.0,2.0;" x1="48.5" x2="205.5" y1="264.8" y2="264.8"/><text fill="#000000" font-family="Sarabun" font-size="13" font-weight="bold" lengthAdjust="spacing" textLength="7" x="60.5" y="259.784">6</text><text fill="#000000" font-family="Sarabun" font-size="13" lengthAdjust="spacing" textLength="108" x="71.5" y="259.784">แสดงหน้าสร้างคอร์ส</text><polygon fill="#181818" points="194.5,291.7,204.5,295.7,194.5,299.7,198.5,295.7" style="stroke:#181818;stroke-width:1.0;"/><line style="stroke:#181818;stroke-width:1.0;" x1="43.5" x2="200.5" y1="295.7" y2="295.7"/><text fill="#000000" font-family="Sarabun" font-size="13" font-weight="bold" lengthAdjust="spacing" textLength="7" x="50.5" y="290.684">7</text><text fill="#000000" font-family="Sarabun" font-size="13" lengthAdjust="spacing" textLength="112" x="61.5" y="290.684">กรอกข้อมูลของคอร์ส</text><polygon fill="#181818" points="194.5,322.6,204.5,326.6,194.5,330.6,198.5,326.6" style="stroke:#181818;stroke-width:1.0;"/><line style="stroke:#181818;stroke-width:1.0;" x1="43.5" x2="200.5" y1="326.6" y2="326.6"/><text fill="#000000" font-family="Sarabun" font-size="13" font-weight="bold" lengthAdjust="spacing" textLength="7" x="50.5" y="321.584">8</text><text fill="#000000" font-family="Sarabun" font-size="13" lengthAdjust="spacing" textLength="84" x="61.5" y="321.584">กดปุ่ม "Create"</text><polygon fill="#181818" points="360.5,353.5,370.5,357.5,360.5,361.5,364.5,357.5" style="stroke:#181818;stroke-width:1.0;"/><line style="stroke:#181818;stroke-width:1.0;" x1="216.5" x2="366.5" y1="357.5" y2="357.5"/><text fill="#000000" font-family="Sarabun" font-size="13" font-weight="bold" lengthAdjust="spacing" textLength="7" x="223.5" y="352.484">9</text><text fill="#000000" font-family="Sarabun" font-size="13" lengthAdjust="spacing" textLength="98" x="234.5" y="352.484">ส่งข้อมูลของคอร์ส</text><line style="stroke:#181818;stroke-width:1.0;" x1="387.5" x2="429.5" y1="388.4" y2="388.4"/><line style="stroke:#181818;stroke-width:1.0;" x1="429.5" x2="429.5" y1="388.4" y2="401.4"/><line style="stroke:#181818;stroke-width:1.0;" x1="388.5" x2="429.5" y1="401.4" y2="401.4"/><polygon fill="#181818" points="398.5,397.4,388.5,401.4,398.5,405.4,394.5,401.4" style="stroke:#181818;stroke-width:1.0;"/><text fill="#000000" font-family="Sarabun" font-size="13" font-weight="bold" lengthAdjust="spacing" textLength="14" x="394.5" y="383.384">10</text><text fill="#000000" font-family="Sarabun" font-size="13" lengthAdjust="spacing" textLength="121" x="412.5" y="383.384">ตรวจสอบข้อมูลที่กรอก</text><line style="stroke:#181818;stroke-width:1.0;" x1="568.5" x2="558.5" y1="462.3" y2="458.3"/><line style="stroke:#181818;stroke-width:1.0;" x1="568.5" x2="558.5" y1="462.3" y2="466.3"/><line style="stroke:#181818;stroke-width:1.0;" x1="382.5" x2="569.5" y1="462.3" y2="462.3"/><text fill="#000000" font-family="Sarabun" font-size="13" font-weight="bold" lengthAdjust="spacing" textLength="14" x="389.5" y="457.284">11</text><text fill="#000000" font-family="Sarabun" font-size="13" lengthAdjust="spacing" textLength="111" x="407.5" y="457.284">เขียนข้อมูลของคอร์ส</text><polygon fill="#181818" points="227.5,519.2,217.5,523.2,227.5,527.2,223.5,523.2" style="stroke:#181818;stroke-width:1.0;"/><line style="stroke:#181818;stroke-width:1.0;stroke-dasharray:2.0,2.0;" x1="221.5" x2="376.5" y1="523.2" y2="523.2"/><text fill="#000000" font-family="Sarabun" font-size="13" font-weight="bold" lengthAdjust="spacing" textLength="14" x="233.5" y="518.184">12</text><text fill="#000000" font-family="Sarabun" font-size="13" lengthAdjust="spacing" textLength="91" x="251.5" y="518.184">ผลการสร้างคอร์ส</text><polygon fill="#181818" points="54.5,550.1,44.5,554.1,54.5,558.1,50.5,554.1" style="stroke:#181818;stroke-width:1.0;"/><line style="stroke:#181818;stroke-width:1.0;stroke-dasharray:2.0,2.0;" x1="48.5" x2="205.5" y1="554.1" y2="554.1"/><text fill="#000000" font-family="Sarabun" font-size="13" font-weight="bold" lengthAdjust="spacing" textLength="14" x="60.5" y="549.084">13</text><text fill="#000000" font-family="Sarabun" font-size="13" lengthAdjust="spacing" textLength="121" x="78.5" y="549.084">แสดงผลการสร้างคอร์ส</text><polygon fill="#181818" points="194.5,581,204.5,585,194.5,589,198.5,585" style="stroke:#181818;stroke-width:1.0;"/><line style="stroke:#181818;stroke-width:1.0;" x1="43.5" x2="200.5" y1="585" y2="585"/><text fill="#000000" font-family="Sarabun" font-size="13" font-weight="bold" lengthAdjust="spacing" textLength="14" x="50.5" y="579.984">14</text><text fill="#000000" font-family="Sarabun" font-size="13" lengthAdjust="spacing" textLength="62" x="68.5" y="579.984">กดปุ่ม "OK"</text><polygon fill="#181818" points="360.5,611.9,370.5,615.9,360.5,619.9,364.5,615.9" style="stroke:#181818;stroke-width:1.0;"/><line style="stroke:#181818;stroke-width:1.0;" x1="216.5" x2="366.5" y1="615.9" y2="615.9"/><text fill="#000000" font-family="Sarabun" font-size="13" font-weight="bold" lengthAdjust="spacing" textLength="14" x="223.5" y="610.884">15</text><text fill="#000000" font-family="Sarabun" font-size="13" lengthAdjust="spacing" textLength="93" x="241.5" y="610.884">ขอเข้าถึงหน้าหลัก</text><polygon fill="#181818" points="227.5,642.8,217.5,646.8,227.5,650.8,223.5,646.8" style="stroke:#181818;stroke-width:1.0;"/><line style="stroke:#181818;stroke-width:1.0;stroke-dasharray:2.0,2.0;" x1="221.5" x2="376.5" y1="646.8" y2="646.8"/><text fill="#000000" font-family="Sarabun" font-size="13" font-weight="bold" lengthAdjust="spacing" textLength="14" x="233.5" y="641.784">16</text><text fill="#000000" font-family="Sarabun" font-size="13" lengthAdjust="spacing" textLength="45" x="251.5" y="641.784">หน้าหลัก</text><polygon fill="#181818" points="49.5,673.7,39.5,677.7,49.5,681.7,45.5,677.7" style="stroke:#181818;stroke-width:1.0;"/><line style="stroke:#181818;stroke-width:1.0;stroke-dasharray:2.0,2.0;" x1="43.5" x2="210.5" y1="677.7" y2="677.7"/><text fill="#000000" font-family="Sarabun" font-size="13" font-weight="bold" lengthAdjust="spacing" textLength="14" x="55.5" y="672.684">17</text><text fill="#000000" font-family="Sarabun" font-size="13" lengthAdjust="spacing" textLength="75" x="73.5" y="672.684">แสดงหน้าหลัก</text><!--MD5=[e08380f34ad1d9219df610034438a5bd]
@startuml
skinparam monochrome true
skinparam defaultFontName Sarabun
autonumber

title Use Case 2: จัดการคอร์ส

participant "เจ้าหน้าที่" as Staff
participant "เว็บเบราว์เซอร์" as Browser
participant "เว็บเซิร์ฟเวอร์" as Server
participant "ฐานข้อมูล" as Database

Staff -> Browser: กดสร้างคอร์ส
activate Staff
activate Browser
Browser -> Server: ขอเข้าถึงหน้าสร้างคอร์ส
activate Server
Server -> Database: ขอข้อมูลคอร์สและตารางเวลา
activate Database
Database - -> Server: ข้อมูลคอร์สและตารางเวลา
deactivate Database
Server - -> Browser: หน้าสร้างคอร์ส
deactivate Server
Browser - -> Staff: แสดงหน้าสร้างคอร์ส
Staff -> Browser: กรอกข้อมูลของคอร์ส
Staff -> Browser: กดปุ่ม "Create"
Browser -> Server: ส่งข้อมูลของคอร์ส
activate Server
Server -> Server: ตรวจสอบข้อมูลที่กรอก
activate Server
deactivate Server
Server ->> Database: เขียนข้อมูลของคอร์ส
activate Database
deactivate Database
Server - -> Browser: ผลการสร้างคอร์ส
deactivate Server
Browser - -> Staff: แสดงผลการสร้างคอร์ส
Staff -> Browser: กดปุ่ม "OK"
Browser -> Server: ขอเข้าถึงหน้าหลัก
activate Server
Server - -> Browser: หน้าหลัก
deactivate Server
Browser - -> Staff: แสดงหน้าหลัก
deactivate Browser
deactivate Staff
@enduml

PlantUML version 1.2022.7(Tue Aug 23 00:01:30 ICT 2022)
(GPL source distribution)
Java Runtime: OpenJDK Runtime Environment
JVM: OpenJDK 64-Bit Server VM
Default Encoding: UTF-8
Language: en
Country: TH
--></g></svg>