<?xml version="1.0" encoding="UTF-8" standalone="no"?><svg xmlns="http://www.w3.org/2000/svg" xmlns:xlink="http://www.w3.org/1999/xlink" contentStyleType="text/css" height="771px" preserveAspectRatio="none" style="width:632px;height:771px;background:#FFFFFF;" version="1.1" viewBox="0 0 632 771" width="632px" zoomAndPan="magnify"><defs/><g><rect fill="none" height="28.2" id="_title" style="stroke:none;stroke-width:1.0;" width="155" x="232.25" y="10"/><text fill="#000000" font-family="Sarabun" font-size="14" font-weight="bold" lengthAdjust="spacing" textLength="145" x="237.25" y="29.952">Use Case 2: จัดการคอร์ส</text><rect fill="#FFFFFF" height="720.9" style="stroke:#000000;stroke-width:1.5;" width="622.5" x="4" y="44.2"/><path d="M121,44.2 L121,55.4 L111,65.4 L4,65.4 " fill="none" style="stroke:#000000;stroke-width:1.5;"/><text fill="#000000" font-family="Sarabun" font-size="14" font-weight="bold" lengthAdjust="spacing" textLength="14" x="7" y="60.152">sd</text><text fill="#000000" font-family="Sarabun" font-size="14" lengthAdjust="spacing" textLength="90" x="24" y="60.152">ManageCourse</text><rect fill="#FFFFFF" height="567.4" style="stroke:#181818;stroke-width:1.0;" width="10" x="41.5" y="138.5"/><rect fill="#FFFFFF" height="567.4" style="stroke:#181818;stroke-width:1.0;" width="10" x="214.5" y="138.5"/><rect fill="#FFFFFF" height="92.7" style="stroke:#181818;stroke-width:1.0;" width="10" x="380.5" y="169.4"/><rect fill="#FFFFFF" height="165.7" style="stroke:#181818;stroke-width:1.0;" width="10" x="380.5" y="385.7"/><rect fill="#FFFFFF" height="28" style="stroke:#181818;stroke-width:1.0;" width="10" x="385.5" y="424.6"/><rect fill="#FFFFFF" height="30.9" style="stroke:#181818;stroke-width:1.0;" width="10" x="380.5" y="644.1"/><rect fill="#FFFFFF" height="30.9" style="stroke:#181818;stroke-width:1.0;" width="10" x="578.5" y="200.3"/><rect fill="#FFFFFF" height="30" style="stroke:#181818;stroke-width:1.0;" width="10" x="578.5" y="490.5"/><line style="stroke:#181818;stroke-width:0.5;stroke-dasharray:5.0,5.0;" x1="46" x2="46" y1="105.6" y2="723.9"/><line style="stroke:#181818;stroke-width:0.5;stroke-dasharray:5.0,5.0;" x1="219" x2="219" y1="105.6" y2="723.9"/><line style="stroke:#181818;stroke-width:0.5;stroke-dasharray:5.0,5.0;" x1="385" x2="385" y1="105.6" y2="723.9"/><line style="stroke:#181818;stroke-width:0.5;stroke-dasharray:5.0,5.0;" x1="583.5" x2="583.5" y1="105.6" y2="723.9"/><rect fill="#E3E3E3" height="32.2" rx="2.5" ry="2.5" style="stroke:#181818;stroke-width:0.5;" width="73" x="10" y="72.4"/><text fill="#000000" font-family="Sarabun" font-size="14" lengthAdjust="spacing" textLength="59" x="17" y="94.352">staff:User</text><rect fill="#E3E3E3" height="32.2" rx="2.5" ry="2.5" style="stroke:#181818;stroke-width:0.5;" width="73" x="10" y="722.9"/><text fill="#000000" font-family="Sarabun" font-size="14" lengthAdjust="spacing" textLength="59" x="17" y="744.852">staff:User</text><rect fill="#E3E3E3" height="32.2" rx="2.5" ry="2.5" style="stroke:#181818;stroke-width:0.5;" width="93" x="173" y="72.4"/><text fill="#000000" font-family="Sarabun" font-size="14" lengthAdjust="spacing" textLength="79" x="180" y="94.352">:WebBrowser</text><rect fill="#E3E3E3" height="32.2" rx="2.5" ry="2.5" style="stroke:#181818;stroke-width:0.5;" width="93" x="173" y="722.9"/><text fill="#000000" font-family="Sarabun" font-size="14" lengthAdjust="spacing" textLength="79" x="180" y="744.852">:WebBrowser</text><rect fill="#E3E3E3" height="32.2" rx="2.5" ry="2.5" style="stroke:#181818;stroke-width:0.5;" width="83" x="344" y="72.4"/><text fill="#000000" font-family="Sarabun" font-size="14" lengthAdjust="spacing" textLength="69" x="351" y="94.352">:WebServer</text><rect fill="#E3E3E3" height="32.2" rx="2.5" ry="2.5" style="stroke:#181818;stroke-width:0.5;" width="83" x="344" y="722.9"/><text fill="#000000" font-family="Sarabun" font-size="14" lengthAdjust="spacing" textLength="69" x="351" y="744.852">:WebServer</text><rect fill="#E3E3E3" height="32.2" rx="2.5" ry="2.5" style="stroke:#181818;stroke-width:0.5;" width="74" x="546.5" y="72.4"/><text fill="#000000" font-family="Sarabun" font-size="14" lengthAdjust="spacing" textLength="60" x="553.5" y="94.352">:Database</text><rect fill="#E3E3E3" height="32.2" rx="2.5" ry="2.5" style="stroke:#181818;stroke-width:0.5;" width="74" x="546.5" y="722.9"/><text fill="#000000" font-family="Sarabun" font-size="14" lengthAdjust="spacing" textLength="60" x="553.5" y="744.852">:Database</text><rect fill="#FFFFFF" height="567.4" style="stroke:#181818;stroke-width:1.0;" width="10" x="41.5" y="138.5"/><rect fill="#FFFFFF" height="567.4" style="stroke:#181818;stroke-width:1.0;" width="10" x="214.5" y="138.5"/><rect fill="#FFFFFF" height="92.7" style="stroke:#181818;stroke-width:1.0;" width="10" x="380.5" y="169.4"/><rect fill="#FFFFFF" height="165.7" style="stroke:#181818;stroke-width:1.0;" width="10" x="380.5" y="385.7"/><rect fill="#FFFFFF" height="28" style="stroke:#181818;stroke-width:1.0;" width="10" x="385.5" y="424.6"/><rect fill="#FFFFFF" height="30.9" style="stroke:#181818;stroke-width:1.0;" width="10" x="380.5" y="644.1"/><rect fill="#FFFFFF" height="30.9" style="stroke:#181818;stroke-width:1.0;" width="10" x="578.5" y="200.3"/><rect fill="#FFFFFF" height="30" style="stroke:#181818;stroke-width:1.0;" width="10" x="578.5" y="490.5"/><polygon fill="#181818" points="202.5,134.5,212.5,138.5,202.5,142.5,206.5,138.5" style="stroke:#181818;stroke-width:1.0;"/><line style="stroke:#181818;stroke-width:1.0;" x1="51.5" x2="208.5" y1="138.5" y2="138.5"/><text fill="#000000" font-family="Sarabun" font-size="13" font-weight="bold" lengthAdjust="spacing" textLength="7" x="58.5" y="133.484">1</text><text fill="#000000" font-family="Sarabun" font-size="13" lengthAdjust="spacing" textLength="71" x="69.5" y="133.484">กดสร้างคอร์ส</text><polygon fill="#181818" points="368.5,165.4,378.5,169.4,368.5,173.4,372.5,169.4" style="stroke:#181818;stroke-width:1.0;"/><line style="stroke:#181818;stroke-width:1.0;" x1="224.5" x2="374.5" y1="169.4" y2="169.4"/><text fill="#000000" font-family="Sarabun" font-size="13" font-weight="bold" lengthAdjust="spacing" textLength="7" x="231.5" y="164.384">2</text><text fill="#000000" font-family="Sarabun" font-size="13" lengthAdjust="spacing" textLength="126" x="242.5" y="164.384">ขอเข้าถึงหน้าสร้างคอร์ส</text><polygon fill="#181818" points="566.5,196.3,576.5,200.3,566.5,204.3,570.5,200.3" style="stroke:#181818;stroke-width:1.0;"/><line style="stroke:#181818;stroke-width:1.0;" x1="390.5" x2="572.5" y1="200.3" y2="200.3"/><text fill="#000000" font-family="Sarabun" font-size="13" font-weight="bold" lengthAdjust="spacing" textLength="7" x="397.5" y="195.284">3</text><text fill="#000000" font-family="Sarabun" font-size="13" lengthAdjust="spacing" textLength="158" x="408.5" y="195.284">ขอข้อมูลคอร์สและตารางเวลา</text><polygon fill="#181818" points="401.5,227.2,391.5,231.2,401.5,235.2,397.5,231.2" style="stroke:#181818;stroke-width:1.0;"/><line style="stroke:#181818;stroke-width:1.0;stroke-dasharray:2.0,2.0;" x1="395.5" x2="582.5" y1="231.2" y2="231.2"/><text fill="#000000" font-family="Sarabun" font-size="13" font-weight="bold" lengthAdjust="spacing" textLength="7" x="407.5" y="226.184">4</text><text fill="#000000" font-family="Sarabun" font-size="13" lengthAdjust="spacing" textLength="142" x="418.5" y="226.184">ข้อมูลคอร์สและตารางเวลา</text><polygon fill="#181818" points="235.5,258.1,225.5,262.1,235.5,266.1,231.5,262.1" style="stroke:#181818;stroke-width:1.0;"/><line style="stroke:#181818;stroke-width:1.0;stroke-dasharray:2.0,2.0;" x1="229.5" x2="384.5" y1="262.1" y2="262.1"/><text fill="#000000" font-family="Sarabun" font-size="13" font-weight="bold" lengthAdjust="spacing" textLength="7" x="241.5" y="257.084">5</text><text fill="#000000" font-family="Sarabun" font-size="13" lengthAdjust="spacing" textLength="78" x="252.5" y="257.084">หน้าสร้างคอร์ส</text><polygon fill="#181818" points="62.5,289,52.5,293,62.5,297,58.5,293" style="stroke:#181818;stroke-width:1.0;"/><line style="stroke:#181818;stroke-width:1.0;stroke-dasharray:2.0,2.0;" x1="56.5" x2="213.5" y1="293" y2="293"/><text fill="#000000" font-family="Sarabun" font-size="13" font-weight="bold" lengthAdjust="spacing" textLength="7" x="68.5" y="287.984">6</text><text fill="#000000" font-family="Sarabun" font-size="13" lengthAdjust="spacing" textLength="108" x="79.5" y="287.984">แสดงหน้าสร้างคอร์ส</text><polygon fill="#181818" points="202.5,319.9,212.5,323.9,202.5,327.9,206.5,323.9" style="stroke:#181818;stroke-width:1.0;"/><line style="stroke:#181818;stroke-width:1.0;" x1="51.5" x2="208.5" y1="323.9" y2="323.9"/><text fill="#000000" font-family="Sarabun" font-size="13" font-weight="bold" lengthAdjust="spacing" textLength="7" x="58.5" y="318.884">7</text><text fill="#000000" font-family="Sarabun" font-size="13" lengthAdjust="spacing" textLength="112" x="69.5" y="318.884">กรอกข้อมูลของคอร์ส</text><polygon fill="#181818" points="202.5,350.8,212.5,354.8,202.5,358.8,206.5,354.8" style="stroke:#181818;stroke-width:1.0;"/><line style="stroke:#181818;stroke-width:1.0;" x1="51.5" x2="208.5" y1="354.8" y2="354.8"/><text fill="#000000" font-family="Sarabun" font-size="13" font-weight="bold" lengthAdjust="spacing" textLength="7" x="58.5" y="349.784">8</text><text fill="#000000" font-family="Sarabun" font-size="13" lengthAdjust="spacing" textLength="84" x="69.5" y="349.784">กดปุ่ม "Create"</text><polygon fill="#181818" points="368.5,381.7,378.5,385.7,368.5,389.7,372.5,385.7" style="stroke:#181818;stroke-width:1.0;"/><line style="stroke:#181818;stroke-width:1.0;" x1="224.5" x2="374.5" y1="385.7" y2="385.7"/><text fill="#000000" font-family="Sarabun" font-size="13" font-weight="bold" lengthAdjust="spacing" textLength="7" x="231.5" y="380.684">9</text><text fill="#000000" font-family="Sarabun" font-size="13" lengthAdjust="spacing" textLength="98" x="242.5" y="380.684">ส่งข้อมูลของคอร์ส</text><line style="stroke:#181818;stroke-width:1.0;" x1="395.5" x2="437.5" y1="416.6" y2="416.6"/><line style="stroke:#181818;stroke-width:1.0;" x1="437.5" x2="437.5" y1="416.6" y2="429.6"/><line style="stroke:#181818;stroke-width:1.0;" x1="396.5" x2="437.5" y1="429.6" y2="429.6"/><polygon fill="#181818" points="406.5,425.6,396.5,429.6,406.5,433.6,402.5,429.6" style="stroke:#181818;stroke-width:1.0;"/><text fill="#000000" font-family="Sarabun" font-size="13" font-weight="bold" lengthAdjust="spacing" textLength="14" x="402.5" y="411.584">10</text><text fill="#000000" font-family="Sarabun" font-size="13" lengthAdjust="spacing" textLength="121" x="420.5" y="411.584">ตรวจสอบข้อมูลที่กรอก</text><line style="stroke:#181818;stroke-width:1.0;" x1="576.5" x2="566.5" y1="490.5" y2="486.5"/><line style="stroke:#181818;stroke-width:1.0;" x1="576.5" x2="566.5" y1="490.5" y2="494.5"/><line style="stroke:#181818;stroke-width:1.0;" x1="390.5" x2="577.5" y1="490.5" y2="490.5"/><text fill="#000000" font-family="Sarabun" font-size="13" font-weight="bold" lengthAdjust="spacing" textLength="14" x="397.5" y="485.484">11</text><text fill="#000000" font-family="Sarabun" font-size="13" lengthAdjust="spacing" textLength="111" x="415.5" y="485.484">เขียนข้อมูลของคอร์ส</text><polygon fill="#181818" points="235.5,547.4,225.5,551.4,235.5,555.4,231.5,551.4" style="stroke:#181818;stroke-width:1.0;"/><line style="stroke:#181818;stroke-width:1.0;stroke-dasharray:2.0,2.0;" x1="229.5" x2="384.5" y1="551.4" y2="551.4"/><text fill="#000000" font-family="Sarabun" font-size="13" font-weight="bold" lengthAdjust="spacing" textLength="14" x="241.5" y="546.384">12</text><text fill="#000000" font-family="Sarabun" font-size="13" lengthAdjust="spacing" textLength="91" x="259.5" y="546.384">ผลการสร้างคอร์ส</text><polygon fill="#181818" points="62.5,578.3,52.5,582.3,62.5,586.3,58.5,582.3" style="stroke:#181818;stroke-width:1.0;"/><line style="stroke:#181818;stroke-width:1.0;stroke-dasharray:2.0,2.0;" x1="56.5" x2="213.5" y1="582.3" y2="582.3"/><text fill="#000000" font-family="Sarabun" font-size="13" font-weight="bold" lengthAdjust="spacing" textLength="14" x="68.5" y="577.284">13</text><text fill="#000000" font-family="Sarabun" font-size="13" lengthAdjust="spacing" textLength="121" x="86.5" y="577.284">แสดงผลการสร้างคอร์ส</text><polygon fill="#181818" points="202.5,609.2,212.5,613.2,202.5,617.2,206.5,613.2" style="stroke:#181818;stroke-width:1.0;"/><line style="stroke:#181818;stroke-width:1.0;" x1="51.5" x2="208.5" y1="613.2" y2="613.2"/><text fill="#000000" font-family="Sarabun" font-size="13" font-weight="bold" lengthAdjust="spacing" textLength="14" x="58.5" y="608.184">14</text><text fill="#000000" font-family="Sarabun" font-size="13" lengthAdjust="spacing" textLength="62" x="76.5" y="608.184">กดปุ่ม "OK"</text><polygon fill="#181818" points="368.5,640.1,378.5,644.1,368.5,648.1,372.5,644.1" style="stroke:#181818;stroke-width:1.0;"/><line style="stroke:#181818;stroke-width:1.0;" x1="224.5" x2="374.5" y1="644.1" y2="644.1"/><text fill="#000000" font-family="Sarabun" font-size="13" font-weight="bold" lengthAdjust="spacing" textLength="14" x="231.5" y="639.084">15</text><text fill="#000000" font-family="Sarabun" font-size="13" lengthAdjust="spacing" textLength="93" x="249.5" y="639.084">ขอเข้าถึงหน้าหลัก</text><polygon fill="#181818" points="235.5,671,225.5,675,235.5,679,231.5,675" style="stroke:#181818;stroke-width:1.0;"/><line style="stroke:#181818;stroke-width:1.0;stroke-dasharray:2.0,2.0;" x1="229.5" x2="384.5" y1="675" y2="675"/><text fill="#000000" font-family="Sarabun" font-size="13" font-weight="bold" lengthAdjust="spacing" textLength="14" x="241.5" y="669.984">16</text><text fill="#000000" font-family="Sarabun" font-size="13" lengthAdjust="spacing" textLength="45" x="259.5" y="669.984">หน้าหลัก</text><polygon fill="#181818" points="57.5,701.9,47.5,705.9,57.5,709.9,53.5,705.9" style="stroke:#181818;stroke-width:1.0;"/><line style="stroke:#181818;stroke-width:1.0;stroke-dasharray:2.0,2.0;" x1="51.5" x2="218.5" y1="705.9" y2="705.9"/><text fill="#000000" font-family="Sarabun" font-size="13" font-weight="bold" lengthAdjust="spacing" textLength="14" x="63.5" y="700.884">17</text><text fill="#000000" font-family="Sarabun" font-size="13" lengthAdjust="spacing" textLength="75" x="81.5" y="700.884">แสดงหน้าหลัก</text><!--MD5=[d5b7f46343c2bf81539dc30c7a8313fe]
@startuml
skinparam monochrome true
skinparam defaultFontName Sarabun
autonumber

title Use Case 2: จัดการคอร์ส
mainframe **sd** ManageCourse

participant "staff:User" as Staff
participant ":WebBrowser" as Browser
participant ":WebServer" as Server
participant ":Database" as Database

Staff -> Browser: กดสร้างคอร์ส
activate Staff
activate Browser
Browser -> Server: ขอเข้าถึงหน้าสร้างคอร์ส
activate Server
Server -> Database: ขอข้อมูลคอร์สและตารางเวลา
activate Database
Database - -> Server: ข้อมูลคอร์สและตารางเวลา
deactivate Database
Server - -> Browser: หน้าสร้างคอร์ส
deactivate Server
Browser - -> Staff: แสดงหน้าสร้างคอร์ส
Staff -> Browser: กรอกข้อมูลของคอร์ส
Staff -> Browser: กดปุ่ม "Create"
Browser -> Server: ส่งข้อมูลของคอร์ส
activate Server
Server -> Server: ตรวจสอบข้อมูลที่กรอก
activate Server
deactivate Server
Server ->> Database: เขียนข้อมูลของคอร์ส
activate Database
deactivate Database
Server - -> Browser: ผลการสร้างคอร์ส
deactivate Server
Browser - -> Staff: แสดงผลการสร้างคอร์ส
Staff -> Browser: กดปุ่ม "OK"
Browser -> Server: ขอเข้าถึงหน้าหลัก
activate Server
Server - -> Browser: หน้าหลัก
deactivate Server
Browser - -> Staff: แสดงหน้าหลัก
deactivate Browser
deactivate Staff
@enduml

PlantUML version 1.2022.7(Tue Aug 23 00:01:30 ICT 2022)
(GPL source distribution)
Java Runtime: OpenJDK Runtime Environment
JVM: OpenJDK 64-Bit Server VM
Default Encoding: UTF-8
Language: en
Country: TH
--></g></svg>