<?xml version="1.0" encoding="UTF-8" standalone="no"?><svg xmlns="http://www.w3.org/2000/svg" xmlns:xlink="http://www.w3.org/1999/xlink" contentStyleType="text/css" height="1192px" preserveAspectRatio="none" style="width:881px;height:1192px;background:#FFFFFF;" version="1.1" viewBox="0 0 881 1192" width="881px" zoomAndPan="magnify"><defs/><g><rect fill="none" height="28.2" id="_title" style="stroke:none;stroke-width:1.0;" width="152" x="360.75" y="10"/><text fill="#000000" font-family="Sarabun" font-size="14" font-weight="bold" lengthAdjust="spacing" textLength="142" x="365.75" y="29.952">Use Case 1: ยืนยันตัวตน</text><rect fill="#FFFFFF" height="1142.7" style="stroke:#000000;stroke-width:1.5;" width="866.5" x="9" y="44.2"/><path d="M141,44.2 L141,55.4 L131,65.4 L9,65.4 " fill="none" style="stroke:#000000;stroke-width:1.5;"/><text fill="#000000" font-family="Sarabun" font-size="14" font-weight="bold" lengthAdjust="spacing" textLength="14" x="12" y="60.152">sd</text><text fill="#000000" font-family="Sarabun" font-size="14" lengthAdjust="spacing" textLength="105" x="29" y="60.152">AuthenticateUser</text><rect fill="#FFFFFF" height="989.2" style="stroke:#181818;stroke-width:1.0;" width="10" x="55.5" y="138.5"/><rect fill="#FFFFFF" height="989.2" style="stroke:#181818;stroke-width:1.0;" width="10" x="317.5" y="138.5"/><rect fill="#FFFFFF" height="30.9" style="stroke:#181818;stroke-width:1.0;" width="10" x="595.5" y="169.4"/><rect fill="#FFFFFF" height="253.4" style="stroke:#181818;stroke-width:1.0;" width="10" x="595.5" y="349.8"/><rect fill="#FFFFFF" height="28" style="stroke:#181818;stroke-width:1.0;" width="10" x="600.5" y="450.5"/><rect fill="#FFFFFF" height="192.5" style="stroke:#181818;stroke-width:1.0;" width="10" x="595.5" y="828.5"/><rect fill="#FFFFFF" height="28" style="stroke:#181818;stroke-width:1.0;" width="10" x="600.5" y="929.2"/><rect fill="#FFFFFF" height="30.9" style="stroke:#181818;stroke-width:1.0;" width="10" x="807.5" y="380.7"/><rect fill="#FFFFFF" height="30" style="stroke:#181818;stroke-width:1.0;" width="10" x="807.5" y="542.3"/><rect fill="#FFFFFF" height="30.9" style="stroke:#181818;stroke-width:1.0;" width="10" x="807.5" y="859.4"/><rect fill="none" height="433.8" style="stroke:#000000;stroke-width:1.5;" width="854.5" x="15" y="246.2"/><rect fill="none" height="110.7" style="stroke:#000000;stroke-width:1.5;" width="593.5" x="266" y="500.5"/><rect fill="none" height="372.9" style="stroke:#000000;stroke-width:1.5;" width="844.5" x="15" y="724.9"/><rect fill="none" height="49.8" style="stroke:#000000;stroke-width:1.5;" width="386" x="266" y="979.2"/><line style="stroke:#181818;stroke-width:0.5;stroke-dasharray:5.0,5.0;" x1="60" x2="60" y1="105.6" y2="1145.7"/><line style="stroke:#181818;stroke-width:0.5;stroke-dasharray:5.0,5.0;" x1="322" x2="322" y1="105.6" y2="1145.7"/><line style="stroke:#181818;stroke-width:0.5;stroke-dasharray:5.0,5.0;" x1="600" x2="600" y1="105.6" y2="1145.7"/><line style="stroke:#181818;stroke-width:0.5;stroke-dasharray:5.0,5.0;" x1="812.5" x2="812.5" y1="105.6" y2="1145.7"/><rect fill="#E3E3E3" height="32.2" rx="2.5" ry="2.5" style="stroke:#181818;stroke-width:0.5;" width="71" x="25" y="72.4"/><text fill="#000000" font-family="Sarabun" font-size="14" lengthAdjust="spacing" textLength="57" x="32" y="94.352">user:User</text><rect fill="#E3E3E3" height="32.2" rx="2.5" ry="2.5" style="stroke:#181818;stroke-width:0.5;" width="71" x="25" y="1144.7"/><text fill="#000000" font-family="Sarabun" font-size="14" lengthAdjust="spacing" textLength="57" x="32" y="1166.652">user:User</text><rect fill="#E3E3E3" height="32.2" rx="2.5" ry="2.5" style="stroke:#181818;stroke-width:0.5;" width="93" x="276" y="72.4"/><text fill="#000000" font-family="Sarabun" font-size="14" lengthAdjust="spacing" textLength="79" x="283" y="94.352">:WebBrowser</text><rect fill="#E3E3E3" height="32.2" rx="2.5" ry="2.5" style="stroke:#181818;stroke-width:0.5;" width="93" x="276" y="1144.7"/><text fill="#000000" font-family="Sarabun" font-size="14" lengthAdjust="spacing" textLength="79" x="283" y="1166.652">:WebBrowser</text><rect fill="#E3E3E3" height="32.2" rx="2.5" ry="2.5" style="stroke:#181818;stroke-width:0.5;" width="83" x="559" y="72.4"/><text fill="#000000" font-family="Sarabun" font-size="14" lengthAdjust="spacing" textLength="69" x="566" y="94.352">:WebServer</text><rect fill="#E3E3E3" height="32.2" rx="2.5" ry="2.5" style="stroke:#181818;stroke-width:0.5;" width="83" x="559" y="1144.7"/><text fill="#000000" font-family="Sarabun" font-size="14" lengthAdjust="spacing" textLength="69" x="566" y="1166.652">:WebServer</text><rect fill="#E3E3E3" height="32.2" rx="2.5" ry="2.5" style="stroke:#181818;stroke-width:0.5;" width="74" x="775.5" y="72.4"/><text fill="#000000" font-family="Sarabun" font-size="14" lengthAdjust="spacing" textLength="60" x="782.5" y="94.352">:Database</text><rect fill="#E3E3E3" height="32.2" rx="2.5" ry="2.5" style="stroke:#181818;stroke-width:0.5;" width="74" x="775.5" y="1144.7"/><text fill="#000000" font-family="Sarabun" font-size="14" lengthAdjust="spacing" textLength="60" x="782.5" y="1166.652">:Database</text><rect fill="#FFFFFF" height="989.2" style="stroke:#181818;stroke-width:1.0;" width="10" x="55.5" y="138.5"/><rect fill="#FFFFFF" height="989.2" style="stroke:#181818;stroke-width:1.0;" width="10" x="317.5" y="138.5"/><rect fill="#FFFFFF" height="30.9" style="stroke:#181818;stroke-width:1.0;" width="10" x="595.5" y="169.4"/><rect fill="#FFFFFF" height="253.4" style="stroke:#181818;stroke-width:1.0;" width="10" x="595.5" y="349.8"/><rect fill="#FFFFFF" height="28" style="stroke:#181818;stroke-width:1.0;" width="10" x="600.5" y="450.5"/><rect fill="#FFFFFF" height="192.5" style="stroke:#181818;stroke-width:1.0;" width="10" x="595.5" y="828.5"/><rect fill="#FFFFFF" height="28" style="stroke:#181818;stroke-width:1.0;" width="10" x="600.5" y="929.2"/><rect fill="#FFFFFF" height="30.9" style="stroke:#181818;stroke-width:1.0;" width="10" x="807.5" y="380.7"/><rect fill="#FFFFFF" height="30" style="stroke:#181818;stroke-width:1.0;" width="10" x="807.5" y="542.3"/><rect fill="#FFFFFF" height="30.9" style="stroke:#181818;stroke-width:1.0;" width="10" x="807.5" y="859.4"/><polygon fill="#181818" points="305.5,134.5,315.5,138.5,305.5,142.5,309.5,138.5" style="stroke:#181818;stroke-width:1.0;"/><line style="stroke:#181818;stroke-width:1.0;" x1="65.5" x2="311.5" y1="138.5" y2="138.5"/><text fill="#000000" font-family="Sarabun" font-size="13" font-weight="bold" lengthAdjust="spacing" textLength="7" x="72.5" y="133.484">1</text><text fill="#000000" font-family="Sarabun" font-size="13" lengthAdjust="spacing" textLength="120" x="83.5" y="133.484">กดลงทะเบียนบัญชีผู้ใช้</text><polygon fill="#181818" points="583.5,165.4,593.5,169.4,583.5,173.4,587.5,169.4" style="stroke:#181818;stroke-width:1.0;"/><line style="stroke:#181818;stroke-width:1.0;" x1="327.5" x2="589.5" y1="169.4" y2="169.4"/><text fill="#000000" font-family="Sarabun" font-size="13" font-weight="bold" lengthAdjust="spacing" textLength="7" x="334.5" y="164.384">2</text><text fill="#000000" font-family="Sarabun" font-size="13" lengthAdjust="spacing" textLength="175" x="345.5" y="164.384">ขอเข้าถึงหน้าลงทะเบียนบัญชีผู้ใช้</text><polygon fill="#181818" points="338.5,196.3,328.5,200.3,338.5,204.3,334.5,200.3" style="stroke:#181818;stroke-width:1.0;"/><line style="stroke:#181818;stroke-width:1.0;stroke-dasharray:2.0,2.0;" x1="332.5" x2="599.5" y1="200.3" y2="200.3"/><text fill="#000000" font-family="Sarabun" font-size="13" font-weight="bold" lengthAdjust="spacing" textLength="7" x="344.5" y="195.284">3</text><text fill="#000000" font-family="Sarabun" font-size="13" lengthAdjust="spacing" textLength="187" x="355.5" y="195.284">หน้าฟอร์มลงทะเบียนบัญชีผู้ใช้ระบบ</text><polygon fill="#181818" points="76.5,227.2,66.5,231.2,76.5,235.2,72.5,231.2" style="stroke:#181818;stroke-width:1.0;"/><line style="stroke:#181818;stroke-width:1.0;stroke-dasharray:2.0,2.0;" x1="70.5" x2="316.5" y1="231.2" y2="231.2"/><text fill="#000000" font-family="Sarabun" font-size="13" font-weight="bold" lengthAdjust="spacing" textLength="7" x="82.5" y="226.184">4</text><text fill="#000000" font-family="Sarabun" font-size="13" lengthAdjust="spacing" textLength="217" x="93.5" y="226.184">แสดงหน้าฟอร์มลงทะเบียนบัญชีผู้ใช้ระบบ</text><path d="M15,246.2 L87,246.2 L87,255.1 L77,265.1 L15,265.1 L15,246.2 " fill="#EEEEEE" style="stroke:#000000;stroke-width:1.5;"/><rect fill="none" height="433.8" style="stroke:#000000;stroke-width:1.5;" width="854.5" x="15" y="246.2"/><text fill="#000000" font-family="Sarabun" font-size="13" font-weight="bold" lengthAdjust="spacing" textLength="27" x="30" y="261.084">loop</text><text fill="#000000" font-family="Sarabun" font-size="11" font-weight="bold" lengthAdjust="spacing" textLength="114" x="102" y="259.948">[ข้อมูลที่กรอกไม่ถูกต้อง]</text><polygon fill="#181818" points="305.5,284,315.5,288,305.5,292,309.5,288" style="stroke:#181818;stroke-width:1.0;"/><line style="stroke:#181818;stroke-width:1.0;" x1="65.5" x2="311.5" y1="288" y2="288"/><text fill="#000000" font-family="Sarabun" font-size="13" font-weight="bold" lengthAdjust="spacing" textLength="7" x="72.5" y="282.984">5</text><text fill="#000000" font-family="Sarabun" font-size="13" lengthAdjust="spacing" textLength="60" x="83.5" y="282.984">กรอกข้อมูล</text><polygon fill="#181818" points="305.5,314.9,315.5,318.9,305.5,322.9,309.5,318.9" style="stroke:#181818;stroke-width:1.0;"/><line style="stroke:#181818;stroke-width:1.0;" x1="65.5" x2="311.5" y1="318.9" y2="318.9"/><text fill="#000000" font-family="Sarabun" font-size="13" font-weight="bold" lengthAdjust="spacing" textLength="7" x="72.5" y="313.884">6</text><text fill="#000000" font-family="Sarabun" font-size="13" lengthAdjust="spacing" textLength="133" x="83.5" y="313.884">กดปุ่ม "Create Account"</text><polygon fill="#181818" points="583.5,345.8,593.5,349.8,583.5,353.8,587.5,349.8" style="stroke:#181818;stroke-width:1.0;"/><line style="stroke:#181818;stroke-width:1.0;" x1="327.5" x2="589.5" y1="349.8" y2="349.8"/><text fill="#000000" font-family="Sarabun" font-size="13" font-weight="bold" lengthAdjust="spacing" textLength="7" x="334.5" y="344.784">7</text><text fill="#000000" font-family="Sarabun" font-size="13" lengthAdjust="spacing" textLength="142" x="345.5" y="344.784">ส่งข้อมูลส่วนตัวที่ผู้ใช้กรอก</text><polygon fill="#181818" points="795.5,376.7,805.5,380.7,795.5,384.7,799.5,380.7" style="stroke:#181818;stroke-width:1.0;"/><line style="stroke:#181818;stroke-width:1.0;" x1="605.5" x2="801.5" y1="380.7" y2="380.7"/><text fill="#000000" font-family="Sarabun" font-size="13" font-weight="bold" lengthAdjust="spacing" textLength="7" x="612.5" y="375.684">8</text><text fill="#000000" font-family="Sarabun" font-size="13" lengthAdjust="spacing" textLength="69" x="623.5" y="375.684">ขอข้อมูลผู้ใช้</text><polygon fill="#181818" points="616.5,407.6,606.5,411.6,616.5,415.6,612.5,411.6" style="stroke:#181818;stroke-width:1.0;"/><line style="stroke:#181818;stroke-width:1.0;stroke-dasharray:2.0,2.0;" x1="610.5" x2="811.5" y1="411.6" y2="411.6"/><text fill="#000000" font-family="Sarabun" font-size="13" font-weight="bold" lengthAdjust="spacing" textLength="7" x="622.5" y="406.584">9</text><text fill="#000000" font-family="Sarabun" font-size="13" lengthAdjust="spacing" textLength="53" x="633.5" y="406.584">ข้อมูลผู้ใช้</text><line style="stroke:#181818;stroke-width:1.0;" x1="610.5" x2="652.5" y1="442.5" y2="442.5"/><line style="stroke:#181818;stroke-width:1.0;" x1="652.5" x2="652.5" y1="442.5" y2="455.5"/><line style="stroke:#181818;stroke-width:1.0;" x1="611.5" x2="652.5" y1="455.5" y2="455.5"/><polygon fill="#181818" points="621.5,451.5,611.5,455.5,621.5,459.5,617.5,455.5" style="stroke:#181818;stroke-width:1.0;"/><text fill="#000000" font-family="Sarabun" font-size="13" font-weight="bold" lengthAdjust="spacing" textLength="14" x="617.5" y="437.484">10</text><text fill="#000000" font-family="Sarabun" font-size="13" lengthAdjust="spacing" textLength="142" x="635.5" y="437.484">ตรวจสอบข้อมูลที่ผู้ใช้กรอก</text><path d="M266,500.5 L344,500.5 L344,509.4 L334,519.4 L266,519.4 L266,500.5 " fill="#EEEEEE" style="stroke:#000000;stroke-width:1.5;"/><rect fill="none" height="110.7" style="stroke:#000000;stroke-width:1.5;" width="593.5" x="266" y="500.5"/><text fill="#000000" font-family="Sarabun" font-size="13" font-weight="bold" lengthAdjust="spacing" textLength="33" x="281" y="515.384">break</text><text fill="#000000" font-family="Sarabun" font-size="11" font-weight="bold" lengthAdjust="spacing" textLength="102" x="359" y="514.248">[ข้อมูลที่กรอกถูกต้อง]</text><line style="stroke:#181818;stroke-width:1.0;" x1="805.5" x2="795.5" y1="542.3" y2="538.3"/><line style="stroke:#181818;stroke-width:1.0;" x1="805.5" x2="795.5" y1="542.3" y2="546.3"/><line style="stroke:#181818;stroke-width:1.0;" x1="605.5" x2="806.5" y1="542.3" y2="542.3"/><text fill="#000000" font-family="Sarabun" font-size="13" font-weight="bold" lengthAdjust="spacing" textLength="14" x="612.5" y="537.284">11</text><text fill="#000000" font-family="Sarabun" font-size="13" lengthAdjust="spacing" textLength="80" x="630.5" y="537.284">เขียนข้อมูลผู้ใช้</text><polygon fill="#181818" points="338.5,599.2,328.5,603.2,338.5,607.2,334.5,603.2" style="stroke:#181818;stroke-width:1.0;"/><line style="stroke:#181818;stroke-width:1.0;stroke-dasharray:2.0,2.0;" x1="332.5" x2="599.5" y1="603.2" y2="603.2"/><text fill="#000000" font-family="Sarabun" font-size="13" font-weight="bold" lengthAdjust="spacing" textLength="14" x="344.5" y="598.184">12</text><text fill="#000000" font-family="Sarabun" font-size="13" lengthAdjust="spacing" textLength="143" x="362.5" y="598.184">หน้าฟอร์มลงชื่อเข้าใช้ระบบ</text><polygon fill="#181818" points="338.5,637.1,328.5,641.1,338.5,645.1,334.5,641.1" style="stroke:#181818;stroke-width:1.0;"/><line style="stroke:#181818;stroke-width:1.0;stroke-dasharray:2.0,2.0;" x1="332.5" x2="599.5" y1="641.1" y2="641.1"/><text fill="#000000" font-family="Sarabun" font-size="13" font-weight="bold" lengthAdjust="spacing" textLength="14" x="344.5" y="636.084">13</text><text fill="#000000" font-family="Sarabun" font-size="13" lengthAdjust="spacing" textLength="231" x="362.5" y="636.084">สั่งให้แจ้งเตือนผู้ใช้ให้ตรวจสอบข้อมูลที่กรอก</text><polygon fill="#181818" points="76.5,668,66.5,672,76.5,676,72.5,672" style="stroke:#181818;stroke-width:1.0;"/><line style="stroke:#181818;stroke-width:1.0;stroke-dasharray:2.0,2.0;" x1="70.5" x2="316.5" y1="672" y2="672"/><text fill="#000000" font-family="Sarabun" font-size="13" font-weight="bold" lengthAdjust="spacing" textLength="14" x="82.5" y="666.984">14</text><text fill="#000000" font-family="Sarabun" font-size="13" lengthAdjust="spacing" textLength="204" x="100.5" y="666.984">แจ้งเตือนผู้ใช้ให้ตรวจสอบข้อมูลที่กรอก</text><polygon fill="#181818" points="76.5,705.9,66.5,709.9,76.5,713.9,72.5,709.9" style="stroke:#181818;stroke-width:1.0;"/><line style="stroke:#181818;stroke-width:1.0;stroke-dasharray:2.0,2.0;" x1="70.5" x2="316.5" y1="709.9" y2="709.9"/><text fill="#000000" font-family="Sarabun" font-size="13" font-weight="bold" lengthAdjust="spacing" textLength="14" x="82.5" y="704.884">15</text><text fill="#000000" font-family="Sarabun" font-size="13" lengthAdjust="spacing" textLength="151" x="100.5" y="704.884">แสดงฟอร์มลงชื่อเข้าใช้ระบบ</text><path d="M15,724.9 L87,724.9 L87,733.8 L77,743.8 L15,743.8 L15,724.9 " fill="#EEEEEE" style="stroke:#000000;stroke-width:1.5;"/><rect fill="none" height="372.9" style="stroke:#000000;stroke-width:1.5;" width="844.5" x="15" y="724.9"/><text fill="#000000" font-family="Sarabun" font-size="13" font-weight="bold" lengthAdjust="spacing" textLength="27" x="30" y="739.784">loop</text><text fill="#000000" font-family="Sarabun" font-size="11" font-weight="bold" lengthAdjust="spacing" textLength="101" x="102" y="738.648">[ยืนยันตัวตนไม่สำเร็จ]</text><polygon fill="#181818" points="305.5,762.7,315.5,766.7,305.5,770.7,309.5,766.7" style="stroke:#181818;stroke-width:1.0;"/><line style="stroke:#181818;stroke-width:1.0;" x1="65.5" x2="311.5" y1="766.7" y2="766.7"/><text fill="#000000" font-family="Sarabun" font-size="13" font-weight="bold" lengthAdjust="spacing" textLength="14" x="72.5" y="761.684">16</text><text fill="#000000" font-family="Sarabun" font-size="13" lengthAdjust="spacing" textLength="60" x="90.5" y="761.684">กรอกข้อมูล</text><polygon fill="#181818" points="305.5,793.6,315.5,797.6,305.5,801.6,309.5,797.6" style="stroke:#181818;stroke-width:1.0;"/><line style="stroke:#181818;stroke-width:1.0;" x1="65.5" x2="311.5" y1="797.6" y2="797.6"/><text fill="#000000" font-family="Sarabun" font-size="13" font-weight="bold" lengthAdjust="spacing" textLength="14" x="72.5" y="792.584">17</text><text fill="#000000" font-family="Sarabun" font-size="13" lengthAdjust="spacing" textLength="83" x="90.5" y="792.584">กดปุ่ม "Sign In"</text><polygon fill="#181818" points="583.5,824.5,593.5,828.5,583.5,832.5,587.5,828.5" style="stroke:#181818;stroke-width:1.0;"/><line style="stroke:#181818;stroke-width:1.0;" x1="327.5" x2="589.5" y1="828.5" y2="828.5"/><text fill="#000000" font-family="Sarabun" font-size="13" font-weight="bold" lengthAdjust="spacing" textLength="14" x="334.5" y="823.484">18</text><text fill="#000000" font-family="Sarabun" font-size="13" lengthAdjust="spacing" textLength="120" x="352.5" y="823.484">ส่งข้อมูลการเข้าสู่ระบบ</text><polygon fill="#181818" points="795.5,855.4,805.5,859.4,795.5,863.4,799.5,859.4" style="stroke:#181818;stroke-width:1.0;"/><line style="stroke:#181818;stroke-width:1.0;" x1="605.5" x2="801.5" y1="859.4" y2="859.4"/><text fill="#000000" font-family="Sarabun" font-size="13" font-weight="bold" lengthAdjust="spacing" textLength="14" x="612.5" y="854.384">19</text><text fill="#000000" font-family="Sarabun" font-size="13" lengthAdjust="spacing" textLength="165" x="630.5" y="854.384">ขอข้อมูลการเข้าสู่ระบบของผู้ใช้</text><polygon fill="#181818" points="616.5,886.3,606.5,890.3,616.5,894.3,612.5,890.3" style="stroke:#181818;stroke-width:1.0;"/><line style="stroke:#181818;stroke-width:1.0;stroke-dasharray:2.0,2.0;" x1="610.5" x2="811.5" y1="890.3" y2="890.3"/><text fill="#000000" font-family="Sarabun" font-size="13" font-weight="bold" lengthAdjust="spacing" textLength="14" x="622.5" y="885.284">20</text><text fill="#000000" font-family="Sarabun" font-size="13" lengthAdjust="spacing" textLength="149" x="640.5" y="885.284">ข้อมูลการเข้าสู่ระบบของผู้ใช้</text><line style="stroke:#181818;stroke-width:1.0;" x1="610.5" x2="652.5" y1="921.2" y2="921.2"/><line style="stroke:#181818;stroke-width:1.0;" x1="652.5" x2="652.5" y1="921.2" y2="934.2"/><line style="stroke:#181818;stroke-width:1.0;" x1="611.5" x2="652.5" y1="934.2" y2="934.2"/><polygon fill="#181818" points="621.5,930.2,611.5,934.2,621.5,938.2,617.5,934.2" style="stroke:#181818;stroke-width:1.0;"/><text fill="#000000" font-family="Sarabun" font-size="13" font-weight="bold" lengthAdjust="spacing" textLength="14" x="617.5" y="916.184">21</text><text fill="#000000" font-family="Sarabun" font-size="13" lengthAdjust="spacing" textLength="142" x="635.5" y="916.184">ตรวจสอบข้อมูลที่ผู้ใช้กรอก</text><path d="M266,979.2 L344,979.2 L344,988.1 L334,998.1 L266,998.1 L266,979.2 " fill="#EEEEEE" style="stroke:#000000;stroke-width:1.5;"/><rect fill="none" height="49.8" style="stroke:#000000;stroke-width:1.5;" width="386" x="266" y="979.2"/><text fill="#000000" font-family="Sarabun" font-size="13" font-weight="bold" lengthAdjust="spacing" textLength="33" x="281" y="994.084">break</text><text fill="#000000" font-family="Sarabun" font-size="11" font-weight="bold" lengthAdjust="spacing" textLength="89" x="359" y="992.948">[ยืนยันตัวตนสำเร็จ]</text><polygon fill="#181818" points="338.5,1017,328.5,1021,338.5,1025,334.5,1021" style="stroke:#181818;stroke-width:1.0;"/><line style="stroke:#181818;stroke-width:1.0;stroke-dasharray:2.0,2.0;" x1="332.5" x2="599.5" y1="1021" y2="1021"/><text fill="#000000" font-family="Sarabun" font-size="13" font-weight="bold" lengthAdjust="spacing" textLength="14" x="344.5" y="1015.984">22</text><text fill="#000000" font-family="Sarabun" font-size="13" lengthAdjust="spacing" textLength="45" x="362.5" y="1015.984">หน้าหลัก</text><polygon fill="#181818" points="338.5,1054.9,328.5,1058.9,338.5,1062.9,334.5,1058.9" style="stroke:#181818;stroke-width:1.0;"/><line style="stroke:#181818;stroke-width:1.0;stroke-dasharray:2.0,2.0;" x1="332.5" x2="599.5" y1="1058.9" y2="1058.9"/><text fill="#000000" font-family="Sarabun" font-size="13" font-weight="bold" lengthAdjust="spacing" textLength="14" x="344.5" y="1053.884">23</text><text fill="#000000" font-family="Sarabun" font-size="13" lengthAdjust="spacing" textLength="231" x="362.5" y="1053.884">สั่งให้แจ้งเตือนผู้ใช้ให้ตรวจสอบข้อมูลที่กรอก</text><polygon fill="#181818" points="76.5,1085.8,66.5,1089.8,76.5,1093.8,72.5,1089.8" style="stroke:#181818;stroke-width:1.0;"/><line style="stroke:#181818;stroke-width:1.0;stroke-dasharray:2.0,2.0;" x1="70.5" x2="316.5" y1="1089.8" y2="1089.8"/><text fill="#000000" font-family="Sarabun" font-size="13" font-weight="bold" lengthAdjust="spacing" textLength="14" x="82.5" y="1084.784">24</text><text fill="#000000" font-family="Sarabun" font-size="13" lengthAdjust="spacing" textLength="204" x="100.5" y="1084.784">แจ้งเตือนผู้ใช้ให้ตรวจสอบข้อมูลที่กรอก</text><polygon fill="#181818" points="71.5,1123.7,61.5,1127.7,71.5,1131.7,67.5,1127.7" style="stroke:#181818;stroke-width:1.0;"/><line style="stroke:#181818;stroke-width:1.0;stroke-dasharray:2.0,2.0;" x1="65.5" x2="321.5" y1="1127.7" y2="1127.7"/><text fill="#000000" font-family="Sarabun" font-size="13" font-weight="bold" lengthAdjust="spacing" textLength="14" x="77.5" y="1122.684">25</text><text fill="#000000" font-family="Sarabun" font-size="13" lengthAdjust="spacing" textLength="75" x="95.5" y="1122.684">แสดงหน้าหลัก</text><!--MD5=[fe3cbb21308e09990131951b2112cd1d]
@startuml
skinparam monochrome true
skinparam defaultFontName Sarabun
autonumber

title Use Case 1: ยืนยันตัวตน
mainframe **sd** AuthenticateUser

participant "user:User" as User
participant ":WebBrowser" as Browser
participant ":WebServer" as Server
participant ":Database" as Database

User -> Browser: กดลงทะเบียนบัญชีผู้ใช้

activate User

activate Browser
Browser -> Server: ขอเข้าถึงหน้าลงทะเบียนบัญชีผู้ใช้

activate Server
Server - -> Browser: หน้าฟอร์มลงทะเบียนบัญชีผู้ใช้ระบบ
deactivate Server

Browser - -> User: แสดงหน้าฟอร์มลงทะเบียนบัญชีผู้ใช้ระบบ

' loop 1
loop ข้อมูลที่กรอกไม่ถูกต้อง

User -> Browser: กรอกข้อมูล
User -> Browser: กดปุ่ม "Create Account"
Browser -> Server: ส่งข้อมูลส่วนตัวที่ผู้ใช้กรอก

activate Server
Server -> Database: ขอข้อมูลผู้ใช้

activate Database
Database - -> Server: ข้อมูลผู้ใช้
deactivate Database

Server -> Server: ตรวจสอบข้อมูลที่ผู้ใช้กรอก

activate Server
deactivate Server

break ข้อมูลที่กรอกถูกต้อง

Server ->> Database: เขียนข้อมูลผู้ใช้

activate Database
deactivate Database

Server - -> Browser: หน้าฟอร์มลงชื่อเข้าใช้ระบบ
deactivate Server

' break 1.1
end

Server - -> Browser: สั่งให้แจ้งเตือนผู้ใช้ให้ตรวจสอบข้อมูลที่กรอก
Browser - -> User: แจ้งเตือนผู้ใช้ให้ตรวจสอบข้อมูลที่กรอก

' loop 1
end

Browser - -> User: แสดงฟอร์มลงชื่อเข้าใช้ระบบ

' loop 2
loop ยืนยันตัวตนไม่สำเร็จ

User -> Browser: กรอกข้อมูล
User -> Browser: กดปุ่ม "Sign In"
Browser -> Server: ส่งข้อมูลการเข้าสู่ระบบ

activate Server
Server -> Database: ขอข้อมูลการเข้าสู่ระบบของผู้ใช้

activate Database
Database - -> Server: ข้อมูลการเข้าสู่ระบบของผู้ใช้
deactivate Database

Server -> Server: ตรวจสอบข้อมูลที่ผู้ใช้กรอก

activate Server
deactivate Server

' break 2.1
break ยืนยันตัวตนสำเร็จ

Server - -> Browser: หน้าหลัก
deactivate Server

' break 2.1
end

Server - -> Browser: สั่งให้แจ้งเตือนผู้ใช้ให้ตรวจสอบข้อมูลที่กรอก
Browser - -> User: แจ้งเตือนผู้ใช้ให้ตรวจสอบข้อมูลที่กรอก

' loop 2
end

Browser - -> User: แสดงหน้าหลัก

deactivate Browser

deactivate User
@enduml

@startuml
skinparam monochrome true
skinparam defaultFontName Sarabun
autonumber

title Use Case 1: ยืนยันตัวตน
mainframe **sd** AuthenticateUser

participant "user:User" as User
participant ":WebBrowser" as Browser
participant ":WebServer" as Server
participant ":Database" as Database

User -> Browser: กดลงทะเบียนบัญชีผู้ใช้

activate User

activate Browser
Browser -> Server: ขอเข้าถึงหน้าลงทะเบียนบัญชีผู้ใช้

activate Server
Server - -> Browser: หน้าฟอร์มลงทะเบียนบัญชีผู้ใช้ระบบ
deactivate Server

Browser - -> User: แสดงหน้าฟอร์มลงทะเบียนบัญชีผู้ใช้ระบบ

loop ข้อมูลที่กรอกไม่ถูกต้อง

User -> Browser: กรอกข้อมูล
User -> Browser: กดปุ่ม "Create Account"
Browser -> Server: ส่งข้อมูลส่วนตัวที่ผู้ใช้กรอก

activate Server
Server -> Database: ขอข้อมูลผู้ใช้

activate Database
Database - -> Server: ข้อมูลผู้ใช้
deactivate Database

Server -> Server: ตรวจสอบข้อมูลที่ผู้ใช้กรอก

activate Server
deactivate Server

break ข้อมูลที่กรอกถูกต้อง

Server ->> Database: เขียนข้อมูลผู้ใช้

activate Database
deactivate Database

Server - -> Browser: หน้าฟอร์มลงชื่อเข้าใช้ระบบ
deactivate Server

end

Server - -> Browser: สั่งให้แจ้งเตือนผู้ใช้ให้ตรวจสอบข้อมูลที่กรอก
Browser - -> User: แจ้งเตือนผู้ใช้ให้ตรวจสอบข้อมูลที่กรอก

end

Browser - -> User: แสดงฟอร์มลงชื่อเข้าใช้ระบบ

loop ยืนยันตัวตนไม่สำเร็จ

User -> Browser: กรอกข้อมูล
User -> Browser: กดปุ่ม "Sign In"
Browser -> Server: ส่งข้อมูลการเข้าสู่ระบบ

activate Server
Server -> Database: ขอข้อมูลการเข้าสู่ระบบของผู้ใช้

activate Database
Database - -> Server: ข้อมูลการเข้าสู่ระบบของผู้ใช้
deactivate Database

Server -> Server: ตรวจสอบข้อมูลที่ผู้ใช้กรอก

activate Server
deactivate Server

break ยืนยันตัวตนสำเร็จ

Server - -> Browser: หน้าหลัก
deactivate Server

end

Server - -> Browser: สั่งให้แจ้งเตือนผู้ใช้ให้ตรวจสอบข้อมูลที่กรอก
Browser - -> User: แจ้งเตือนผู้ใช้ให้ตรวจสอบข้อมูลที่กรอก

end

Browser - -> User: แสดงหน้าหลัก

deactivate Browser

deactivate User
@enduml

PlantUML version 1.2022.7(Tue Aug 23 00:01:30 ICT 2022)
(GPL source distribution)
Java Runtime: OpenJDK Runtime Environment
JVM: OpenJDK 64-Bit Server VM
Default Encoding: UTF-8
Language: en
Country: TH
--></g></svg>