<?xml version="1.0" encoding="UTF-8" standalone="no"?><svg xmlns="http://www.w3.org/2000/svg" xmlns:xlink="http://www.w3.org/1999/xlink" contentStyleType="text/css" height="902px" preserveAspectRatio="none" style="width:655px;height:902px;background:#FFFFFF;" version="1.1" viewBox="0 0 655 902" width="655px" zoomAndPan="magnify"><defs/><g><rect fill="none" height="28.2" id="_title" style="stroke:none;stroke-width:1.0;" width="179" x="237" y="10"/><text fill="#000000" font-family="Sarabun" font-size="14" font-weight="bold" lengthAdjust="spacing" textLength="169" x="242" y="29.952">Use Case 3: ลงทะเบียนคอร์ส</text><line style="stroke:#181818;stroke-width:1.0;" x1="179" x2="179" y1="419.3" y2="584"/><polygon fill="#181818" points="175,429.3,179,419.3,183,429.3,179,425.3" style="stroke:#181818;stroke-width:1.0;"/><polygon fill="#181818" points="175,574,179,584,183,574,179,578" style="stroke:#181818;stroke-width:1.0;"/><text fill="#000000" font-family="Sarabun" font-size="13" lengthAdjust="spacing" textLength="52" x="183" y="507.084">{≤ 5 นาที}</text><line style="stroke:#181818;stroke-width:0.5;stroke-dasharray:5.0,5.0;" x1="27.5" x2="27.5" y1="77.4" y2="864.2"/><rect fill="#FFFFFF" height="773.8" style="stroke:#181818;stroke-width:1.0;" width="10" x="22.5" y="85.4"/><line style="stroke:#181818;stroke-width:0.5;stroke-dasharray:5.0,5.0;" x1="245.5" x2="245.5" y1="77.4" y2="864.2"/><rect fill="#FFFFFF" height="737.9" style="stroke:#181818;stroke-width:1.0;" width="10" x="240.5" y="108.3"/><line style="stroke:#181818;stroke-width:0.5;stroke-dasharray:5.0,5.0;" x1="415.5" x2="415.5" y1="77.4" y2="864.2"/><rect fill="#FFFFFF" height="92.7" style="stroke:#181818;stroke-width:1.0;" width="10" x="410.5" y="139.2"/><rect fill="#FFFFFF" height="105.7" style="stroke:#181818;stroke-width:1.0;" width="10" x="410.5" y="647.8"/><rect fill="#FFFFFF" height="13" style="stroke:#181818;stroke-width:1.0;" width="10" x="415.5" y="691.7"/><line style="stroke:#181818;stroke-width:0.5;stroke-dasharray:5.0,5.0;" x1="613.5" x2="613.5" y1="77.4" y2="864.2"/><rect fill="#FFFFFF" height="30.9" style="stroke:#181818;stroke-width:1.0;" width="10" x="608.5" y="170.1"/><rect fill="#FFFFFF" height="13" style="stroke:#181818;stroke-width:1.0;" width="10" x="608.5" y="722.6"/><rect fill="#E3E3E3" height="32.2" rx="2.5" ry="2.5" style="stroke:#181818;stroke-width:0.5;" width="45" x="5" y="44.2"/><text fill="#000000" font-family="Sarabun" font-size="14" lengthAdjust="spacing" textLength="31" x="12" y="66.152">ลูกค้า</text><rect fill="#E3E3E3" height="32.2" rx="2.5" ry="2.5" style="stroke:#181818;stroke-width:0.5;" width="96" x="197.5" y="44.2"/><text fill="#000000" font-family="Sarabun" font-size="14" lengthAdjust="spacing" textLength="82" x="204.5" y="66.152">เว็บเบราว์เซอร์</text><rect fill="#E3E3E3" height="32.2" rx="2.5" ry="2.5" style="stroke:#181818;stroke-width:0.5;" width="90" x="370.5" y="44.2"/><text fill="#000000" font-family="Sarabun" font-size="14" lengthAdjust="spacing" textLength="76" x="377.5" y="66.152">เว็บเซิร์ฟเวอร์</text><rect fill="#E3E3E3" height="32.2" rx="2.5" ry="2.5" style="stroke:#181818;stroke-width:0.5;" width="71" x="578" y="44.2"/><text fill="#000000" font-family="Sarabun" font-size="14" lengthAdjust="spacing" textLength="57" x="585" y="66.152">ฐานข้อมูล</text><rect fill="#E3E3E3" height="32.2" rx="2.5" ry="2.5" style="stroke:#181818;stroke-width:0.5;" width="45" x="5" y="864.2"/><text fill="#000000" font-family="Sarabun" font-size="14" lengthAdjust="spacing" textLength="31" x="12" y="886.152">ลูกค้า</text><rect fill="#E3E3E3" height="32.2" rx="2.5" ry="2.5" style="stroke:#181818;stroke-width:0.5;" width="96" x="197.5" y="864.2"/><text fill="#000000" font-family="Sarabun" font-size="14" lengthAdjust="spacing" textLength="82" x="204.5" y="886.152">เว็บเบราว์เซอร์</text><rect fill="#E3E3E3" height="32.2" rx="2.5" ry="2.5" style="stroke:#181818;stroke-width:0.5;" width="90" x="370.5" y="864.2"/><text fill="#000000" font-family="Sarabun" font-size="14" lengthAdjust="spacing" textLength="76" x="377.5" y="886.152">เว็บเซิร์ฟเวอร์</text><rect fill="#E3E3E3" height="32.2" rx="2.5" ry="2.5" style="stroke:#181818;stroke-width:0.5;" width="71" x="578" y="864.2"/><text fill="#000000" font-family="Sarabun" font-size="14" lengthAdjust="spacing" textLength="57" x="585" y="886.152">ฐานข้อมูล</text><polygon fill="#181818" points="228.5,104.3,238.5,108.3,228.5,112.3,232.5,108.3" style="stroke:#181818;stroke-width:1.0;"/><line style="stroke:#181818;stroke-width:1.0;" x1="32.5" x2="234.5" y1="108.3" y2="108.3"/><text fill="#000000" font-family="Sarabun" font-size="13" font-weight="bold" lengthAdjust="spacing" textLength="7" x="39.5" y="103.284">1</text><text fill="#000000" font-family="Sarabun" font-size="13" lengthAdjust="spacing" textLength="143" x="50.5" y="103.284">กดปุ่ม "ENROLL COURSE"</text><polygon fill="#181818" points="398.5,135.2,408.5,139.2,398.5,143.2,402.5,139.2" style="stroke:#181818;stroke-width:1.0;"/><line style="stroke:#181818;stroke-width:1.0;" x1="250.5" x2="404.5" y1="139.2" y2="139.2"/><text fill="#000000" font-family="Sarabun" font-size="13" font-weight="bold" lengthAdjust="spacing" textLength="7" x="257.5" y="134.184">2</text><text fill="#000000" font-family="Sarabun" font-size="13" lengthAdjust="spacing" textLength="130" x="268.5" y="134.184">ขอเข้าถึงหน้าสมัครคอร์ส</text><polygon fill="#181818" points="596.5,166.1,606.5,170.1,596.5,174.1,600.5,170.1" style="stroke:#181818;stroke-width:1.0;"/><line style="stroke:#181818;stroke-width:1.0;" x1="420.5" x2="602.5" y1="170.1" y2="170.1"/><text fill="#000000" font-family="Sarabun" font-size="13" font-weight="bold" lengthAdjust="spacing" textLength="7" x="427.5" y="165.084">3</text><text fill="#000000" font-family="Sarabun" font-size="13" lengthAdjust="spacing" textLength="158" x="438.5" y="165.084">ขอข้อมูลคอร์สและตารางเวลา</text><polygon fill="#181818" points="431.5,197,421.5,201,431.5,205,427.5,201" style="stroke:#181818;stroke-width:1.0;"/><line style="stroke:#181818;stroke-width:1.0;stroke-dasharray:2.0,2.0;" x1="425.5" x2="607.5" y1="201" y2="201"/><text fill="#000000" font-family="Sarabun" font-size="13" font-weight="bold" lengthAdjust="spacing" textLength="7" x="437.5" y="195.984">4</text><text fill="#000000" font-family="Sarabun" font-size="13" lengthAdjust="spacing" textLength="142" x="448.5" y="195.984">ข้อมูลคอร์สและตารางเวลา</text><polygon fill="#181818" points="261.5,227.9,251.5,231.9,261.5,235.9,257.5,231.9" style="stroke:#181818;stroke-width:1.0;"/><line style="stroke:#181818;stroke-width:1.0;stroke-dasharray:2.0,2.0;" x1="255.5" x2="409.5" y1="231.9" y2="231.9"/><text fill="#000000" font-family="Sarabun" font-size="13" font-weight="bold" lengthAdjust="spacing" textLength="7" x="267.5" y="226.884">5</text><text fill="#000000" font-family="Sarabun" font-size="13" lengthAdjust="spacing" textLength="82" x="278.5" y="226.884">หน้าสมัครคอร์ส</text><polygon fill="#181818" points="43.5,258.8,33.5,262.8,43.5,266.8,39.5,262.8" style="stroke:#181818;stroke-width:1.0;"/><line style="stroke:#181818;stroke-width:1.0;" x1="37.5" x2="239.5" y1="262.8" y2="262.8"/><text fill="#000000" font-family="Sarabun" font-size="13" font-weight="bold" lengthAdjust="spacing" textLength="7" x="49.5" y="257.784">6</text><text fill="#000000" font-family="Sarabun" font-size="13" lengthAdjust="spacing" textLength="112" x="60.5" y="257.784">แสดงหน้าสมัครคอร์ส</text><polygon fill="#181818" points="43.5,289.7,33.5,293.7,43.5,297.7,39.5,293.7" style="stroke:#181818;stroke-width:1.0;"/><line style="stroke:#181818;stroke-width:1.0;" x1="37.5" x2="239.5" y1="293.7" y2="293.7"/><text fill="#000000" font-family="Sarabun" font-size="13" font-weight="bold" lengthAdjust="spacing" textLength="7" x="49.5" y="288.684">7</text><text fill="#000000" font-family="Sarabun" font-size="13" lengthAdjust="spacing" textLength="57" x="60.5" y="288.684">เลือกคอร์ส</text><polygon fill="#181818" points="228.5,320.6,238.5,324.6,228.5,328.6,232.5,324.6" style="stroke:#181818;stroke-width:1.0;"/><line style="stroke:#181818;stroke-width:1.0;" x1="32.5" x2="234.5" y1="324.6" y2="324.6"/><text fill="#000000" font-family="Sarabun" font-size="13" font-weight="bold" lengthAdjust="spacing" textLength="7" x="39.5" y="319.584">8</text><text fill="#000000" font-family="Sarabun" font-size="13" lengthAdjust="spacing" textLength="90" x="50.5" y="319.584">กดปุ่ม "Confirm"</text><polygon fill="#181818" points="43.5,351.5,33.5,355.5,43.5,359.5,39.5,355.5" style="stroke:#181818;stroke-width:1.0;"/><line style="stroke:#181818;stroke-width:1.0;" x1="37.5" x2="239.5" y1="355.5" y2="355.5"/><text fill="#000000" font-family="Sarabun" font-size="13" font-weight="bold" lengthAdjust="spacing" textLength="7" x="49.5" y="350.484">9</text><text fill="#000000" font-family="Sarabun" font-size="13" lengthAdjust="spacing" textLength="173" x="60.5" y="350.484">แสดงหน้ายืนยันรายละเอียดคอร์ส</text><polygon fill="#181818" points="228.5,382.4,238.5,386.4,228.5,390.4,232.5,386.4" style="stroke:#181818;stroke-width:1.0;"/><line style="stroke:#181818;stroke-width:1.0;" x1="32.5" x2="234.5" y1="386.4" y2="386.4"/><text fill="#000000" font-family="Sarabun" font-size="13" font-weight="bold" lengthAdjust="spacing" textLength="14" x="39.5" y="381.384">10</text><text fill="#000000" font-family="Sarabun" font-size="13" lengthAdjust="spacing" textLength="90" x="57.5" y="381.384">กดปุ่ม "Confirm"</text><polygon fill="#181818" points="43.5,413.3,33.5,417.3,43.5,421.3,39.5,417.3" style="stroke:#181818;stroke-width:1.0;"/><line style="stroke:#181818;stroke-width:1.0;" x1="37.5" x2="239.5" y1="417.3" y2="417.3"/><text fill="#000000" font-family="Sarabun" font-size="13" font-weight="bold" lengthAdjust="spacing" textLength="14" x="49.5" y="412.284">12</text><text fill="#000000" font-family="Sarabun" font-size="13" lengthAdjust="spacing" textLength="97" x="67.5" y="412.284">แสดงหน้าชำระเงิน</text><polygon fill="#181818" points="230.9107,547.4578,238.5,555.1,227.7339,554.8,232.9934,552.7173" style="stroke:#181818;stroke-width:1.0;"/><line style="stroke:#181818;stroke-width:1.0;" x1="32.5" x2="238.5" y1="465.1" y2="555.1"/><text fill="#000000" font-family="Sarabun" font-size="13" font-weight="bold" lengthAdjust="spacing" textLength="14" x="39.5" y="451.634">13</text><text fill="#000000" font-family="Sarabun" font-size="13" lengthAdjust="spacing" textLength="46" x="57.5" y="443.184">อัปโหลด</text><text fill="#000000" font-family="Sarabun" font-size="13" lengthAdjust="spacing" textLength="108" x="57.5" y="460.084">หลักฐานการชำระเงิน</text><polygon fill="#181818" points="228.5,582,238.5,586,228.5,590,232.5,586" style="stroke:#181818;stroke-width:1.0;"/><line style="stroke:#181818;stroke-width:1.0;" x1="32.5" x2="234.5" y1="586" y2="586"/><text fill="#000000" font-family="Sarabun" font-size="13" font-weight="bold" lengthAdjust="spacing" textLength="14" x="39.5" y="580.984">14</text><text fill="#000000" font-family="Sarabun" font-size="13" lengthAdjust="spacing" textLength="90" x="57.5" y="580.984">กดปุ่ม "Confirm"</text><polygon fill="#181818" points="398.5,643.8,408.5,647.8,398.5,651.8,402.5,647.8" style="stroke:#181818;stroke-width:1.0;"/><line style="stroke:#181818;stroke-width:1.0;" x1="250.5" x2="404.5" y1="647.8" y2="647.8"/><text fill="#000000" font-family="Sarabun" font-size="13" font-weight="bold" lengthAdjust="spacing" textLength="14" x="257.5" y="642.784">16</text><text fill="#000000" font-family="Sarabun" font-size="13" lengthAdjust="spacing" textLength="95" x="275.5" y="642.784">ส่งข้อมูลการสมัคร</text><line style="stroke:#181818;stroke-width:1.0;" x1="420.5" x2="467.5" y1="678.7" y2="678.7"/><line style="stroke:#181818;stroke-width:1.0;" x1="467.5" x2="467.5" y1="678.7" y2="691.7"/><line style="stroke:#181818;stroke-width:1.0;" x1="426.5" x2="467.5" y1="691.7" y2="691.7"/><polygon fill="#181818" points="436.5,687.7,426.5,691.7,436.5,695.7,432.5,691.7" style="stroke:#181818;stroke-width:1.0;"/><text fill="#000000" font-family="Sarabun" font-size="13" font-weight="bold" lengthAdjust="spacing" textLength="14" x="432.5" y="673.684">17</text><text fill="#000000" font-family="Sarabun" font-size="13" lengthAdjust="spacing" textLength="133" x="450.5" y="673.684">ตรวจสอบข้อมูลการสมัคร</text><line style="stroke:#181818;stroke-width:1.0;" x1="606.5" x2="596.5" y1="722.6" y2="718.6"/><line style="stroke:#181818;stroke-width:1.0;" x1="606.5" x2="596.5" y1="722.6" y2="726.6"/><line style="stroke:#181818;stroke-width:1.0;" x1="420.5" x2="607.5" y1="722.6" y2="722.6"/><text fill="#000000" font-family="Sarabun" font-size="13" font-weight="bold" lengthAdjust="spacing" textLength="14" x="427.5" y="717.584">18</text><text fill="#000000" font-family="Sarabun" font-size="13" lengthAdjust="spacing" textLength="138" x="445.5" y="717.584">เขียนข้อมูลการสมัครคอร์ส</text><polygon fill="#181818" points="261.5,749.5,251.5,753.5,261.5,757.5,257.5,753.5" style="stroke:#181818;stroke-width:1.0;"/><line style="stroke:#181818;stroke-width:1.0;stroke-dasharray:2.0,2.0;" x1="255.5" x2="409.5" y1="753.5" y2="753.5"/><text fill="#000000" font-family="Sarabun" font-size="13" font-weight="bold" lengthAdjust="spacing" textLength="14" x="267.5" y="748.484">19</text><text fill="#000000" font-family="Sarabun" font-size="13" lengthAdjust="spacing" textLength="95" x="285.5" y="748.484">ผลการสมัครคอร์ส</text><polygon fill="#181818" points="43.5,780.4,33.5,784.4,43.5,788.4,39.5,784.4" style="stroke:#181818;stroke-width:1.0;"/><line style="stroke:#181818;stroke-width:1.0;stroke-dasharray:2.0,2.0;" x1="37.5" x2="239.5" y1="784.4" y2="784.4"/><text fill="#000000" font-family="Sarabun" font-size="13" font-weight="bold" lengthAdjust="spacing" textLength="14" x="49.5" y="779.384">20</text><text fill="#000000" font-family="Sarabun" font-size="13" lengthAdjust="spacing" textLength="125" x="67.5" y="779.384">แสดงผลการสมัครคอร์ส</text><polygon fill="#181818" points="228.5,811.3,238.5,815.3,228.5,819.3,232.5,815.3" style="stroke:#181818;stroke-width:1.0;"/><line style="stroke:#181818;stroke-width:1.0;" x1="32.5" x2="234.5" y1="815.3" y2="815.3"/><text fill="#000000" font-family="Sarabun" font-size="13" font-weight="bold" lengthAdjust="spacing" textLength="14" x="39.5" y="810.284">21</text><text fill="#000000" font-family="Sarabun" font-size="13" lengthAdjust="spacing" textLength="62" x="57.5" y="810.284">กดปุ่ม "OK"</text><polygon fill="#181818" points="43.5,842.2,33.5,846.2,43.5,850.2,39.5,846.2" style="stroke:#181818;stroke-width:1.0;"/><line style="stroke:#181818;stroke-width:1.0;stroke-dasharray:2.0,2.0;" x1="37.5" x2="239.5" y1="846.2" y2="846.2"/><text fill="#000000" font-family="Sarabun" font-size="13" font-weight="bold" lengthAdjust="spacing" textLength="14" x="49.5" y="841.184">22</text><text fill="#000000" font-family="Sarabun" font-size="13" lengthAdjust="spacing" textLength="75" x="67.5" y="841.184">แสดงหน้าหลัก</text><line style="stroke:#181818;stroke-width:1.0;" x1="179" x2="179" y1="419.3" y2="584"/><polygon fill="#181818" points="175,429.3,179,419.3,183,429.3,179,425.3" style="stroke:#181818;stroke-width:1.0;"/><polygon fill="#181818" points="175,574,179,584,183,574,179,578" style="stroke:#181818;stroke-width:1.0;"/><text fill="#000000" font-family="Sarabun" font-size="13" lengthAdjust="spacing" textLength="52" x="183" y="507.084">{≤ 5 นาที}</text><!--MD5=[b8ab9fa8e1db549a81c66e43b9d32e8e]
@startuml
!pragma teoz true
skinparam monochrome true
skinparam defaultFontName Sarabun
autonumber

title Use Case 3: ลงทะเบียนคอร์ส

participant "ลูกค้า" as Customer
participant "เว็บเบราว์เซอร์" as Browser
participant "เว็บเซิร์ฟเวอร์" as Server
participant "ฐานข้อมูล" as Database

activate Customer
Customer -> Browser: กดปุ่ม "ENROLL COURSE"
activate Browser
Browser -> Server: ขอเข้าถึงหน้าสมัครคอร์ส
activate Server
Server -> Database: ขอข้อมูลคอร์สและตารางเวลา
activate Database
Database - -> Server: ข้อมูลคอร์สและตารางเวลา
deactivate Database
Server - -> Browser: หน้าสมัครคอร์ส
deactivate Server
Browser -> Customer: แสดงหน้าสมัครคอร์ส
' ฟอร์มให้เลือกคอร์สที่จะสมัครจากวันและเวลา
Browser -> Customer: เลือกคอร์ส
Customer -> Browser: กดปุ่ม "Confirm"
Browser -> Customer: แสดงหน้ายืนยันรายละเอียดคอร์ส
Customer -> Browser: กดปุ่ม "Confirm"

{start} Browser -[hidden]> Server
& Browser -> Customer: แสดงหน้าชำระเงิน
Customer ->(90) Browser: อัปโหลด\nหลักฐานการชำระเงิน
{end} Customer -> Browser: กดปุ่ม "Confirm"
{end} Browser -[hidden]> Server

{start} <-> {end}: {<U+2264> 5 นาที}

Browser -> Server: ส่งข้อมูลการสมัคร
activate Server
Server -> Server: ตรวจสอบข้อมูลการสมัคร
activate Server
deactivate Server
Server ->> Database: เขียนข้อมูลการสมัครคอร์ส
activate Database
deactivate Database
Server - -> Browser: ผลการสมัครคอร์ส
deactivate Server
Browser - -> Customer: แสดงผลการสมัครคอร์ส
Customer -> Browser: กดปุ่ม "OK"
Browser - -> Customer: แสดงหน้าหลัก
deactivate Browser
deactivate Customer
@enduml

@startuml
!pragma teoz true
skinparam monochrome true
skinparam defaultFontName Sarabun
autonumber

title Use Case 3: ลงทะเบียนคอร์ส

participant "ลูกค้า" as Customer
participant "เว็บเบราว์เซอร์" as Browser
participant "เว็บเซิร์ฟเวอร์" as Server
participant "ฐานข้อมูล" as Database

activate Customer
Customer -> Browser: กดปุ่ม "ENROLL COURSE"
activate Browser
Browser -> Server: ขอเข้าถึงหน้าสมัครคอร์ส
activate Server
Server -> Database: ขอข้อมูลคอร์สและตารางเวลา
activate Database
Database - -> Server: ข้อมูลคอร์สและตารางเวลา
deactivate Database
Server - -> Browser: หน้าสมัครคอร์ส
deactivate Server
Browser -> Customer: แสดงหน้าสมัครคอร์ส
Browser -> Customer: เลือกคอร์ส
Customer -> Browser: กดปุ่ม "Confirm"
Browser -> Customer: แสดงหน้ายืนยันรายละเอียดคอร์ส
Customer -> Browser: กดปุ่ม "Confirm"

{start} Browser -[hidden]> Server
& Browser -> Customer: แสดงหน้าชำระเงิน
Customer ->(90) Browser: อัปโหลด\nหลักฐานการชำระเงิน
{end} Customer -> Browser: กดปุ่ม "Confirm"
{end} Browser -[hidden]> Server

{start} <-> {end}: {<U+2264> 5 นาที}

Browser -> Server: ส่งข้อมูลการสมัคร
activate Server
Server -> Server: ตรวจสอบข้อมูลการสมัคร
activate Server
deactivate Server
Server ->> Database: เขียนข้อมูลการสมัครคอร์ส
activate Database
deactivate Database
Server - -> Browser: ผลการสมัครคอร์ส
deactivate Server
Browser - -> Customer: แสดงผลการสมัครคอร์ส
Customer -> Browser: กดปุ่ม "OK"
Browser - -> Customer: แสดงหน้าหลัก
deactivate Browser
deactivate Customer
@enduml

PlantUML version 1.2022.7(Tue Aug 23 00:01:30 ICT 2022)
(GPL source distribution)
Java Runtime: OpenJDK Runtime Environment
JVM: OpenJDK 64-Bit Server VM
Default Encoding: UTF-8
Language: en
Country: TH
--></g></svg>