<?xml version="1.0" encoding="UTF-8" standalone="no"?><svg xmlns="http://www.w3.org/2000/svg" xmlns:xlink="http://www.w3.org/1999/xlink" contentStyleType="text/css" height="480px" preserveAspectRatio="none" style="width:700px;height:480px;background:#FFFFFF;" version="1.1" viewBox="0 0 700 480" width="700px" zoomAndPan="magnify"><defs/><g><rect fill="none" height="28.2" id="_title" style="stroke:none;stroke-width:1.0;" width="149" x="267.25" y="10"/><text fill="#000000" font-family="Sarabun" font-size="14" font-weight="bold" lengthAdjust="spacing" textLength="139" x="272.25" y="29.952">Use Case 3: สมัครคอร์ส</text><rect fill="#FFFFFF" height="430.6" style="stroke:#000000;stroke-width:1.5;" width="686.5" x="8" y="44.2"/><path d="M114,44.2 L114,55.4 L104,65.4 L8,65.4 " fill="none" style="stroke:#000000;stroke-width:1.5;"/><text fill="#000000" font-family="Sarabun" font-size="14" font-weight="bold" lengthAdjust="spacing" textLength="14" x="11" y="60.152">sd</text><text fill="#000000" font-family="Sarabun" font-size="14" lengthAdjust="spacing" textLength="79" x="28" y="60.152">EnrollCourse</text><line style="stroke:#181818;stroke-width:0.5;stroke-dasharray:5.0,5.0;" x1="65.5" x2="65.5" y1="105.6" y2="432.6"/><rect fill="#FFFFFF" height="314" style="stroke:#181818;stroke-width:1.0;" width="10" x="60.5" y="113.6"/><line style="stroke:#181818;stroke-width:0.5;stroke-dasharray:5.0,5.0;" x1="283.5" x2="283.5" y1="105.6" y2="432.6"/><rect fill="#FFFFFF" height="278.1" style="stroke:#181818;stroke-width:1.0;" width="10" x="278.5" y="136.5"/><line style="stroke:#181818;stroke-width:0.5;stroke-dasharray:5.0,5.0;" x1="453.5" x2="453.5" y1="105.6" y2="432.6"/><rect fill="#FFFFFF" height="92.7" style="stroke:#181818;stroke-width:1.0;" width="10" x="448.5" y="167.4"/><line style="stroke:#181818;stroke-width:0.5;stroke-dasharray:5.0,5.0;" x1="651.5" x2="651.5" y1="105.6" y2="432.6"/><rect fill="#FFFFFF" height="30.9" style="stroke:#181818;stroke-width:1.0;" width="10" x="646.5" y="198.3"/><rect fill="#E3E3E3" height="32.2" rx="2.5" ry="2.5" style="stroke:#181818;stroke-width:0.5;" width="103" x="14" y="72.4"/><text fill="#000000" font-family="Sarabun" font-size="14" lengthAdjust="spacing" textLength="89" x="21" y="94.352">customer:User</text><rect fill="#E3E3E3" height="32.2" rx="2.5" ry="2.5" style="stroke:#181818;stroke-width:0.5;" width="93" x="237" y="72.4"/><text fill="#000000" font-family="Sarabun" font-size="14" lengthAdjust="spacing" textLength="79" x="244" y="94.352">:WebBrowser</text><rect fill="#E3E3E3" height="32.2" rx="2.5" ry="2.5" style="stroke:#181818;stroke-width:0.5;" width="83" x="412" y="72.4"/><text fill="#000000" font-family="Sarabun" font-size="14" lengthAdjust="spacing" textLength="69" x="419" y="94.352">:WebServer</text><rect fill="#E3E3E3" height="32.2" rx="2.5" ry="2.5" style="stroke:#181818;stroke-width:0.5;" width="74" x="614.5" y="72.4"/><text fill="#000000" font-family="Sarabun" font-size="14" lengthAdjust="spacing" textLength="60" x="621.5" y="94.352">:Database</text><rect fill="#E3E3E3" height="32.2" rx="2.5" ry="2.5" style="stroke:#181818;stroke-width:0.5;" width="103" x="14" y="432.6"/><text fill="#000000" font-family="Sarabun" font-size="14" lengthAdjust="spacing" textLength="89" x="21" y="454.552">customer:User</text><rect fill="#E3E3E3" height="32.2" rx="2.5" ry="2.5" style="stroke:#181818;stroke-width:0.5;" width="93" x="237" y="432.6"/><text fill="#000000" font-family="Sarabun" font-size="14" lengthAdjust="spacing" textLength="79" x="244" y="454.552">:WebBrowser</text><rect fill="#E3E3E3" height="32.2" rx="2.5" ry="2.5" style="stroke:#181818;stroke-width:0.5;" width="83" x="412" y="432.6"/><text fill="#000000" font-family="Sarabun" font-size="14" lengthAdjust="spacing" textLength="69" x="419" y="454.552">:WebServer</text><rect fill="#E3E3E3" height="32.2" rx="2.5" ry="2.5" style="stroke:#181818;stroke-width:0.5;" width="74" x="614.5" y="432.6"/><text fill="#000000" font-family="Sarabun" font-size="14" lengthAdjust="spacing" textLength="60" x="621.5" y="454.552">:Database</text><polygon fill="#181818" points="266.5,132.5,276.5,136.5,266.5,140.5,270.5,136.5" style="stroke:#181818;stroke-width:1.0;"/><line style="stroke:#181818;stroke-width:1.0;" x1="70.5" x2="272.5" y1="136.5" y2="136.5"/><text fill="#000000" font-family="Sarabun" font-size="13" font-weight="bold" lengthAdjust="spacing" textLength="7" x="77.5" y="131.484">1</text><text fill="#000000" font-family="Sarabun" font-size="13" lengthAdjust="spacing" textLength="143" x="88.5" y="131.484">กดปุ่ม "ENROLL COURSE"</text><polygon fill="#181818" points="436.5,163.4,446.5,167.4,436.5,171.4,440.5,167.4" style="stroke:#181818;stroke-width:1.0;"/><line style="stroke:#181818;stroke-width:1.0;" x1="288.5" x2="442.5" y1="167.4" y2="167.4"/><text fill="#000000" font-family="Sarabun" font-size="13" font-weight="bold" lengthAdjust="spacing" textLength="7" x="295.5" y="162.384">2</text><text fill="#000000" font-family="Sarabun" font-size="13" lengthAdjust="spacing" textLength="130" x="306.5" y="162.384">ขอเข้าถึงหน้าสมัครคอร์ส</text><polygon fill="#181818" points="634.5,194.3,644.5,198.3,634.5,202.3,638.5,198.3" style="stroke:#181818;stroke-width:1.0;"/><line style="stroke:#181818;stroke-width:1.0;" x1="458.5" x2="640.5" y1="198.3" y2="198.3"/><text fill="#000000" font-family="Sarabun" font-size="13" font-weight="bold" lengthAdjust="spacing" textLength="7" x="465.5" y="193.284">3</text><text fill="#000000" font-family="Sarabun" font-size="13" lengthAdjust="spacing" textLength="158" x="476.5" y="193.284">ขอข้อมูลคอร์สและตารางเวลา</text><polygon fill="#181818" points="469.5,225.2,459.5,229.2,469.5,233.2,465.5,229.2" style="stroke:#181818;stroke-width:1.0;"/><line style="stroke:#181818;stroke-width:1.0;stroke-dasharray:2.0,2.0;" x1="463.5" x2="645.5" y1="229.2" y2="229.2"/><text fill="#000000" font-family="Sarabun" font-size="13" font-weight="bold" lengthAdjust="spacing" textLength="7" x="475.5" y="224.184">4</text><text fill="#000000" font-family="Sarabun" font-size="13" lengthAdjust="spacing" textLength="142" x="486.5" y="224.184">ข้อมูลคอร์สและตารางเวลา</text><polygon fill="#181818" points="299.5,256.1,289.5,260.1,299.5,264.1,295.5,260.1" style="stroke:#181818;stroke-width:1.0;"/><line style="stroke:#181818;stroke-width:1.0;stroke-dasharray:2.0,2.0;" x1="293.5" x2="447.5" y1="260.1" y2="260.1"/><text fill="#000000" font-family="Sarabun" font-size="13" font-weight="bold" lengthAdjust="spacing" textLength="7" x="305.5" y="255.084">5</text><text fill="#000000" font-family="Sarabun" font-size="13" lengthAdjust="spacing" textLength="82" x="316.5" y="255.084">หน้าสมัครคอร์ส</text><polygon fill="#181818" points="81.5,287,71.5,291,81.5,295,77.5,291" style="stroke:#181818;stroke-width:1.0;"/><line style="stroke:#181818;stroke-width:1.0;stroke-dasharray:2.0,2.0;" x1="75.5" x2="277.5" y1="291" y2="291"/><text fill="#000000" font-family="Sarabun" font-size="13" font-weight="bold" lengthAdjust="spacing" textLength="7" x="87.5" y="285.984">6</text><text fill="#000000" font-family="Sarabun" font-size="13" lengthAdjust="spacing" textLength="112" x="98.5" y="285.984">แสดงหน้าสมัครคอร์ส</text><polygon fill="#181818" points="266.5,317.9,276.5,321.9,266.5,325.9,270.5,321.9" style="stroke:#181818;stroke-width:1.0;"/><line style="stroke:#181818;stroke-width:1.0;" x1="70.5" x2="272.5" y1="321.9" y2="321.9"/><text fill="#000000" font-family="Sarabun" font-size="13" font-weight="bold" lengthAdjust="spacing" textLength="7" x="77.5" y="316.884">7</text><text fill="#000000" font-family="Sarabun" font-size="13" lengthAdjust="spacing" textLength="57" x="88.5" y="316.884">เลือกคอร์ส</text><polygon fill="#181818" points="266.5,348.8,276.5,352.8,266.5,356.8,270.5,352.8" style="stroke:#181818;stroke-width:1.0;"/><line style="stroke:#181818;stroke-width:1.0;" x1="70.5" x2="272.5" y1="352.8" y2="352.8"/><text fill="#000000" font-family="Sarabun" font-size="13" font-weight="bold" lengthAdjust="spacing" textLength="7" x="77.5" y="347.784">8</text><text fill="#000000" font-family="Sarabun" font-size="13" lengthAdjust="spacing" textLength="90" x="88.5" y="347.784">กดปุ่ม "Confirm"</text><polygon fill="#181818" points="81.5,379.7,71.5,383.7,81.5,387.7,77.5,383.7" style="stroke:#181818;stroke-width:1.0;"/><line style="stroke:#181818;stroke-width:1.0;stroke-dasharray:2.0,2.0;" x1="75.5" x2="277.5" y1="383.7" y2="383.7"/><text fill="#000000" font-family="Sarabun" font-size="13" font-weight="bold" lengthAdjust="spacing" textLength="7" x="87.5" y="378.684">9</text><text fill="#000000" font-family="Sarabun" font-size="13" lengthAdjust="spacing" textLength="173" x="98.5" y="378.684">แสดงหน้ายืนยันรายละเอียดคอร์ส</text><polygon fill="#181818" points="266.5,410.6,276.5,414.6,266.5,418.6,270.5,414.6" style="stroke:#181818;stroke-width:1.0;"/><line style="stroke:#181818;stroke-width:1.0;" x1="70.5" x2="272.5" y1="414.6" y2="414.6"/><text fill="#000000" font-family="Sarabun" font-size="13" font-weight="bold" lengthAdjust="spacing" textLength="14" x="77.5" y="409.584">10</text><text fill="#000000" font-family="Sarabun" font-size="13" lengthAdjust="spacing" textLength="90" x="95.5" y="409.584">กดปุ่ม "Confirm"</text><!--MD5=[3d6c7c63dabad4afc5025d4e9d2eee75]
@startuml
!pragma teoz true
skinparam monochrome true
skinparam defaultFontName Sarabun

title Use Case 3: สมัครคอร์ส
mainframe **sd** EnrollCourse

participant "customer:User" as Customer
participant ":WebBrowser" as Browser
participant ":WebServer" as Server
participant ":Database" as Database

autonumber

activate Customer
Customer -> Browser: กดปุ่ม "ENROLL COURSE"

activate Browser
Browser -> Server: ขอเข้าถึงหน้าสมัครคอร์ส

activate Server
Server -> Database: ขอข้อมูลคอร์สและตารางเวลา

activate Database
Database - -> Server: ข้อมูลคอร์สและตารางเวลา
deactivate Database

Server - -> Browser: หน้าสมัครคอร์ส
deactivate Server

Browser - -> Customer: แสดงหน้าสมัครคอร์ส

Customer -> Browser: เลือกคอร์ส
Customer -> Browser: กดปุ่ม "Confirm"
Browser - -> Customer: แสดงหน้ายืนยันรายละเอียดคอร์ส

Customer -> Browser: กดปุ่ม "Confirm"

deactivate Browser

deactivate Customer
@enduml

PlantUML version 1.2022.7(Tue Aug 23 00:01:30 ICT 2022)
(GPL source distribution)
Java Runtime: OpenJDK Runtime Environment
JVM: OpenJDK 64-Bit Server VM
Default Encoding: UTF-8
Language: en
Country: TH
--></g></svg>