<?xml version="1.0" encoding="UTF-8" standalone="no"?><svg xmlns="http://www.w3.org/2000/svg" xmlns:xlink="http://www.w3.org/1999/xlink" contentStyleType="text/css" height="940px" preserveAspectRatio="none" style="width:700px;height:940px;background:#FFFFFF;" version="1.1" viewBox="0 0 700 940" width="700px" zoomAndPan="magnify"><defs/><g><rect fill="none" height="28.2" id="_title" style="stroke:none;stroke-width:1.0;" width="179" x="252.25" y="10"/><text fill="#000000" font-family="Sarabun" font-size="14" font-weight="bold" lengthAdjust="spacing" textLength="169" x="257.25" y="29.952">Use Case 3: ลงทะเบียนคอร์ส</text><rect fill="#FFFFFF" height="890.4" style="stroke:#000000;stroke-width:1.5;" width="686.5" x="8" y="44.2"/><path d="M114,44.2 L114,55.4 L104,65.4 L8,65.4 " fill="none" style="stroke:#000000;stroke-width:1.5;"/><text fill="#000000" font-family="Sarabun" font-size="14" font-weight="bold" lengthAdjust="spacing" textLength="14" x="11" y="60.152">sd</text><text fill="#000000" font-family="Sarabun" font-size="14" lengthAdjust="spacing" textLength="79" x="28" y="60.152">EnrollCourse</text><line style="stroke:#181818;stroke-width:1.0;" x1="217" x2="217" y1="447.5" y2="612.2"/><polygon fill="#181818" points="213,457.5,217,447.5,221,457.5,217,453.5" style="stroke:#181818;stroke-width:1.0;"/><polygon fill="#181818" points="213,602.2,217,612.2,221,602.2,217,606.2" style="stroke:#181818;stroke-width:1.0;"/><text fill="#000000" font-family="Sarabun" font-size="13" lengthAdjust="spacing" textLength="52" x="221" y="535.284">{0..5 min}</text><line style="stroke:#181818;stroke-width:0.5;stroke-dasharray:5.0,5.0;" x1="65.5" x2="65.5" y1="105.6" y2="892.4"/><rect fill="#FFFFFF" height="773.8" style="stroke:#181818;stroke-width:1.0;" width="10" x="60.5" y="113.6"/><line style="stroke:#181818;stroke-width:0.5;stroke-dasharray:5.0,5.0;" x1="283.5" x2="283.5" y1="105.6" y2="892.4"/><rect fill="#FFFFFF" height="737.9" style="stroke:#181818;stroke-width:1.0;" width="10" x="278.5" y="136.5"/><line style="stroke:#181818;stroke-width:0.5;stroke-dasharray:5.0,5.0;" x1="453.5" x2="453.5" y1="105.6" y2="892.4"/><rect fill="#FFFFFF" height="92.7" style="stroke:#181818;stroke-width:1.0;" width="10" x="448.5" y="167.4"/><rect fill="#FFFFFF" height="105.7" style="stroke:#181818;stroke-width:1.0;" width="10" x="448.5" y="676"/><rect fill="#FFFFFF" height="13" style="stroke:#181818;stroke-width:1.0;" width="10" x="453.5" y="719.9"/><line style="stroke:#181818;stroke-width:0.5;stroke-dasharray:5.0,5.0;" x1="651.5" x2="651.5" y1="105.6" y2="892.4"/><rect fill="#FFFFFF" height="30.9" style="stroke:#181818;stroke-width:1.0;" width="10" x="646.5" y="198.3"/><rect fill="#FFFFFF" height="13" style="stroke:#181818;stroke-width:1.0;" width="10" x="646.5" y="750.8"/><rect fill="#E3E3E3" height="32.2" rx="2.5" ry="2.5" style="stroke:#181818;stroke-width:0.5;" width="103" x="14" y="72.4"/><text fill="#000000" font-family="Sarabun" font-size="14" lengthAdjust="spacing" textLength="89" x="21" y="94.352">customer:User</text><rect fill="#E3E3E3" height="32.2" rx="2.5" ry="2.5" style="stroke:#181818;stroke-width:0.5;" width="93" x="237" y="72.4"/><text fill="#000000" font-family="Sarabun" font-size="14" lengthAdjust="spacing" textLength="79" x="244" y="94.352">:WebBrowser</text><rect fill="#E3E3E3" height="32.2" rx="2.5" ry="2.5" style="stroke:#181818;stroke-width:0.5;" width="83" x="412" y="72.4"/><text fill="#000000" font-family="Sarabun" font-size="14" lengthAdjust="spacing" textLength="69" x="419" y="94.352">:WebServer</text><rect fill="#E3E3E3" height="32.2" rx="2.5" ry="2.5" style="stroke:#181818;stroke-width:0.5;" width="74" x="614.5" y="72.4"/><text fill="#000000" font-family="Sarabun" font-size="14" lengthAdjust="spacing" textLength="60" x="621.5" y="94.352">:Database</text><rect fill="#E3E3E3" height="32.2" rx="2.5" ry="2.5" style="stroke:#181818;stroke-width:0.5;" width="103" x="14" y="892.4"/><text fill="#000000" font-family="Sarabun" font-size="14" lengthAdjust="spacing" textLength="89" x="21" y="914.352">customer:User</text><rect fill="#E3E3E3" height="32.2" rx="2.5" ry="2.5" style="stroke:#181818;stroke-width:0.5;" width="93" x="237" y="892.4"/><text fill="#000000" font-family="Sarabun" font-size="14" lengthAdjust="spacing" textLength="79" x="244" y="914.352">:WebBrowser</text><rect fill="#E3E3E3" height="32.2" rx="2.5" ry="2.5" style="stroke:#181818;stroke-width:0.5;" width="83" x="412" y="892.4"/><text fill="#000000" font-family="Sarabun" font-size="14" lengthAdjust="spacing" textLength="69" x="419" y="914.352">:WebServer</text><rect fill="#E3E3E3" height="32.2" rx="2.5" ry="2.5" style="stroke:#181818;stroke-width:0.5;" width="74" x="614.5" y="892.4"/><text fill="#000000" font-family="Sarabun" font-size="14" lengthAdjust="spacing" textLength="60" x="621.5" y="914.352">:Database</text><polygon fill="#181818" points="266.5,132.5,276.5,136.5,266.5,140.5,270.5,136.5" style="stroke:#181818;stroke-width:1.0;"/><line style="stroke:#181818;stroke-width:1.0;" x1="70.5" x2="272.5" y1="136.5" y2="136.5"/><text fill="#000000" font-family="Sarabun" font-size="13" font-weight="bold" lengthAdjust="spacing" textLength="7" x="77.5" y="131.484">1</text><text fill="#000000" font-family="Sarabun" font-size="13" lengthAdjust="spacing" textLength="143" x="88.5" y="131.484">กดปุ่ม "ENROLL COURSE"</text><polygon fill="#181818" points="436.5,163.4,446.5,167.4,436.5,171.4,440.5,167.4" style="stroke:#181818;stroke-width:1.0;"/><line style="stroke:#181818;stroke-width:1.0;" x1="288.5" x2="442.5" y1="167.4" y2="167.4"/><text fill="#000000" font-family="Sarabun" font-size="13" font-weight="bold" lengthAdjust="spacing" textLength="7" x="295.5" y="162.384">2</text><text fill="#000000" font-family="Sarabun" font-size="13" lengthAdjust="spacing" textLength="130" x="306.5" y="162.384">ขอเข้าถึงหน้าสมัครคอร์ส</text><polygon fill="#181818" points="634.5,194.3,644.5,198.3,634.5,202.3,638.5,198.3" style="stroke:#181818;stroke-width:1.0;"/><line style="stroke:#181818;stroke-width:1.0;" x1="458.5" x2="640.5" y1="198.3" y2="198.3"/><text fill="#000000" font-family="Sarabun" font-size="13" font-weight="bold" lengthAdjust="spacing" textLength="7" x="465.5" y="193.284">3</text><text fill="#000000" font-family="Sarabun" font-size="13" lengthAdjust="spacing" textLength="158" x="476.5" y="193.284">ขอข้อมูลคอร์สและตารางเวลา</text><polygon fill="#181818" points="469.5,225.2,459.5,229.2,469.5,233.2,465.5,229.2" style="stroke:#181818;stroke-width:1.0;"/><line style="stroke:#181818;stroke-width:1.0;stroke-dasharray:2.0,2.0;" x1="463.5" x2="645.5" y1="229.2" y2="229.2"/><text fill="#000000" font-family="Sarabun" font-size="13" font-weight="bold" lengthAdjust="spacing" textLength="7" x="475.5" y="224.184">4</text><text fill="#000000" font-family="Sarabun" font-size="13" lengthAdjust="spacing" textLength="142" x="486.5" y="224.184">ข้อมูลคอร์สและตารางเวลา</text><polygon fill="#181818" points="299.5,256.1,289.5,260.1,299.5,264.1,295.5,260.1" style="stroke:#181818;stroke-width:1.0;"/><line style="stroke:#181818;stroke-width:1.0;stroke-dasharray:2.0,2.0;" x1="293.5" x2="447.5" y1="260.1" y2="260.1"/><text fill="#000000" font-family="Sarabun" font-size="13" font-weight="bold" lengthAdjust="spacing" textLength="7" x="305.5" y="255.084">5</text><text fill="#000000" font-family="Sarabun" font-size="13" lengthAdjust="spacing" textLength="82" x="316.5" y="255.084">หน้าสมัครคอร์ส</text><polygon fill="#181818" points="81.5,287,71.5,291,81.5,295,77.5,291" style="stroke:#181818;stroke-width:1.0;"/><line style="stroke:#181818;stroke-width:1.0;" x1="75.5" x2="277.5" y1="291" y2="291"/><text fill="#000000" font-family="Sarabun" font-size="13" font-weight="bold" lengthAdjust="spacing" textLength="7" x="87.5" y="285.984">6</text><text fill="#000000" font-family="Sarabun" font-size="13" lengthAdjust="spacing" textLength="112" x="98.5" y="285.984">แสดงหน้าสมัครคอร์ส</text><polygon fill="#181818" points="81.5,317.9,71.5,321.9,81.5,325.9,77.5,321.9" style="stroke:#181818;stroke-width:1.0;"/><line style="stroke:#181818;stroke-width:1.0;" x1="75.5" x2="277.5" y1="321.9" y2="321.9"/><text fill="#000000" font-family="Sarabun" font-size="13" font-weight="bold" lengthAdjust="spacing" textLength="7" x="87.5" y="316.884">7</text><text fill="#000000" font-family="Sarabun" font-size="13" lengthAdjust="spacing" textLength="57" x="98.5" y="316.884">เลือกคอร์ส</text><polygon fill="#181818" points="266.5,348.8,276.5,352.8,266.5,356.8,270.5,352.8" style="stroke:#181818;stroke-width:1.0;"/><line style="stroke:#181818;stroke-width:1.0;" x1="70.5" x2="272.5" y1="352.8" y2="352.8"/><text fill="#000000" font-family="Sarabun" font-size="13" font-weight="bold" lengthAdjust="spacing" textLength="7" x="77.5" y="347.784">8</text><text fill="#000000" font-family="Sarabun" font-size="13" lengthAdjust="spacing" textLength="90" x="88.5" y="347.784">กดปุ่ม "Confirm"</text><polygon fill="#181818" points="81.5,379.7,71.5,383.7,81.5,387.7,77.5,383.7" style="stroke:#181818;stroke-width:1.0;"/><line style="stroke:#181818;stroke-width:1.0;" x1="75.5" x2="277.5" y1="383.7" y2="383.7"/><text fill="#000000" font-family="Sarabun" font-size="13" font-weight="bold" lengthAdjust="spacing" textLength="7" x="87.5" y="378.684">9</text><text fill="#000000" font-family="Sarabun" font-size="13" lengthAdjust="spacing" textLength="173" x="98.5" y="378.684">แสดงหน้ายืนยันรายละเอียดคอร์ส</text><polygon fill="#181818" points="266.5,410.6,276.5,414.6,266.5,418.6,270.5,414.6" style="stroke:#181818;stroke-width:1.0;"/><line style="stroke:#181818;stroke-width:1.0;" x1="70.5" x2="272.5" y1="414.6" y2="414.6"/><text fill="#000000" font-family="Sarabun" font-size="13" font-weight="bold" lengthAdjust="spacing" textLength="14" x="77.5" y="409.584">10</text><text fill="#000000" font-family="Sarabun" font-size="13" lengthAdjust="spacing" textLength="90" x="95.5" y="409.584">กดปุ่ม "Confirm"</text><polygon fill="#181818" points="81.5,441.5,71.5,445.5,81.5,449.5,77.5,445.5" style="stroke:#181818;stroke-width:1.0;"/><line style="stroke:#181818;stroke-width:1.0;" x1="75.5" x2="277.5" y1="445.5" y2="445.5"/><text fill="#000000" font-family="Sarabun" font-size="13" font-weight="bold" lengthAdjust="spacing" textLength="14" x="87.5" y="440.484">11</text><text fill="#000000" font-family="Sarabun" font-size="13" lengthAdjust="spacing" textLength="97" x="105.5" y="440.484">แสดงหน้าชำระเงิน</text><polygon fill="#181818" points="268.9107,575.6578,276.5,583.3,265.7339,583,270.9934,580.9173" style="stroke:#181818;stroke-width:1.0;"/><line style="stroke:#181818;stroke-width:1.0;" x1="70.5" x2="276.5" y1="493.3" y2="583.3"/><text fill="#000000" font-family="Sarabun" font-size="13" font-weight="bold" lengthAdjust="spacing" textLength="14" x="77.5" y="479.834">12</text><text fill="#000000" font-family="Sarabun" font-size="13" lengthAdjust="spacing" textLength="46" x="95.5" y="471.384">อัปโหลด</text><text fill="#000000" font-family="Sarabun" font-size="13" lengthAdjust="spacing" textLength="108" x="95.5" y="488.284">หลักฐานการชำระเงิน</text><polygon fill="#181818" points="266.5,610.2,276.5,614.2,266.5,618.2,270.5,614.2" style="stroke:#181818;stroke-width:1.0;"/><line style="stroke:#181818;stroke-width:1.0;" x1="70.5" x2="272.5" y1="614.2" y2="614.2"/><text fill="#000000" font-family="Sarabun" font-size="13" font-weight="bold" lengthAdjust="spacing" textLength="14" x="77.5" y="609.184">13</text><text fill="#000000" font-family="Sarabun" font-size="13" lengthAdjust="spacing" textLength="90" x="95.5" y="609.184">กดปุ่ม "Confirm"</text><polygon fill="#181818" points="436.5,672,446.5,676,436.5,680,440.5,676" style="stroke:#181818;stroke-width:1.0;"/><line style="stroke:#181818;stroke-width:1.0;" x1="288.5" x2="442.5" y1="676" y2="676"/><text fill="#000000" font-family="Sarabun" font-size="13" font-weight="bold" lengthAdjust="spacing" textLength="14" x="295.5" y="670.984">14</text><text fill="#000000" font-family="Sarabun" font-size="13" lengthAdjust="spacing" textLength="95" x="313.5" y="670.984">ส่งข้อมูลการสมัคร</text><line style="stroke:#181818;stroke-width:1.0;" x1="458.5" x2="505.5" y1="706.9" y2="706.9"/><line style="stroke:#181818;stroke-width:1.0;" x1="505.5" x2="505.5" y1="706.9" y2="719.9"/><line style="stroke:#181818;stroke-width:1.0;" x1="464.5" x2="505.5" y1="719.9" y2="719.9"/><polygon fill="#181818" points="474.5,715.9,464.5,719.9,474.5,723.9,470.5,719.9" style="stroke:#181818;stroke-width:1.0;"/><text fill="#000000" font-family="Sarabun" font-size="13" font-weight="bold" lengthAdjust="spacing" textLength="14" x="470.5" y="701.884">15</text><text fill="#000000" font-family="Sarabun" font-size="13" lengthAdjust="spacing" textLength="133" x="488.5" y="701.884">ตรวจสอบข้อมูลการสมัคร</text><line style="stroke:#181818;stroke-width:1.0;" x1="644.5" x2="634.5" y1="750.8" y2="746.8"/><line style="stroke:#181818;stroke-width:1.0;" x1="644.5" x2="634.5" y1="750.8" y2="754.8"/><line style="stroke:#181818;stroke-width:1.0;" x1="458.5" x2="645.5" y1="750.8" y2="750.8"/><text fill="#000000" font-family="Sarabun" font-size="13" font-weight="bold" lengthAdjust="spacing" textLength="14" x="465.5" y="745.784">16</text><text fill="#000000" font-family="Sarabun" font-size="13" lengthAdjust="spacing" textLength="138" x="483.5" y="745.784">เขียนข้อมูลการสมัครคอร์ส</text><polygon fill="#181818" points="299.5,777.7,289.5,781.7,299.5,785.7,295.5,781.7" style="stroke:#181818;stroke-width:1.0;"/><line style="stroke:#181818;stroke-width:1.0;stroke-dasharray:2.0,2.0;" x1="293.5" x2="447.5" y1="781.7" y2="781.7"/><text fill="#000000" font-family="Sarabun" font-size="13" font-weight="bold" lengthAdjust="spacing" textLength="14" x="305.5" y="776.684">17</text><text fill="#000000" font-family="Sarabun" font-size="13" lengthAdjust="spacing" textLength="95" x="323.5" y="776.684">ผลการสมัครคอร์ส</text><polygon fill="#181818" points="81.5,808.6,71.5,812.6,81.5,816.6,77.5,812.6" style="stroke:#181818;stroke-width:1.0;"/><line style="stroke:#181818;stroke-width:1.0;stroke-dasharray:2.0,2.0;" x1="75.5" x2="277.5" y1="812.6" y2="812.6"/><text fill="#000000" font-family="Sarabun" font-size="13" font-weight="bold" lengthAdjust="spacing" textLength="14" x="87.5" y="807.584">18</text><text fill="#000000" font-family="Sarabun" font-size="13" lengthAdjust="spacing" textLength="125" x="105.5" y="807.584">แสดงผลการสมัครคอร์ส</text><polygon fill="#181818" points="266.5,839.5,276.5,843.5,266.5,847.5,270.5,843.5" style="stroke:#181818;stroke-width:1.0;"/><line style="stroke:#181818;stroke-width:1.0;" x1="70.5" x2="272.5" y1="843.5" y2="843.5"/><text fill="#000000" font-family="Sarabun" font-size="13" font-weight="bold" lengthAdjust="spacing" textLength="14" x="77.5" y="838.484">19</text><text fill="#000000" font-family="Sarabun" font-size="13" lengthAdjust="spacing" textLength="62" x="95.5" y="838.484">กดปุ่ม "OK"</text><polygon fill="#181818" points="81.5,870.4,71.5,874.4,81.5,878.4,77.5,874.4" style="stroke:#181818;stroke-width:1.0;"/><line style="stroke:#181818;stroke-width:1.0;stroke-dasharray:2.0,2.0;" x1="75.5" x2="277.5" y1="874.4" y2="874.4"/><text fill="#000000" font-family="Sarabun" font-size="13" font-weight="bold" lengthAdjust="spacing" textLength="14" x="87.5" y="869.384">20</text><text fill="#000000" font-family="Sarabun" font-size="13" lengthAdjust="spacing" textLength="75" x="105.5" y="869.384">แสดงหน้าหลัก</text><line style="stroke:#181818;stroke-width:1.0;" x1="217" x2="217" y1="447.5" y2="612.2"/><polygon fill="#181818" points="213,457.5,217,447.5,221,457.5,217,453.5" style="stroke:#181818;stroke-width:1.0;"/><polygon fill="#181818" points="213,602.2,217,612.2,221,602.2,217,606.2" style="stroke:#181818;stroke-width:1.0;"/><text fill="#000000" font-family="Sarabun" font-size="13" lengthAdjust="spacing" textLength="52" x="221" y="535.284">{0..5 min}</text><!--MD5=[ebd7a8df6ce4321aa807ade5fe17f9ae]
@startuml
!pragma teoz true
skinparam monochrome true
skinparam defaultFontName Sarabun

title Use Case 3: ลงทะเบียนคอร์ส
mainframe **sd** EnrollCourse

participant "customer:User" as Customer
participant ":WebBrowser" as Browser
participant ":WebServer" as Server
participant ":Database" as Database

autonumber
activate Customer
Customer -> Browser: กดปุ่ม "ENROLL COURSE"
activate Browser
Browser -> Server: ขอเข้าถึงหน้าสมัครคอร์ส
activate Server
Server -> Database: ขอข้อมูลคอร์สและตารางเวลา
activate Database
Database - -> Server: ข้อมูลคอร์สและตารางเวลา
deactivate Database
Server - -> Browser: หน้าสมัครคอร์ส
deactivate Server
Browser -> Customer: แสดงหน้าสมัครคอร์ส
' ฟอร์มให้เลือกคอร์สที่จะสมัครจากวันและเวลา
Browser -> Customer: เลือกคอร์ส
Customer -> Browser: กดปุ่ม "Confirm"
Browser -> Customer: แสดงหน้ายืนยันรายละเอียดคอร์ส
Customer -> Browser: กดปุ่ม "Confirm"

{start} Browser -[hidden]> Server
autonumber 11
& Browser -> Customer: แสดงหน้าชำระเงิน
Customer ->(90) Browser: อัปโหลด\nหลักฐานการชำระเงิน
{end} Customer -> Browser: กดปุ่ม "Confirm"
{end} Browser -[hidden]> Server

{start} <-> {end}: {0..5 min}

autonumber 14
Browser -> Server: ส่งข้อมูลการสมัคร
activate Server
Server -> Server: ตรวจสอบข้อมูลการสมัคร
activate Server
deactivate Server
Server ->> Database: เขียนข้อมูลการสมัครคอร์ส
activate Database
deactivate Database
Server - -> Browser: ผลการสมัครคอร์ส
deactivate Server
Browser - -> Customer: แสดงผลการสมัครคอร์ส
Customer -> Browser: กดปุ่ม "OK"
Browser - -> Customer: แสดงหน้าหลัก
deactivate Browser
deactivate Customer
@enduml

@startuml
!pragma teoz true
skinparam monochrome true
skinparam defaultFontName Sarabun

title Use Case 3: ลงทะเบียนคอร์ส
mainframe **sd** EnrollCourse

participant "customer:User" as Customer
participant ":WebBrowser" as Browser
participant ":WebServer" as Server
participant ":Database" as Database

autonumber
activate Customer
Customer -> Browser: กดปุ่ม "ENROLL COURSE"
activate Browser
Browser -> Server: ขอเข้าถึงหน้าสมัครคอร์ส
activate Server
Server -> Database: ขอข้อมูลคอร์สและตารางเวลา
activate Database
Database - -> Server: ข้อมูลคอร์สและตารางเวลา
deactivate Database
Server - -> Browser: หน้าสมัครคอร์ส
deactivate Server
Browser -> Customer: แสดงหน้าสมัครคอร์ส
Browser -> Customer: เลือกคอร์ส
Customer -> Browser: กดปุ่ม "Confirm"
Browser -> Customer: แสดงหน้ายืนยันรายละเอียดคอร์ส
Customer -> Browser: กดปุ่ม "Confirm"

{start} Browser -[hidden]> Server
autonumber 11
& Browser -> Customer: แสดงหน้าชำระเงิน
Customer ->(90) Browser: อัปโหลด\nหลักฐานการชำระเงิน
{end} Customer -> Browser: กดปุ่ม "Confirm"
{end} Browser -[hidden]> Server

{start} <-> {end}: {0..5 min}

autonumber 14
Browser -> Server: ส่งข้อมูลการสมัคร
activate Server
Server -> Server: ตรวจสอบข้อมูลการสมัคร
activate Server
deactivate Server
Server ->> Database: เขียนข้อมูลการสมัครคอร์ส
activate Database
deactivate Database
Server - -> Browser: ผลการสมัครคอร์ส
deactivate Server
Browser - -> Customer: แสดงผลการสมัครคอร์ส
Customer -> Browser: กดปุ่ม "OK"
Browser - -> Customer: แสดงหน้าหลัก
deactivate Browser
deactivate Customer
@enduml

PlantUML version 1.2022.7(Tue Aug 23 00:01:30 ICT 2022)
(GPL source distribution)
Java Runtime: OpenJDK Runtime Environment
JVM: OpenJDK 64-Bit Server VM
Default Encoding: UTF-8
Language: en
Country: TH
--></g></svg>