<?xml version="1.0" encoding="UTF-8" standalone="no"?><svg xmlns="http://www.w3.org/2000/svg" xmlns:xlink="http://www.w3.org/1999/xlink" contentStyleType="text/css" height="899px" preserveAspectRatio="none" style="width:786px;height:899px;background:#FFFFFF;" version="1.1" viewBox="0 0 786 899" width="786px" zoomAndPan="magnify"><defs/><g><rect fill="none" height="28.2" id="_title" style="stroke:none;stroke-width:1.0;" width="152" x="316.25" y="10"/><text fill="#000000" font-family="Sarabun" font-size="14" font-weight="bold" lengthAdjust="spacing" textLength="142" x="321.25" y="29.952">Use Case 1: ยืนยันตัวตน</text><rect fill="#FFFFFF" height="734" style="stroke:#181818;stroke-width:1.0;" width="10" x="34" y="110.3"/><rect fill="#FFFFFF" height="734" style="stroke:#181818;stroke-width:1.0;" width="10" x="296" y="110.3"/><rect fill="#FFFFFF" height="30.9" style="stroke:#181818;stroke-width:1.0;" width="10" x="528" y="141.2"/><rect fill="#FFFFFF" height="227.5" style="stroke:#181818;stroke-width:1.0;" width="10" x="528" y="295.7"/><rect fill="#FFFFFF" height="28" style="stroke:#181818;stroke-width:1.0;" width="10" x="533" y="396.4"/><rect fill="#FFFFFF" height="166.6" style="stroke:#181818;stroke-width:1.0;" width="10" x="528" y="646.8"/><rect fill="#FFFFFF" height="28" style="stroke:#181818;stroke-width:1.0;" width="10" x="533" y="747.5"/><rect fill="#FFFFFF" height="30.9" style="stroke:#181818;stroke-width:1.0;" width="10" x="740" y="326.6"/><rect fill="#FFFFFF" height="30" style="stroke:#181818;stroke-width:1.0;" width="10" x="740" y="462.3"/><rect fill="#FFFFFF" height="30.9" style="stroke:#181818;stroke-width:1.0;" width="10" x="740" y="677.7"/><line style="stroke:#181818;stroke-width:0.5;stroke-dasharray:5.0,5.0;" x1="39" x2="39" y1="77.4" y2="862.3"/><line style="stroke:#181818;stroke-width:0.5;stroke-dasharray:5.0,5.0;" x1="301" x2="301" y1="77.4" y2="862.3"/><line style="stroke:#181818;stroke-width:0.5;stroke-dasharray:5.0,5.0;" x1="533" x2="533" y1="77.4" y2="862.3"/><line style="stroke:#181818;stroke-width:0.5;stroke-dasharray:5.0,5.0;" x1="744.5" x2="744.5" y1="77.4" y2="862.3"/><rect fill="#E3E3E3" height="32.2" rx="2.5" ry="2.5" style="stroke:#181818;stroke-width:0.5;" width="68" x="5" y="44.2"/><text fill="#000000" font-family="Sarabun" font-size="14" lengthAdjust="spacing" textLength="54" x="12" y="66.152">ผู้ใช้ระบบ</text><rect fill="#E3E3E3" height="32.2" rx="2.5" ry="2.5" style="stroke:#181818;stroke-width:0.5;" width="68" x="5" y="861.3"/><text fill="#000000" font-family="Sarabun" font-size="14" lengthAdjust="spacing" textLength="54" x="12" y="883.252">ผู้ใช้ระบบ</text><rect fill="#E3E3E3" height="32.2" rx="2.5" ry="2.5" style="stroke:#181818;stroke-width:0.5;" width="96" x="253" y="44.2"/><text fill="#000000" font-family="Sarabun" font-size="14" lengthAdjust="spacing" textLength="82" x="260" y="66.152">เว็บเบราว์เซอร์</text><rect fill="#E3E3E3" height="32.2" rx="2.5" ry="2.5" style="stroke:#181818;stroke-width:0.5;" width="96" x="253" y="861.3"/><text fill="#000000" font-family="Sarabun" font-size="14" lengthAdjust="spacing" textLength="82" x="260" y="883.252">เว็บเบราว์เซอร์</text><rect fill="#E3E3E3" height="32.2" rx="2.5" ry="2.5" style="stroke:#181818;stroke-width:0.5;" width="90" x="488" y="44.2"/><text fill="#000000" font-family="Sarabun" font-size="14" lengthAdjust="spacing" textLength="76" x="495" y="66.152">เว็บเซิร์ฟเวอร์</text><rect fill="#E3E3E3" height="32.2" rx="2.5" ry="2.5" style="stroke:#181818;stroke-width:0.5;" width="90" x="488" y="861.3"/><text fill="#000000" font-family="Sarabun" font-size="14" lengthAdjust="spacing" textLength="76" x="495" y="883.252">เว็บเซิร์ฟเวอร์</text><rect fill="#E3E3E3" height="32.2" rx="2.5" ry="2.5" style="stroke:#181818;stroke-width:0.5;" width="71" x="709.5" y="44.2"/><text fill="#000000" font-family="Sarabun" font-size="14" lengthAdjust="spacing" textLength="57" x="716.5" y="66.152">ฐานข้อมูล</text><rect fill="#E3E3E3" height="32.2" rx="2.5" ry="2.5" style="stroke:#181818;stroke-width:0.5;" width="71" x="709.5" y="861.3"/><text fill="#000000" font-family="Sarabun" font-size="14" lengthAdjust="spacing" textLength="57" x="716.5" y="883.252">ฐานข้อมูล</text><rect fill="#FFFFFF" height="734" style="stroke:#181818;stroke-width:1.0;" width="10" x="34" y="110.3"/><rect fill="#FFFFFF" height="734" style="stroke:#181818;stroke-width:1.0;" width="10" x="296" y="110.3"/><rect fill="#FFFFFF" height="30.9" style="stroke:#181818;stroke-width:1.0;" width="10" x="528" y="141.2"/><rect fill="#FFFFFF" height="227.5" style="stroke:#181818;stroke-width:1.0;" width="10" x="528" y="295.7"/><rect fill="#FFFFFF" height="28" style="stroke:#181818;stroke-width:1.0;" width="10" x="533" y="396.4"/><rect fill="#FFFFFF" height="166.6" style="stroke:#181818;stroke-width:1.0;" width="10" x="528" y="646.8"/><rect fill="#FFFFFF" height="28" style="stroke:#181818;stroke-width:1.0;" width="10" x="533" y="747.5"/><rect fill="#FFFFFF" height="30.9" style="stroke:#181818;stroke-width:1.0;" width="10" x="740" y="326.6"/><rect fill="#FFFFFF" height="30" style="stroke:#181818;stroke-width:1.0;" width="10" x="740" y="462.3"/><rect fill="#FFFFFF" height="30.9" style="stroke:#181818;stroke-width:1.0;" width="10" x="740" y="677.7"/><polygon fill="#181818" points="284,106.3,294,110.3,284,114.3,288,110.3" style="stroke:#181818;stroke-width:1.0;"/><line style="stroke:#181818;stroke-width:1.0;" x1="44" x2="290" y1="110.3" y2="110.3"/><text fill="#000000" font-family="Sarabun" font-size="13" font-weight="bold" lengthAdjust="spacing" textLength="7" x="51" y="105.284">1</text><text fill="#000000" font-family="Sarabun" font-size="13" lengthAdjust="spacing" textLength="120" x="62" y="105.284">กดลงทะเบียนบัญชีผู้ใช้</text><polygon fill="#181818" points="516,137.2,526,141.2,516,145.2,520,141.2" style="stroke:#181818;stroke-width:1.0;"/><line style="stroke:#181818;stroke-width:1.0;" x1="306" x2="522" y1="141.2" y2="141.2"/><text fill="#000000" font-family="Sarabun" font-size="13" font-weight="bold" lengthAdjust="spacing" textLength="7" x="313" y="136.184">2</text><text fill="#000000" font-family="Sarabun" font-size="13" lengthAdjust="spacing" textLength="175" x="324" y="136.184">ขอเข้าถึงหน้าลงทะเบียนบัญชีผู้ใช้</text><polygon fill="#181818" points="317,168.1,307,172.1,317,176.1,313,172.1" style="stroke:#181818;stroke-width:1.0;"/><line style="stroke:#181818;stroke-width:1.0;stroke-dasharray:2.0,2.0;" x1="311" x2="532" y1="172.1" y2="172.1"/><text fill="#000000" font-family="Sarabun" font-size="13" font-weight="bold" lengthAdjust="spacing" textLength="7" x="323" y="167.084">3</text><text fill="#000000" font-family="Sarabun" font-size="13" lengthAdjust="spacing" textLength="187" x="334" y="167.084">หน้าฟอร์มลงทะเบียนบัญชีผู้ใช้ระบบ</text><polygon fill="#181818" points="55,199,45,203,55,207,51,203" style="stroke:#181818;stroke-width:1.0;"/><line style="stroke:#181818;stroke-width:1.0;stroke-dasharray:2.0,2.0;" x1="49" x2="295" y1="203" y2="203"/><text fill="#000000" font-family="Sarabun" font-size="13" font-weight="bold" lengthAdjust="spacing" textLength="7" x="61" y="197.984">4</text><text fill="#000000" font-family="Sarabun" font-size="13" lengthAdjust="spacing" textLength="217" x="72" y="197.984">แสดงหน้าฟอร์มลงทะเบียนบัญชีผู้ใช้ระบบ</text><polygon fill="#181818" points="284,229.9,294,233.9,284,237.9,288,233.9" style="stroke:#181818;stroke-width:1.0;"/><line style="stroke:#181818;stroke-width:1.0;" x1="44" x2="290" y1="233.9" y2="233.9"/><text fill="#000000" font-family="Sarabun" font-size="13" font-weight="bold" lengthAdjust="spacing" textLength="7" x="51" y="228.884">5</text><text fill="#000000" font-family="Sarabun" font-size="13" lengthAdjust="spacing" textLength="60" x="62" y="228.884">กรอกข้อมูล</text><polygon fill="#181818" points="284,260.8,294,264.8,284,268.8,288,264.8" style="stroke:#181818;stroke-width:1.0;"/><line style="stroke:#181818;stroke-width:1.0;" x1="44" x2="290" y1="264.8" y2="264.8"/><text fill="#000000" font-family="Sarabun" font-size="13" font-weight="bold" lengthAdjust="spacing" textLength="7" x="51" y="259.784">6</text><text fill="#000000" font-family="Sarabun" font-size="13" lengthAdjust="spacing" textLength="133" x="62" y="259.784">กดปุ่ม "Create Account"</text><polygon fill="#181818" points="516,291.7,526,295.7,516,299.7,520,295.7" style="stroke:#181818;stroke-width:1.0;"/><line style="stroke:#181818;stroke-width:1.0;" x1="306" x2="522" y1="295.7" y2="295.7"/><text fill="#000000" font-family="Sarabun" font-size="13" font-weight="bold" lengthAdjust="spacing" textLength="7" x="313" y="290.684">7</text><text fill="#000000" font-family="Sarabun" font-size="13" lengthAdjust="spacing" textLength="142" x="324" y="290.684">ส่งข้อมูลส่วนตัวที่ผู้ใช้กรอก</text><polygon fill="#181818" points="728,322.6,738,326.6,728,330.6,732,326.6" style="stroke:#181818;stroke-width:1.0;"/><line style="stroke:#181818;stroke-width:1.0;" x1="538" x2="734" y1="326.6" y2="326.6"/><text fill="#000000" font-family="Sarabun" font-size="13" font-weight="bold" lengthAdjust="spacing" textLength="7" x="545" y="321.584">8</text><text fill="#000000" font-family="Sarabun" font-size="13" lengthAdjust="spacing" textLength="69" x="556" y="321.584">ขอข้อมูลผู้ใช้</text><polygon fill="#181818" points="549,353.5,539,357.5,549,361.5,545,357.5" style="stroke:#181818;stroke-width:1.0;"/><line style="stroke:#181818;stroke-width:1.0;stroke-dasharray:2.0,2.0;" x1="543" x2="744" y1="357.5" y2="357.5"/><text fill="#000000" font-family="Sarabun" font-size="13" font-weight="bold" lengthAdjust="spacing" textLength="7" x="555" y="352.484">9</text><text fill="#000000" font-family="Sarabun" font-size="13" lengthAdjust="spacing" textLength="53" x="566" y="352.484">ข้อมูลผู้ใช้</text><line style="stroke:#181818;stroke-width:1.0;" x1="543" x2="585" y1="388.4" y2="388.4"/><line style="stroke:#181818;stroke-width:1.0;" x1="585" x2="585" y1="388.4" y2="401.4"/><line style="stroke:#181818;stroke-width:1.0;" x1="544" x2="585" y1="401.4" y2="401.4"/><polygon fill="#181818" points="554,397.4,544,401.4,554,405.4,550,401.4" style="stroke:#181818;stroke-width:1.0;"/><text fill="#000000" font-family="Sarabun" font-size="13" font-weight="bold" lengthAdjust="spacing" textLength="14" x="550" y="383.384">10</text><text fill="#000000" font-family="Sarabun" font-size="13" lengthAdjust="spacing" textLength="142" x="568" y="383.384">ตรวจสอบข้อมูลที่ผู้ใช้กรอก</text><line style="stroke:#181818;stroke-width:1.0;" x1="738" x2="728" y1="462.3" y2="458.3"/><line style="stroke:#181818;stroke-width:1.0;" x1="738" x2="728" y1="462.3" y2="466.3"/><line style="stroke:#181818;stroke-width:1.0;" x1="538" x2="739" y1="462.3" y2="462.3"/><text fill="#000000" font-family="Sarabun" font-size="13" font-weight="bold" lengthAdjust="spacing" textLength="14" x="545" y="457.284">11</text><text fill="#000000" font-family="Sarabun" font-size="13" lengthAdjust="spacing" textLength="80" x="563" y="457.284">เขียนข้อมูลผู้ใช้</text><polygon fill="#181818" points="317,519.2,307,523.2,317,527.2,313,523.2" style="stroke:#181818;stroke-width:1.0;"/><line style="stroke:#181818;stroke-width:1.0;stroke-dasharray:2.0,2.0;" x1="311" x2="532" y1="523.2" y2="523.2"/><text fill="#000000" font-family="Sarabun" font-size="13" font-weight="bold" lengthAdjust="spacing" textLength="14" x="323" y="518.184">12</text><text fill="#000000" font-family="Sarabun" font-size="13" lengthAdjust="spacing" textLength="143" x="341" y="518.184">หน้าฟอร์มลงชื่อเข้าใช้ระบบ</text><polygon fill="#181818" points="55,550.1,45,554.1,55,558.1,51,554.1" style="stroke:#181818;stroke-width:1.0;"/><line style="stroke:#181818;stroke-width:1.0;stroke-dasharray:2.0,2.0;" x1="49" x2="295" y1="554.1" y2="554.1"/><text fill="#000000" font-family="Sarabun" font-size="13" font-weight="bold" lengthAdjust="spacing" textLength="14" x="61" y="549.084">13</text><text fill="#000000" font-family="Sarabun" font-size="13" lengthAdjust="spacing" textLength="151" x="79" y="549.084">แสดงฟอร์มลงชื่อเข้าใช้ระบบ</text><polygon fill="#181818" points="284,581,294,585,284,589,288,585" style="stroke:#181818;stroke-width:1.0;"/><line style="stroke:#181818;stroke-width:1.0;" x1="44" x2="290" y1="585" y2="585"/><text fill="#000000" font-family="Sarabun" font-size="13" font-weight="bold" lengthAdjust="spacing" textLength="14" x="51" y="579.984">14</text><text fill="#000000" font-family="Sarabun" font-size="13" lengthAdjust="spacing" textLength="60" x="69" y="579.984">กรอกข้อมูล</text><polygon fill="#181818" points="284,611.9,294,615.9,284,619.9,288,615.9" style="stroke:#181818;stroke-width:1.0;"/><line style="stroke:#181818;stroke-width:1.0;" x1="44" x2="290" y1="615.9" y2="615.9"/><text fill="#000000" font-family="Sarabun" font-size="13" font-weight="bold" lengthAdjust="spacing" textLength="14" x="51" y="610.884">15</text><text fill="#000000" font-family="Sarabun" font-size="13" lengthAdjust="spacing" textLength="83" x="69" y="610.884">กดปุ่ม "Sign In"</text><polygon fill="#181818" points="516,642.8,526,646.8,516,650.8,520,646.8" style="stroke:#181818;stroke-width:1.0;"/><line style="stroke:#181818;stroke-width:1.0;" x1="306" x2="522" y1="646.8" y2="646.8"/><text fill="#000000" font-family="Sarabun" font-size="13" font-weight="bold" lengthAdjust="spacing" textLength="14" x="313" y="641.784">16</text><text fill="#000000" font-family="Sarabun" font-size="13" lengthAdjust="spacing" textLength="120" x="331" y="641.784">ส่งข้อมูลการเข้าสู่ระบบ</text><polygon fill="#181818" points="728,673.7,738,677.7,728,681.7,732,677.7" style="stroke:#181818;stroke-width:1.0;"/><line style="stroke:#181818;stroke-width:1.0;" x1="538" x2="734" y1="677.7" y2="677.7"/><text fill="#000000" font-family="Sarabun" font-size="13" font-weight="bold" lengthAdjust="spacing" textLength="14" x="545" y="672.684">17</text><text fill="#000000" font-family="Sarabun" font-size="13" lengthAdjust="spacing" textLength="165" x="563" y="672.684">ขอข้อมูลการเข้าสู่ระบบของผู้ใช้</text><polygon fill="#181818" points="549,704.6,539,708.6,549,712.6,545,708.6" style="stroke:#181818;stroke-width:1.0;"/><line style="stroke:#181818;stroke-width:1.0;stroke-dasharray:2.0,2.0;" x1="543" x2="744" y1="708.6" y2="708.6"/><text fill="#000000" font-family="Sarabun" font-size="13" font-weight="bold" lengthAdjust="spacing" textLength="14" x="555" y="703.584">18</text><text fill="#000000" font-family="Sarabun" font-size="13" lengthAdjust="spacing" textLength="149" x="573" y="703.584">ข้อมูลการเข้าสู่ระบบของผู้ใช้</text><line style="stroke:#181818;stroke-width:1.0;" x1="543" x2="585" y1="739.5" y2="739.5"/><line style="stroke:#181818;stroke-width:1.0;" x1="585" x2="585" y1="739.5" y2="752.5"/><line style="stroke:#181818;stroke-width:1.0;" x1="544" x2="585" y1="752.5" y2="752.5"/><polygon fill="#181818" points="554,748.5,544,752.5,554,756.5,550,752.5" style="stroke:#181818;stroke-width:1.0;"/><text fill="#000000" font-family="Sarabun" font-size="13" font-weight="bold" lengthAdjust="spacing" textLength="14" x="550" y="734.484">19</text><text fill="#000000" font-family="Sarabun" font-size="13" lengthAdjust="spacing" textLength="142" x="568" y="734.484">ตรวจสอบข้อมูลที่ผู้ใช้กรอก</text><polygon fill="#181818" points="317,809.4,307,813.4,317,817.4,313,813.4" style="stroke:#181818;stroke-width:1.0;"/><line style="stroke:#181818;stroke-width:1.0;stroke-dasharray:2.0,2.0;" x1="311" x2="532" y1="813.4" y2="813.4"/><text fill="#000000" font-family="Sarabun" font-size="13" font-weight="bold" lengthAdjust="spacing" textLength="14" x="323" y="808.384">20</text><text fill="#000000" font-family="Sarabun" font-size="13" lengthAdjust="spacing" textLength="45" x="341" y="808.384">หน้าหลัก</text><polygon fill="#181818" points="50,840.3,40,844.3,50,848.3,46,844.3" style="stroke:#181818;stroke-width:1.0;"/><line style="stroke:#181818;stroke-width:1.0;stroke-dasharray:2.0,2.0;" x1="44" x2="300" y1="844.3" y2="844.3"/><text fill="#000000" font-family="Sarabun" font-size="13" font-weight="bold" lengthAdjust="spacing" textLength="14" x="56" y="839.284">21</text><text fill="#000000" font-family="Sarabun" font-size="13" lengthAdjust="spacing" textLength="75" x="74" y="839.284">แสดงหน้าหลัก</text><!--MD5=[b7b13b7b58fe2bb4416ab75679438b42]
@startuml
skinparam monochrome true
skinparam defaultFontName Sarabun
autonumber

title Use Case 1: ยืนยันตัวตน

participant "ผู้ใช้ระบบ" as User
participant "เว็บเบราว์เซอร์" as Browser
participant "เว็บเซิร์ฟเวอร์" as Server
participant "ฐานข้อมูล" as Database

User -> Browser: กดลงทะเบียนบัญชีผู้ใช้
activate User
activate Browser
Browser -> Server: ขอเข้าถึงหน้าลงทะเบียนบัญชีผู้ใช้
activate Server
Server - -> Browser: หน้าฟอร์มลงทะเบียนบัญชีผู้ใช้ระบบ
deactivate Server
Browser - -> User: แสดงหน้าฟอร์มลงทะเบียนบัญชีผู้ใช้ระบบ
User -> Browser: กรอกข้อมูล
User -> Browser: กดปุ่ม "Create Account"
Browser -> Server: ส่งข้อมูลส่วนตัวที่ผู้ใช้กรอก
activate Server
Server -> Database: ขอข้อมูลผู้ใช้
activate Database
Database - -> Server: ข้อมูลผู้ใช้
deactivate Database
Server -> Server: ตรวจสอบข้อมูลที่ผู้ใช้กรอก
activate Server
deactivate Server
Server ->> Database: เขียนข้อมูลผู้ใช้
activate Database
deactivate Database
Server - -> Browser: หน้าฟอร์มลงชื่อเข้าใช้ระบบ
deactivate Server
Browser - -> User: แสดงฟอร์มลงชื่อเข้าใช้ระบบ
User -> Browser: กรอกข้อมูล
User -> Browser: กดปุ่ม "Sign In"
Browser -> Server: ส่งข้อมูลการเข้าสู่ระบบ
activate Server
Server -> Database: ขอข้อมูลการเข้าสู่ระบบของผู้ใช้
activate Database
Database - -> Server: ข้อมูลการเข้าสู่ระบบของผู้ใช้
deactivate Database
Server -> Server: ตรวจสอบข้อมูลที่ผู้ใช้กรอก
activate Server
deactivate Server
Server - -> Browser: หน้าหลัก
deactivate Server
Browser - -> User: แสดงหน้าหลัก
deactivate Browser
deactivate User
@enduml

PlantUML version 1.2022.7(Tue Aug 23 00:01:30 ICT 2022)
(GPL source distribution)
Java Runtime: OpenJDK Runtime Environment
JVM: OpenJDK 64-Bit Server VM
Default Encoding: UTF-8
Language: en
Country: TH
--></g></svg>