<?xml version="1.0" encoding="UTF-8" standalone="no"?>
<!DOCTYPE svg PUBLIC "-//W3C//DTD SVG 1.1//EN" "http://www.w3.org/Graphics/SVG/1.1/DTD/svg11.dtd">
<svg width="100%" height="100%" viewBox="0 0 841 2921" version="1.1" xmlns="http://www.w3.org/2000/svg" xmlns:xlink="http://www.w3.org/1999/xlink" xml:space="preserve" xmlns:serif="http://www.serif.com/" style="fill-rule:evenodd;clip-rule:evenodd;stroke-miterlimit:10;">
    <g>
        <path d="M0.5,23.5L0.5,0.5L280.5,0.5L280.5,23.5" style="fill:white;fill-rule:nonzero;stroke:black;stroke-width:1px;"/>
        <path d="M0.5,23.5L0.5,2920.5L280.5,2920.5L280.5,23.5" style="fill:none;fill-rule:nonzero;stroke:black;stroke-width:1px;"/>
        <path d="M0.5,23.5L280.5,23.5" style="fill:none;fill-rule:nonzero;stroke:black;stroke-width:1px;"/>
        <g transform="matrix(1,0,0,1,140,15)">
            <g>
                <g transform="matrix(18,0,0,18,7.713,0)">
                </g>
                <text x="-13.761px" y="0px" style="font-family:'THSarabunNew-Bold', 'TH Sarabun New', sans-serif;font-weight:700;font-size:18px;">ลูกคา</text>
            </g>
        </g>
        <path d="M203,758.67C203,754.161 199.339,750.5 194.83,750.5L86.17,750.5C81.661,750.5 78,754.161 78,758.67L78,796.83C78,801.339 81.661,805 86.17,805L194.83,805C199.339,805 203,801.339 203,796.83L203,758.67Z" style="fill:white;stroke:black;stroke-width:1px;stroke-miterlimit:4;"/>
        <g transform="matrix(1,0,0,1,140,782.25)">
            <g transform="matrix(18,0,0,18,7.974,0)">
            </g>
            <g transform="matrix(18,0,0,18,33.498,0)">
            </g>
            <text x="-40.356px" y="0px" style="font-family:'THSarabunNew', 'TH Sarabun New', sans-serif;font-size:18px;">ชำระเงินคาคอรส</text>
        </g>
        <path d="M145.75,1750.5L220.75,1805L145.75,1859.5L70.75,1805L145.75,1750.5Z" style="fill:white;fill-rule:nonzero;stroke:black;stroke-width:2px;"/>
        <g transform="matrix(1,0,0,1,145.885,1801.8)">
            <g>
                <g>
                    <g transform="matrix(18,0,0,18,9.477,0)">
                    </g>
                    <text x="-38.475px" y="0px" style="font-family:'THSarabunNew', 'TH Sarabun New', sans-serif;font-size:18px;">สามารถเ<tspan x="2.673px " y="0px ">ข</tspan>าเ<tspan x="18.369px " y="0px ">ร</tspan>ียน</text>
                    <g transform="matrix(18,0,0,18,26.613,18)">
                    </g>
                    <text x="-26.613px" y="18px" style="font-family:'THSarabunNew', 'TH Sarabun New', sans-serif;font-size:18px;">ตามเ<tspan x="-3.393px " y="18px ">ว</tspan>ลาได</text>
                </g>
            </g>
        </g>
        <path d="M182.88,2536.64C182.88,2532.13 179.219,2528.47 174.71,2528.47L96.55,2528.47C92.041,2528.47 88.38,2532.13 88.38,2536.64L88.38,2574.8C88.38,2579.31 92.041,2582.97 96.55,2582.97L174.71,2582.97C179.219,2582.97 182.88,2579.31 182.88,2574.8L182.88,2536.64Z" style="fill:white;stroke:black;stroke-width:1px;stroke-miterlimit:4;"/>
        <g transform="matrix(1,0,0,1,135.13,2560.21)">
            <g transform="matrix(18,0,0,18,6.39,0)">
            </g>
            <g transform="matrix(18,0,0,18,10.0768,0)">
            </g>
            <text x="-35.802px" y="0px" style="font-family:'THSarabunNew', 'TH Sarabun New', sans-serif;font-size:18px;">รับ Certiﬁcate</text>
        </g>
        <path d="M140.5,705L140.5,744.13" style="fill:none;fill-rule:nonzero;stroke:black;stroke-width:1px;"/>
        <path d="M140.5,749.38L137,742.38L140.5,744.13L144,742.38L140.5,749.38Z" style="fill-rule:nonzero;stroke:black;stroke-width:1px;"/>
        <path d="M203,658.67C203,654.161 199.339,650.5 194.83,650.5L86.17,650.5C81.661,650.5 78,654.161 78,658.67L78,696.83C78,701.339 81.661,705 86.17,705L194.83,705C199.339,705 203,701.339 203,696.83L203,658.67Z" style="fill:white;stroke:black;stroke-width:1px;stroke-miterlimit:4;"/>
        <g transform="matrix(1,0,0,1,140,682.25)">
            <g transform="matrix(18,0,0,18,18.702,0)">
            </g>
            <text x="-25.56px" y="0px" style="font-family:'THSarabunNew', 'TH Sarabun New', sans-serif;font-size:18px;">เลือกคอรส</text>
        </g>
        <path d="M140.5,489.5L140.5,544.13" style="fill:none;fill-rule:nonzero;stroke:black;stroke-width:1px;"/>
        <path d="M140.5,549.38L137,542.38L140.5,544.13L144,542.38L140.5,549.38Z" style="fill-rule:nonzero;stroke:black;stroke-width:1px;"/>
        <g transform="matrix(1,0,0,1,156.474,505.64)">
            <g>
                <g transform="matrix(18,0,0,18,2.196,0)">
                </g>
                <text x="-9.396px" y="0px" style="font-family:'THSarabunNew', 'TH Sarabun New', sans-serif;font-size:18px;">ไมมี</text>
            </g>
        </g>
        <path d="M90.5,435L51.8,435L51.8,677.8L71.63,677.76" style="fill:none;fill-rule:nonzero;stroke:black;stroke-width:1px;"/>
        <path d="M76.88,677.75L69.89,681.27L71.63,677.76L69.88,674.27L76.88,677.75Z" style="fill-rule:nonzero;stroke:black;stroke-width:1px;"/>
        <g transform="matrix(1,0,0,1,75.8449,432.5)">
            <g>
                <text x="-3.6px" y="0px" style="font-family:'THSarabunNew', 'TH Sarabun New', sans-serif;font-size:18px;">มี</text>
            </g>
        </g>
        <path d="M140.5,380.5L190.5,435L140.5,489.5L90.5,435L140.5,380.5Z" style="fill:white;fill-rule:nonzero;stroke:black;stroke-width:2px;"/>
        <g transform="matrix(1,0,0,1,140,438)">
            <g>
                <text x="-38.889px" y="0px" style="font-family:'THSarabunNew', 'TH Sarabun New', sans-serif;font-size:18px;">มีบัญชีของระบบ</text>
            </g>
        </g>
        <path d="M140.5,605L140.5,644.13" style="fill:none;fill-rule:nonzero;stroke:black;stroke-width:1px;"/>
        <path d="M140.5,649.38L137,642.38L140.5,644.13L144,642.38L140.5,649.38Z" style="fill-rule:nonzero;stroke:black;stroke-width:1px;"/>
        <path d="M203,558.67C203,554.161 199.339,550.5 194.83,550.5L86.17,550.5C81.661,550.5 78,554.161 78,558.67L78,596.83C78,601.339 81.661,605 86.17,605L194.83,605C199.339,605 203,601.339 203,596.83L203,558.67Z" style="fill:white;stroke:black;stroke-width:1px;stroke-miterlimit:4;"/>
        <g transform="matrix(1,0,0,1,140,582.25)">
            <g transform="matrix(18,0,0,18,-11.106,0)">
            </g>
            <text x="-23.76px" y="0px" style="font-family:'THSarabunNew', 'TH Sarabun New', sans-serif;font-size:18px;">สรางบัญชี</text>
        </g>
        <path d="M140.5,949.49L140.5,994.13" style="fill:none;fill-rule:nonzero;stroke:black;stroke-width:1px;"/>
        <path d="M140.5,999.38L137,992.38L140.5,994.13L144,992.38L140.5,999.38Z" style="fill-rule:nonzero;stroke:black;stroke-width:1px;"/>
        <g transform="matrix(1,0,0,1,171.459,967.96)">
            <g>
                <g transform="matrix(18,0,0,18,-12.789,0)">
                </g>
                <text x="-24.381px" y="0px" style="font-family:'THSarabunNew', 'TH Sarabun New', sans-serif;font-size:18px;">ไมทันเ<tspan x="5.805px " y="0px ">ว</tspan>ลา</text>
            </g>
        </g>
        <path d="M140.5,840.5L215.5,895L140.5,949.49L65.5,895L140.5,840.5Z" style="fill:white;fill-rule:nonzero;stroke:black;stroke-width:2px;"/>
        <g transform="matrix(1,0,0,1,140.527,882.782)">
            <g>
                <g>
                    <text x="-40.716px" y="0px" style="font-family:'THSarabunNew', 'TH Sarabun New', sans-serif;font-size:18px;">อัปโหลดหลักฐาน</text>
                    <g transform="matrix(18,0,0,18,17.19,18)">
                    </g>
                    <g transform="matrix(18,0,0,18,42.714,18)">
                    </g>
                    <text x="-49.572px" y="18px" style="font-family:'THSarabunNew', 'TH Sarabun New', sans-serif;font-size:18px;">การชำระเงินคาคอรส</text>
                    <g transform="matrix(18,0,0,18,33.642,36)">
                    </g>
                    <text x="-33.642px" y="36px" style="font-family:'THSarabunNew', 'TH Sarabun New', sans-serif;font-size:18px;">ภายใน 5 นาที</text>
                </g>
            </g>
        </g>
        <path d="M140.5,805L140.5,834.13" style="fill:none;fill-rule:nonzero;stroke:black;stroke-width:1px;"/>
        <path d="M140.5,839.38L137,832.38L140.5,834.13L144,832.38L140.5,839.38Z" style="fill-rule:nonzero;stroke:black;stroke-width:1px;"/>
        <path d="M203,1008.67C203,1004.16 199.339,1000.5 194.83,1000.5L86.17,1000.5C81.661,1000.5 78,1004.16 78,1008.67L78,1046.83C78,1051.34 81.661,1055 86.17,1055L194.83,1055C199.339,1055 203,1051.34 203,1046.83L203,1008.67Z" style="fill:white;stroke:black;stroke-width:1px;stroke-miterlimit:4;"/>
        <g transform="matrix(1,0,0,1,140,1032.25)">
            <g transform="matrix(18,0,0,18,-37.08,0)">
            </g>
            <g transform="matrix(18,0,0,18,-13.23,0)">
            </g>
            <text x="-43.938px" y="0px" style="font-family:'THSarabunNew', 'TH Sarabun New', sans-serif;font-size:18px;">สงคำรองขอคืนเงิน</text>
        </g>
        <path d="M203.09,1255.92C203.09,1251.41 199.429,1247.75 194.92,1247.75L86.26,1247.75C81.751,1247.75 78.09,1251.41 78.09,1255.92L78.09,1294.08C78.09,1298.59 81.751,1302.25 86.26,1302.25L194.92,1302.25C199.429,1302.25 203.09,1298.59 203.09,1294.08L203.09,1255.92Z" style="fill:white;stroke:black;stroke-width:1px;stroke-miterlimit:4;"/>
        <g transform="matrix(1,0,0,1,140.09,1279.5)">
            <text x="-22.32px" y="0px" style="font-family:'THSarabunNew', 'TH Sarabun New', sans-serif;font-size:18px;">รับเงินคืน</text>
        </g>
        <path d="M280.5,23.5L280.5,0.5L560.5,0.5L560.5,23.5" style="fill:white;fill-rule:nonzero;stroke:black;stroke-width:1px;"/>
        <path d="M280.5,23.5L280.5,2920.5L560.5,2920.5L560.5,23.5" style="fill:none;fill-rule:nonzero;stroke:black;stroke-width:1px;"/>
        <path d="M280.5,23.5L560.5,23.5" style="fill:none;fill-rule:nonzero;stroke:black;stroke-width:1px;"/>
        <g transform="matrix(1,0,0,1,420,15)">
            <g>
                <g transform="matrix(18,0,0,18,-12.627,0)">
                </g>
                <g transform="matrix(18,0,0,18,9.099,0)">
                </g>
                <g transform="matrix(18,0,0,18,23.031,0)">
                </g>
                <g transform="matrix(18,0,0,18,23.031,0)">
                </g>
                <g transform="matrix(18,0,0,18,23.031,0)">
                </g>
                <g transform="matrix(18,0,0,18,23.031,0)">
                </g>
                <text x="-23.031px" y="0px" style="font-family:'THSarabunNew-Bold', 'TH Sarabun New', sans-serif;font-weight:700;font-size:18px;">เ<tspan x="-19.647px " y="0px ">จ</tspan>าหนาที่</text>
            </g>
        </g>
        <path d="M420.5,90.5L420.5,114.13" style="fill:none;fill-rule:nonzero;stroke:black;stroke-width:1px;"/>
        <path d="M420.5,119.38L417,112.38L420.5,114.13L424,112.38L420.5,119.38Z" style="fill-rule:nonzero;stroke:black;stroke-width:1px;"/>
        <circle cx="420.5" cy="65.5" r="21" style="stroke:rgb(255,0,0);stroke-width:1px;stroke-miterlimit:4;"/>
        <path d="M420.59,1489.49L420.6,1515.5L420.52,1535.06" style="fill:none;fill-rule:nonzero;stroke:black;stroke-width:1px;"/>
        <path d="M420.5,1540.31L417.03,1533.3L420.52,1535.06L424.03,1533.33L420.5,1540.31Z" style="fill-rule:nonzero;stroke:black;stroke-width:1px;"/>
        <g transform="matrix(1,0,0,1,443.248,1506.79)">
            <g>
                <g transform="matrix(18,0,0,18,4.266,0)">
                </g>
                <text x="-16.524px" y="0px" style="font-family:'THSarabunNew', 'TH Sarabun New', sans-serif;font-size:18px;">ถูกตอง</text>
            </g>
        </g>
        <path d="M420.59,1380.5L495.59,1435L420.59,1489.49L345.59,1435L420.59,1380.5Z" style="fill:white;fill-rule:nonzero;stroke:black;stroke-width:2px;"/>
        <g transform="matrix(1,0,0,1,420.054,1429.88)">
            <g>
                <g>
                    <g transform="matrix(18,0,0,18,40.761,0)">
                    </g>
                    <text x="-53.019px" y="0px" style="font-family:'THSarabunNew', 'TH Sarabun New', sans-serif;font-size:18px;">ตรวจสอบความถูกตอง</text>
                    <text x="-50.301px" y="18px" style="font-family:'THSarabunNew', 'TH Sarabun New', sans-serif;font-size:18px;">หลักฐานการชำระเงิน</text>
                </g>
            </g>
        </g>
        <path d="M420.5,1595.93L420.46,1662.59" style="fill:none;fill-rule:nonzero;stroke:black;stroke-width:1px;"/>
        <path d="M420.46,1667.84L416.96,1660.84L420.46,1662.59L423.96,1660.84L420.46,1667.84Z" style="fill-rule:nonzero;stroke:black;stroke-width:1px;"/>
        <path d="M483,1549.6C483,1545.09 479.339,1541.43 474.83,1541.43L366.17,1541.43C361.661,1541.43 358,1545.09 358,1549.6L358,1587.76C358,1592.27 361.661,1595.93 366.17,1595.93L474.83,1595.93C479.339,1595.93 483,1592.27 483,1587.76L483,1549.6Z" style="fill:white;stroke:black;stroke-width:1px;stroke-miterlimit:4;"/>
        <g transform="matrix(1,0,0,1,420,1573.18)">
            <g transform="matrix(18,0,0,18,-24.102,0)">
            </g>
            <g transform="matrix(18,0,0,18,-24.102,0)">
            </g>
            <g transform="matrix(18,0,0,18,-24.102,0)">
            </g>
            <g transform="matrix(18,0,0,18,-24.102,0)">
            </g>
            <g transform="matrix(18,0,0,18,2.934,0)">
            </g>
            <text x="-33.102px" y="0px" style="font-family:'THSarabunNew', 'TH Sarabun New', sans-serif;font-size:18px;">เ<tspan x="-29.898px " y="0px ">ร</tspan>ิ่มคอรสเ<tspan x="12.996px " y="0px ">ร</tspan>ียน</text>
        </g>
        <path d="M420.5,1950.5L420.5,1918.19" style="fill:none;fill-rule:nonzero;stroke:black;stroke-width:1px;"/>
        <path d="M420.5,1912.94L424,1919.94L420.5,1918.19L417,1919.94L420.5,1912.94Z" style="fill-rule:nonzero;stroke:black;stroke-width:1px;"/>
        <path d="M483,1958.67C483,1954.16 479.339,1950.5 474.83,1950.5L366.17,1950.5C361.661,1950.5 358,1954.16 358,1958.67L358,1996.83C358,2001.34 361.661,2005 366.17,2005L474.83,2005C479.339,2005 483,2001.34 483,1996.83L483,1958.67Z" style="fill:white;stroke:black;stroke-width:1px;stroke-miterlimit:4;"/>
        <g>
            <g transform="matrix(1,0,0,1,420,1975.25)">
                <text x="-32.022px" y="0px" style="font-family:'THSarabunNew', 'TH Sarabun New', sans-serif;font-size:18px;">จองเ<tspan x="-9.864px " y="0px ">ว</tspan>ลาเ<tspan x="11.916px " y="0px ">ร</tspan>ียน</text>
            </g>
            <g transform="matrix(1,0,0,1,420,1989.25)">
                <text x="-15.291px" y="0px" style="font-family:'THSarabunNew', 'TH Sarabun New', sans-serif;font-size:18px;">ชดเ<tspan x="1.701px " y="0px ">ช</tspan>ย</text>
            </g>
        </g>
        <rect x="347" y="1900.92" width="147" height="10.9" style="stroke:black;stroke-width:1px;stroke-miterlimit:4;"/>
        <path d="M383.75,2452.17L383.8,2490.4L350.6,2490.4L350.62,2522.1" style="fill:none;fill-rule:nonzero;stroke:black;stroke-width:1px;"/>
        <path d="M350.62,2527.35L347.12,2520.35L350.62,2522.1L354.12,2520.35L350.62,2527.35Z" style="fill-rule:nonzero;stroke:black;stroke-width:1px;"/>
        <path d="M457.25,2452.17L457.2,2490.4L490.5,2490.4L490.5,2522.1" style="fill:none;fill-rule:nonzero;stroke:black;stroke-width:1px;"/>
        <path d="M490.5,2527.35L487,2520.35L490.5,2522.1L494,2520.35L490.5,2527.35Z" style="fill-rule:nonzero;stroke:black;stroke-width:1px;"/>
        <path d="M420.5,2452.17L420.5,2620.19" style="fill:none;fill-rule:nonzero;stroke:black;stroke-width:1px;"/>
        <path d="M420.5,2625.44L417,2618.44L420.5,2620.19L424,2618.44L420.5,2625.44Z" style="fill-rule:nonzero;stroke:black;stroke-width:1px;"/>
        <rect x="347" y="2441.27" width="147" height="10.9" style="stroke:black;stroke-width:1px;stroke-miterlimit:4;"/>
        <path d="M420.5,2375.87L420.5,2434.9" style="fill:none;fill-rule:nonzero;stroke:black;stroke-width:1px;"/>
        <path d="M420.5,2440.15L417,2433.15L420.5,2434.9L424,2433.15L420.5,2440.15Z" style="fill-rule:nonzero;stroke:black;stroke-width:1px;"/>
        <path d="M483,2329.54C483,2325.03 479.339,2321.37 474.83,2321.37L366.17,2321.37C361.661,2321.37 358,2325.03 358,2329.54L358,2367.7C358,2372.21 361.661,2375.87 366.17,2375.87L474.83,2375.87C479.339,2375.87 483,2372.21 483,2367.7L483,2329.54Z" style="fill:white;stroke:black;stroke-width:1px;stroke-miterlimit:4;"/>
        <g transform="matrix(1,0,0,1,420,2353.12)">
            <g transform="matrix(18,0,0,18,13.644,0)">
            </g>
            <text x="-20.502px" y="0px" style="font-family:'THSarabunNew', 'TH Sarabun New', sans-serif;font-size:18px;">จบคอรส</text>
        </g>
        <path d="M400.75,2536.64C400.75,2532.13 397.089,2528.47 392.58,2528.47L308.67,2528.47C304.161,2528.47 300.5,2532.13 300.5,2536.64L300.5,2574.8C300.5,2579.31 304.161,2582.97 308.67,2582.97L392.58,2582.97C397.089,2582.97 400.75,2579.31 400.75,2574.8L400.75,2536.64Z" style="fill:white;stroke:black;stroke-width:1px;stroke-miterlimit:4;"/>
        <g transform="matrix(1,0,0,1,350.13,2560.22)">
            <g transform="matrix(18,0,0,18,13.176,0)">
            </g>
            <g transform="matrix(18,0,0,18,16.8628,0)">
            </g>
            <text x="-42.588px" y="0px" style="font-family:'THSarabunNew', 'TH Sarabun New', sans-serif;font-size:18px;">จัดทำ Certiﬁcate</text>
        </g>
        <path d="M420.5,2681.06L420.5,2772.58" style="fill:none;fill-rule:nonzero;stroke:black;stroke-width:1px;"/>
        <path d="M420.5,2777.83L417,2770.83L420.5,2772.58L424,2770.83L420.5,2777.83Z" style="fill-rule:nonzero;stroke:black;stroke-width:1px;"/>
        <path d="M483,2634.73C483,2630.22 479.339,2626.56 474.83,2626.56L366.17,2626.56C361.661,2626.56 358,2630.22 358,2634.73L358,2672.89C358,2677.4 361.661,2681.06 366.17,2681.06L474.83,2681.06C479.339,2681.06 483,2677.4 483,2672.89L483,2634.73Z" style="fill:white;stroke:black;stroke-width:1px;stroke-miterlimit:4;"/>
        <g transform="matrix(1,0,0,1,420,2658.31)">
            <text x="-49.392px" y="0px" style="font-family:'THSarabunNew', 'TH Sarabun New', sans-serif;font-size:18px;">จัดทำรายงานการเงิน</text>
        </g>
        <path d="M540.5,2536.64C540.5,2532.13 536.839,2528.47 532.33,2528.47L448.67,2528.47C444.161,2528.47 440.5,2532.13 440.5,2536.64L440.5,2574.8C440.5,2579.31 444.161,2582.97 448.67,2582.97L532.33,2582.97C536.839,2582.97 540.5,2579.31 540.5,2574.8L540.5,2536.64Z" style="fill:white;stroke:black;stroke-width:1px;stroke-miterlimit:4;"/>
        <g transform="matrix(1,0,0,1,490,2560.22)">
            <g transform="matrix(18,0,0,18,-30.213,0)">
            </g>
            <text x="-36.819px" y="0px" style="font-family:'THSarabunNew', 'TH Sarabun New', sans-serif;font-size:18px;">จายเงินเดือนครู</text>
        </g>
        <rect x="346.96" y="1668.96" width="147" height="10.9" style="stroke:black;stroke-width:1px;stroke-miterlimit:4;"/>
        <path d="M420.5,2102.27L420.5,2144.14" style="fill:none;fill-rule:nonzero;stroke:black;stroke-width:1px;"/>
        <path d="M420.5,2149.39L417,2142.39L420.5,2144.14L424,2142.39L420.5,2149.39Z" style="fill-rule:nonzero;stroke:black;stroke-width:1px;"/>
        <rect x="347" y="2091.37" width="147" height="10.9" style="stroke:black;stroke-width:1px;stroke-miterlimit:4;"/>
        <path d="M420.5,2789.85L420.5,2842.51" style="fill:none;fill-rule:nonzero;stroke:black;stroke-width:1px;"/>
        <path d="M420.5,2847.76L417,2840.76L420.5,2842.51L424,2840.76L420.5,2847.76Z" style="fill-rule:nonzero;stroke:black;stroke-width:1px;"/>
        <rect x="347" y="2778.95" width="147" height="10.9" style="stroke:black;stroke-width:1px;stroke-miterlimit:4;"/>
        <path d="M420.5,2259.5L420.5,2315" style="fill:none;fill-rule:nonzero;stroke:black;stroke-width:1px;"/>
        <path d="M420.5,2320.25L417,2313.25L420.5,2315L424,2313.25L420.5,2320.25Z" style="fill-rule:nonzero;stroke:black;stroke-width:1px;"/>
        <g transform="matrix(1,0,0,1,433.276,2280.78)">
            <g>
                <g transform="matrix(18,0,0,18,5.328,0)">
                </g>
                <text x="-5.328px" y="0px" style="font-family:'THSarabunNew', 'TH Sarabun New', sans-serif;font-size:18px;">ใ<tspan x="-1.512px " y="0px ">ช</tspan></text>
            </g>
        </g>
        <path d="M420.5,272.25L420.5,304.13" style="fill:none;fill-rule:nonzero;stroke:black;stroke-width:1px;"/>
        <path d="M420.5,309.38L417,302.38L420.5,304.13L424,302.38L420.5,309.38Z" style="fill-rule:nonzero;stroke:black;stroke-width:1px;"/>
        <path d="M483,225.92C483,221.411 479.339,217.75 474.83,217.75L366.17,217.75C361.661,217.75 358,221.411 358,225.92L358,264.08C358,268.589 361.661,272.25 366.17,272.25L474.83,272.25C479.339,272.25 483,268.589 483,264.08L483,225.92Z" style="fill:white;stroke:black;stroke-width:1px;stroke-miterlimit:4;"/>
        <g transform="matrix(1,0,0,1,420,249.5)">
            <g transform="matrix(18,0,0,18,-23.562,0)">
            </g>
            <g transform="matrix(18,0,0,18,23.346,0)">
            </g>
            <text x="-36.216px" y="0px" style="font-family:'THSarabunNew', 'TH Sarabun New', sans-serif;font-size:18px;">สรางบัญชีใหครู</text>
        </g>
        <path d="M483,128.67C483,124.161 479.339,120.5 474.83,120.5L366.17,120.5C361.661,120.5 358,124.161 358,128.67L358,166.83C358,171.339 361.661,175 366.17,175L474.83,175C479.339,175 483,171.339 483,166.83L483,128.67Z" style="fill:white;stroke:black;stroke-width:1px;stroke-miterlimit:4;"/>
        <g transform="matrix(1,0,0,1,420,152.25)">
            <g transform="matrix(18,0,0,18,-12.51,0)">
            </g>
            <g transform="matrix(18,0,0,18,18.306,0)">
            </g>
            <text x="-25.164px" y="0px" style="font-family:'THSarabunNew', 'TH Sarabun New', sans-serif;font-size:18px;">สรางคอรส</text>
        </g>
        <path d="M420.5,365L420.5,401.38" style="fill:none;fill-rule:nonzero;stroke:black;stroke-width:1px;"/>
        <path d="M420.5,406.63L417,399.63L420.5,401.38L424,399.63L420.5,406.63Z" style="fill-rule:nonzero;stroke:black;stroke-width:1px;"/>
        <path d="M483,318.67C483,314.161 479.339,310.5 474.83,310.5L366.17,310.5C361.661,310.5 358,314.161 358,318.67L358,356.83C358,361.339 361.661,365 366.17,365L474.83,365C479.339,365 483,361.339 483,356.83L483,318.67Z" style="fill:white;stroke:black;stroke-width:1px;stroke-miterlimit:4;"/>
        <g>
            <g transform="matrix(1,0,0,1,420,335.25)">
                <text x="-23.895px" y="0px" style="font-family:'THSarabunNew', 'TH Sarabun New', sans-serif;font-size:18px;">กำหนดครู</text>
            </g>
            <g transform="matrix(1,0,0,1,420,349.25)">
                <g transform="matrix(18,0,0,18,-34.371,0)">
                </g>
                <g transform="matrix(18,0,0,18,34.371,0)">
                </g>
                <text x="-41.229px" y="0px" style="font-family:'THSarabunNew', 'TH Sarabun New', sans-serif;font-size:18px;">ผูรับผิดชอบคอรส</text>
            </g>
        </g>
        <path d="M483,415.92C483,411.411 479.339,407.75 474.83,407.75L366.17,407.75C361.661,407.75 358,411.411 358,415.92L358,454.08C358,458.589 361.661,462.25 366.17,462.25L474.83,462.25C479.339,462.25 483,458.589 483,454.08L483,415.92Z" style="fill:white;stroke:black;stroke-width:1px;stroke-miterlimit:4;"/>
        <g>
            <g transform="matrix(1,0,0,1,420,432.5)">
                <text x="-32.022px" y="0px" style="font-family:'THSarabunNew', 'TH Sarabun New', sans-serif;font-size:18px;">จองเ<tspan x="-9.864px " y="0px ">ว</tspan>ลาเ<tspan x="11.916px " y="0px ">ร</tspan>ียน</text>
            </g>
            <g transform="matrix(1,0,0,1,420,446.5)">
                <g transform="matrix(18,0,0,18,16.02,0)">
                </g>
                <text x="-22.878px" y="0px" style="font-family:'THSarabunNew', 'TH Sarabun New', sans-serif;font-size:18px;">ของคอรส</text>
            </g>
        </g>
        <path d="M483.09,1255.92C483.09,1251.41 479.429,1247.75 474.92,1247.75L366.26,1247.75C361.751,1247.75 358.09,1251.41 358.09,1255.92L358.09,1294.08C358.09,1298.59 361.751,1302.25 366.26,1302.25L474.92,1302.25C479.429,1302.25 483.09,1298.59 483.09,1294.08L483.09,1255.92Z" style="fill:white;stroke:black;stroke-width:1px;stroke-miterlimit:4;"/>
        <g transform="matrix(1,0,0,1,420.09,1279.5)">
            <text x="-15.57px" y="0px" style="font-family:'THSarabunNew', 'TH Sarabun New', sans-serif;font-size:18px;">คืนเงิน</text>
        </g>
        <path d="M420.59,1199.49L420.59,1241.38" style="fill:none;fill-rule:nonzero;stroke:black;stroke-width:1px;"/>
        <path d="M420.59,1246.63L417.09,1239.63L420.59,1241.38L424.09,1239.63L420.59,1246.63Z" style="fill-rule:nonzero;stroke:black;stroke-width:1px;"/>
        <g transform="matrix(1,0,0,1,443.248,1217.06)">
            <g>
                <g transform="matrix(18,0,0,18,4.266,0)">
                </g>
                <text x="-16.524px" y="0px" style="font-family:'THSarabunNew', 'TH Sarabun New', sans-serif;font-size:18px;">ถูกตอง</text>
            </g>
        </g>
        <path d="M420.59,1090.5L495.59,1145L420.59,1199.49L345.59,1145L420.59,1090.5Z" style="fill:white;fill-rule:nonzero;stroke:black;stroke-width:2px;"/>
        <g transform="matrix(1,0,0,1,420.054,1139.88)">
            <g>
                <g>
                    <g transform="matrix(18,0,0,18,40.761,0)">
                    </g>
                    <text x="-53.019px" y="0px" style="font-family:'THSarabunNew', 'TH Sarabun New', sans-serif;font-size:18px;">ตรวจสอบความถูกตอง</text>
                    <text x="-47.322px" y="18px" style="font-family:'THSarabunNew', 'TH Sarabun New', sans-serif;font-size:18px;">หลักฐานการโอนเงิน</text>
                </g>
            </g>
        </g>
        <path d="M495.5,2205L820.5,2205L820.5,1649.5L457.2,1649.5L457.21,1662.59" style="fill:none;fill-rule:nonzero;stroke:black;stroke-width:1px;"/>
        <path d="M457.21,1667.84L453.71,1660.84L457.21,1662.59L460.71,1660.84L457.21,1667.84Z" style="fill-rule:nonzero;stroke:black;stroke-width:1px;"/>
        <g transform="matrix(1,0,0,1,516.45,2199.11)">
            <g>
                <g transform="matrix(18,0,0,18,0.468,0)">
                </g>
                <g transform="matrix(18,0,0,18,11.124,0)">
                </g>
                <text x="-11.124px" y="0px" style="font-family:'THSarabunNew', 'TH Sarabun New', sans-serif;font-size:18px;">ไมใ<tspan x="4.284px " y="0px ">ช</tspan></text>
            </g>
        </g>
        <path d="M420.5,2150.5L495.5,2205L420.5,2259.5L345.5,2205L420.5,2150.5Z" style="fill:white;fill-rule:nonzero;stroke:black;stroke-width:2px;"/>
        <g transform="matrix(1,0,0,1,420.527,2203.45)">
            <g>
                <g>
                    <g transform="matrix(18,0,0,18,52.416,0)">
                    </g>
                    <g transform="matrix(18,0,0,18,52.416,0)">
                    </g>
                    <g transform="matrix(18,0,0,18,52.416,0)">
                    </g>
                    <g transform="matrix(18,0,0,18,52.416,0)">
                    </g>
                    <text x="-57.708px" y="0px" style="font-family:'THSarabunNew', 'TH Sarabun New', sans-serif;font-size:18px;">เ<tspan x="-54.504px " y="0px ">ร</tspan>ียนครบตามจำนวนครั้ง</text>
                    <g transform="matrix(18,0,0,18,16.02,18)">
                    </g>
                    <text x="-22.878px" y="18px" style="font-family:'THSarabunNew', 'TH Sarabun New', sans-serif;font-size:18px;">ของคอรส</text>
                </g>
            </g>
        </g>
        <circle cx="420.5" cy="2873.88" r="21" style="stroke:rgb(255,0,0);stroke-width:1px;stroke-miterlimit:4;"/>
        <circle cx="420.5" cy="2873.88" r="25" style="fill:none;stroke:rgb(255,0,0);stroke-width:1px;stroke-miterlimit:4;"/>
        <path d="M345.59,1145L20.5,1145L20.5,2873.9L389.13,2873.88" style="fill:none;fill-rule:nonzero;stroke:black;stroke-width:1px;"/>
        <path d="M394.38,2873.88L387.38,2877.38L389.13,2873.88L387.38,2870.38L394.38,2873.88Z" style="fill-rule:nonzero;stroke:black;stroke-width:1px;"/>
        <g transform="matrix(1,0,0,1,314.69,1136.37)">
            <g>
                <g transform="matrix(18,0,0,18,-10.728,0)">
                </g>
                <g transform="matrix(18,0,0,18,10.062,0)">
                </g>
                <text x="-22.32px" y="0px" style="font-family:'THSarabunNew', 'TH Sarabun New', sans-serif;font-size:18px;">ไมถูกตอง</text>
            </g>
        </g>
        <path d="M345.59,1435L20.5,1435L20.5,2873.9L389.13,2873.88" style="fill:none;fill-rule:nonzero;stroke:black;stroke-width:1px;"/>
        <path d="M394.38,2873.88L387.38,2877.38L389.13,2873.88L387.38,2870.38L394.38,2873.88Z" style="fill-rule:nonzero;stroke:black;stroke-width:1px;"/>
        <g transform="matrix(1,0,0,1,314.69,1427.45)">
            <g>
                <g transform="matrix(18,0,0,18,-10.728,0)">
                </g>
                <g transform="matrix(18,0,0,18,10.062,0)">
                </g>
                <text x="-22.32px" y="0px" style="font-family:'THSarabunNew', 'TH Sarabun New', sans-serif;font-size:18px;">ไมถูกตอง</text>
            </g>
        </g>
        <path d="M560.5,23.5L560.5,0.5L840.5,0.5L840.5,23.5" style="fill:white;fill-rule:nonzero;stroke:black;stroke-width:1px;"/>
        <path d="M560.5,23.5L560.5,2920.5L840.5,2920.5L840.5,23.5" style="fill:none;fill-rule:nonzero;stroke:black;stroke-width:1px;"/>
        <path d="M560.5,23.5L840.5,23.5" style="fill:none;fill-rule:nonzero;stroke:black;stroke-width:1px;"/>
        <g transform="matrix(1,0,0,1,700,15)">
            <g>
                <text x="-6.588px" y="0px" style="font-family:'THSarabunNew-Bold', 'TH Sarabun New', sans-serif;font-weight:700;font-size:18px;">ครู</text>
            </g>
        </g>
        <path d="M695.25,1750.5L770.25,1805L695.25,1859.5L620.25,1805L695.25,1750.5Z" style="fill:white;fill-rule:nonzero;stroke:black;stroke-width:2px;"/>
        <g transform="matrix(1,0,0,1,695.385,1801.8)">
            <g>
                <g>
                    <g transform="matrix(18,0,0,18,10.44,0)">
                    </g>
                    <text x="-37.512px" y="0px" style="font-family:'THSarabunNew', 'TH Sarabun New', sans-serif;font-size:18px;">สามารถเ<tspan x="3.636px " y="0px ">ข</tspan>าสอน</text>
                    <g transform="matrix(18,0,0,18,26.613,18)">
                    </g>
                    <text x="-26.613px" y="18px" style="font-family:'THSarabunNew', 'TH Sarabun New', sans-serif;font-size:18px;">ตามเ<tspan x="-3.393px " y="18px ">ว</tspan>ลาได</text>
                </g>
            </g>
        </g>
        <path d="M735.13,2536.64C735.13,2532.13 731.469,2528.47 726.96,2528.47L648.8,2528.47C644.291,2528.47 640.63,2532.13 640.63,2536.64L640.63,2574.8C640.63,2579.31 644.291,2582.97 648.8,2582.97L726.96,2582.97C731.469,2582.97 735.13,2579.31 735.13,2574.8L735.13,2536.64Z" style="fill:white;stroke:black;stroke-width:1px;stroke-miterlimit:4;"/>
        <g transform="matrix(1,0,0,1,687.38,2560.21)">
            <text x="-27.612px" y="0px" style="font-family:'THSarabunNew', 'TH Sarabun New', sans-serif;font-size:18px;">รับเงินเดือน</text>
        </g>
        <path d="M700.5,190.5L750.5,245L700.5,299.5L650.5,245L700.5,190.5Z" style="fill:white;fill-rule:nonzero;stroke:black;stroke-width:2px;"/>
        <g transform="matrix(1,0,0,1,700.851,249.284)">
            <g>
                <text x="-38.889px" y="0px" style="font-family:'THSarabunNew', 'TH Sarabun New', sans-serif;font-size:18px;">มีบัญชีของระบบ</text>
            </g>
        </g>
        <path d="M145.75,1859.5L145.8,1977.7L351.63,1977.75" style="fill:none;fill-rule:nonzero;stroke:black;stroke-width:1px;"/>
        <path d="M356.88,1977.75L349.88,1981.25L351.63,1977.75L349.88,1974.25L356.88,1977.75Z" style="fill-rule:nonzero;stroke:black;stroke-width:1px;"/>
        <g transform="matrix(1,0,0,1,163.2,1882.15)">
            <g>
                <g transform="matrix(18,0,0,18,0.081,0)">
                </g>
                <g transform="matrix(18,0,0,18,11.511,0)">
                </g>
                <text x="-11.511px" y="0px" style="font-family:'THSarabunNew', 'TH Sarabun New', sans-serif;font-size:18px;">ไมได</text>
            </g>
        </g>
        <path d="M695.25,1859.5L695.3,1977.7L489.37,1977.75" style="fill:none;fill-rule:nonzero;stroke:black;stroke-width:1px;"/>
        <path d="M484.12,1977.75L491.12,1974.25L489.37,1977.75L491.12,1981.25L484.12,1977.75Z" style="fill-rule:nonzero;stroke:black;stroke-width:1px;"/>
        <g transform="matrix(1,0,0,1,716.047,1882.15)">
            <g>
                <g transform="matrix(18,0,0,18,0.081,0)">
                </g>
                <g transform="matrix(18,0,0,18,11.511,0)">
                </g>
                <text x="-11.511px" y="0px" style="font-family:'THSarabunNew', 'TH Sarabun New', sans-serif;font-size:18px;">ไมได</text>
            </g>
        </g>
        <path d="M457.25,1900.92L457.3,1805L613.88,1805" style="fill:none;fill-rule:nonzero;stroke:black;stroke-width:1px;"/>
        <path d="M619.13,1805L612.13,1808.5L613.88,1805L612.13,1801.5L619.13,1805Z" style="fill-rule:nonzero;stroke:black;stroke-width:1px;"/>
        <path d="M383.75,1900.92L383.8,1805L227.12,1805" style="fill:none;fill-rule:nonzero;stroke:black;stroke-width:1px;"/>
        <path d="M221.87,1805L228.87,1801.5L227.12,1805L228.87,1808.5L221.87,1805Z" style="fill-rule:nonzero;stroke:black;stroke-width:1px;"/>
        <path d="M540.5,2555.72L634.26,2555.72" style="fill:none;fill-rule:nonzero;stroke:black;stroke-width:1px;"/>
        <path d="M639.51,2555.71L632.51,2559.22L634.26,2555.72L632.51,2552.22L639.51,2555.71Z" style="fill-rule:nonzero;stroke:black;stroke-width:1px;"/>
        <path d="M300.5,2555.72L189.25,2555.71" style="fill:none;fill-rule:nonzero;stroke:black;stroke-width:1px;"/>
        <path d="M184,2555.71L191,2552.22L189.25,2555.71L191,2559.22L184,2555.71Z" style="fill-rule:nonzero;stroke:black;stroke-width:1px;"/>
        <path d="M383.71,1679.86L383.7,1715.2L145.8,1715.2L145.76,1744.14" style="fill:none;fill-rule:nonzero;stroke:black;stroke-width:1px;"/>
        <path d="M145.75,1749.39L142.26,1742.38L145.76,1744.14L149.26,1742.39L145.75,1749.39Z" style="fill-rule:nonzero;stroke:black;stroke-width:1px;"/>
        <path d="M457.21,1679.86L457.2,1715.2L695.3,1715.2L695.26,1744.14" style="fill:none;fill-rule:nonzero;stroke:black;stroke-width:1px;"/>
        <path d="M695.25,1749.39L691.76,1742.38L695.26,1744.14L698.76,1742.39L695.25,1749.39Z" style="fill-rule:nonzero;stroke:black;stroke-width:1px;"/>
        <path d="M135.63,2582.96L135.6,2738.5L383.5,2738.5L383.5,2760.5L383.66,2772.58" style="fill:none;fill-rule:nonzero;stroke:black;stroke-width:1px;"/>
        <path d="M383.73,2777.83L380.14,2770.88L383.66,2772.58L387.14,2770.78L383.73,2777.83Z" style="fill-rule:nonzero;stroke:black;stroke-width:1px;"/>
        <path d="M687.88,2582.96L687.9,2738.5L457.5,2738.5L457.5,2770.5L457.44,2772.58" style="fill:none;fill-rule:nonzero;stroke:black;stroke-width:1px;"/>
        <path d="M457.28,2777.83L453.99,2770.73L457.44,2772.58L460.99,2770.94L457.28,2777.83Z" style="fill-rule:nonzero;stroke:black;stroke-width:1px;"/>
        <path d="M650.5,245L489.37,245" style="fill:none;fill-rule:nonzero;stroke:black;stroke-width:1px;"/>
        <path d="M484.12,245L491.12,241.5L489.37,245L491.12,248.5L484.12,245Z" style="fill-rule:nonzero;stroke:black;stroke-width:1px;"/>
        <g transform="matrix(1,0,0,1,632.07,240.908)">
            <g>
                <g transform="matrix(18,0,0,18,2.196,0)">
                </g>
                <text x="-9.396px" y="0px" style="font-family:'THSarabunNew', 'TH Sarabun New', sans-serif;font-size:18px;">ไมมี</text>
            </g>
        </g>
        <path d="M483,147.75L700.5,147.8L700.5,184.13" style="fill:none;fill-rule:nonzero;stroke:black;stroke-width:1px;"/>
        <path d="M700.5,189.38L697,182.38L700.5,184.13L704,182.38L700.5,189.38Z" style="fill-rule:nonzero;stroke:black;stroke-width:1px;"/>
        <path d="M700.5,299.5L700.5,337.8L489.37,337.75" style="fill:none;fill-rule:nonzero;stroke:black;stroke-width:1px;"/>
        <path d="M484.12,337.75L491.12,334.25L489.37,337.75L491.12,341.25L484.12,337.75Z" style="fill-rule:nonzero;stroke:black;stroke-width:1px;"/>
        <g transform="matrix(1,0,0,1,710.613,317.309)">
            <g>
                <text x="-3.6px" y="0px" style="font-family:'THSarabunNew', 'TH Sarabun New', sans-serif;font-size:18px;">มี</text>
            </g>
        </g>
        <path d="M358,435L196.87,435" style="fill:none;fill-rule:nonzero;stroke:black;stroke-width:1px;"/>
        <path d="M191.62,435L198.62,431.5L196.87,435L198.62,438.5L191.62,435Z" style="fill-rule:nonzero;stroke:black;stroke-width:1px;"/>
        <path d="M358.09,1275L209.46,1275" style="fill:none;fill-rule:nonzero;stroke:black;stroke-width:1px;"/>
        <path d="M204.21,1275L211.21,1271.5L209.46,1275L211.21,1278.5L204.21,1275Z" style="fill-rule:nonzero;stroke:black;stroke-width:1px;"/>
        <path d="M203,1027.75L420.6,1027.7L420.59,1084.13" style="fill:none;fill-rule:nonzero;stroke:black;stroke-width:1px;"/>
        <path d="M420.59,1089.38L417.09,1082.38L420.59,1084.13L424.09,1082.38L420.59,1089.38Z" style="fill-rule:nonzero;stroke:black;stroke-width:1px;"/>
        <path d="M215.5,895L520.5,895L520.5,1350.5L420.6,1350.5L420.59,1374.13" style="fill:none;fill-rule:nonzero;stroke:black;stroke-width:1px;"/>
        <path d="M420.59,1379.38L417.09,1372.38L420.59,1374.13L424.09,1372.38L420.59,1379.38Z" style="fill-rule:nonzero;stroke:black;stroke-width:1px;"/>
        <g transform="matrix(1,0,0,1,240.392,888.182)">
            <g>
                <text x="-18.585px" y="0px" style="font-family:'THSarabunNew', 'TH Sarabun New', sans-serif;font-size:18px;">ทันเ<tspan x="0.009px " y="0px ">ว</tspan>ลา</text>
            </g>
        </g>
        <path d="M140.59,1302.25L140.6,1340.5L20.5,1340.5L20.5,2873.9L389.13,2873.88" style="fill:none;fill-rule:nonzero;stroke:black;stroke-width:1px;"/>
        <path d="M394.38,2873.88L387.38,2877.38L389.13,2873.88L387.38,2870.38L394.38,2873.88Z" style="fill-rule:nonzero;stroke:black;stroke-width:1px;"/>
        <path d="M70.75,1805L40.5,1805L40.5,2060.5L383.8,2060.5L383.76,2085.01" style="fill:none;fill-rule:nonzero;stroke:black;stroke-width:1px;"/>
        <path d="M383.75,2090.26L380.26,2083.25L383.76,2085.01L387.26,2083.26L383.75,2090.26Z" style="fill-rule:nonzero;stroke:black;stroke-width:1px;"/>
        <g transform="matrix(1,0,0,1,56.4852,1801.4)">
            <g>
                <g transform="matrix(18,0,0,18,5.715,0)">
                </g>
                <text x="-5.715px" y="0px" style="font-family:'THSarabunNew', 'TH Sarabun New', sans-serif;font-size:18px;">ได</text>
            </g>
        </g>
        <path d="M770.25,1805L800.5,1805L800.5,2060.5L457.3,2060.5L457.26,2085.01" style="fill:none;fill-rule:nonzero;stroke:black;stroke-width:1px;"/>
        <path d="M457.25,2090.26L453.76,2083.25L457.26,2085.01L460.76,2083.26L457.25,2090.26Z" style="fill-rule:nonzero;stroke:black;stroke-width:1px;"/>
        <g transform="matrix(1,0,0,1,785.585,1801.4)">
            <g>
                <g transform="matrix(18,0,0,18,5.715,0)">
                </g>
                <text x="-5.715px" y="0px" style="font-family:'THSarabunNew', 'TH Sarabun New', sans-serif;font-size:18px;">ได</text>
            </g>
        </g>
    </g>
</svg>
