<?xml version="1.0" encoding="UTF-8" standalone="no"?><svg xmlns="http://www.w3.org/2000/svg" xmlns:xlink="http://www.w3.org/1999/xlink" contentStyleType="text/css" height="817px" preserveAspectRatio="none" style="width:965px;height:817px;background:#FFFFFF;" version="1.1" viewBox="0 0 965 817" width="965px" zoomAndPan="magnify"><defs/><g><rect fill="none" height="28.2" id="_title" style="stroke:none;stroke-width:1.0;" width="141" x="405" y="5"/><text fill="#000000" font-family="Sarabun" font-size="14" font-weight="bold" lengthAdjust="spacing" textLength="131" x="410" y="24.952">Component Diagram</text><!--MD5=[fee662a292a0353a69bd162820bae93b]
entity User--><g id="elem_User"><rect fill="#F1F1F1" height="48.2" rx="2.5" ry="2.5" style="stroke:#181818;stroke-width:0.5;" width="67" x="171.5" y="264.6"/><rect fill="#F1F1F1" height="10" style="stroke:#181818;stroke-width:0.5;" width="15" x="218.5" y="269.6"/><rect fill="#F1F1F1" height="2" style="stroke:#181818;stroke-width:0.5;" width="4" x="216.5" y="271.6"/><rect fill="#F1F1F1" height="2" style="stroke:#181818;stroke-width:0.5;" width="4" x="216.5" y="275.6"/><text fill="#000000" font-family="Sarabun" font-size="14" lengthAdjust="spacing" textLength="27" x="186.5" y="299.552">User</text></g><!--MD5=[65386ae39c85d7e5283262116f396e5c]
entity StaffController--><g id="elem_StaffController"><rect fill="#F1F1F1" height="48.2" rx="2.5" ry="2.5" style="stroke:#181818;stroke-width:0.5;" width="131" x="256.5" y="404.8"/><rect fill="#F1F1F1" height="10" style="stroke:#181818;stroke-width:0.5;" width="15" x="367.5" y="409.8"/><rect fill="#F1F1F1" height="2" style="stroke:#181818;stroke-width:0.5;" width="4" x="365.5" y="411.8"/><rect fill="#F1F1F1" height="2" style="stroke:#181818;stroke-width:0.5;" width="4" x="365.5" y="415.8"/><text fill="#000000" font-family="Sarabun" font-size="14" lengthAdjust="spacing" textLength="91" x="271.5" y="439.752">StaffController</text></g><!--MD5=[05577095657396f9d4581bc91886fc8f]
entity Course--><g id="elem_Course"><rect fill="#F1F1F1" height="48.2" rx="2.5" ry="2.5" style="stroke:#181818;stroke-width:0.5;" width="82" x="47" y="264.6"/><rect fill="#F1F1F1" height="10" style="stroke:#181818;stroke-width:0.5;" width="15" x="109" y="269.6"/><rect fill="#F1F1F1" height="2" style="stroke:#181818;stroke-width:0.5;" width="4" x="107" y="271.6"/><rect fill="#F1F1F1" height="2" style="stroke:#181818;stroke-width:0.5;" width="4" x="107" y="275.6"/><text fill="#000000" font-family="Sarabun" font-size="14" lengthAdjust="spacing" textLength="42" x="62" y="299.552">Course</text></g><!--MD5=[ab921963541db960270a109b1d3d0a50]
entity Enrollment--><g id="elem_Enrollment"><rect fill="#F1F1F1" height="48.2" rx="2.5" ry="2.5" style="stroke:#181818;stroke-width:0.5;" width="109" x="553.5" y="264.6"/><rect fill="#F1F1F1" height="10" style="stroke:#181818;stroke-width:0.5;" width="15" x="642.5" y="269.6"/><rect fill="#F1F1F1" height="2" style="stroke:#181818;stroke-width:0.5;" width="4" x="640.5" y="271.6"/><rect fill="#F1F1F1" height="2" style="stroke:#181818;stroke-width:0.5;" width="4" x="640.5" y="275.6"/><text fill="#000000" font-family="Sarabun" font-size="14" lengthAdjust="spacing" textLength="69" x="568.5" y="299.552">Enrollment</text></g><!--MD5=[cff3609d6602d4c1ed7734fa70882660]
entity Timeslot--><g id="elem_Timeslot"><rect fill="#F1F1F1" height="48.2" rx="2.5" ry="2.5" style="stroke:#181818;stroke-width:0.5;" width="93" x="273.5" y="264.6"/><rect fill="#F1F1F1" height="10" style="stroke:#181818;stroke-width:0.5;" width="15" x="346.5" y="269.6"/><rect fill="#F1F1F1" height="2" style="stroke:#181818;stroke-width:0.5;" width="4" x="344.5" y="271.6"/><rect fill="#F1F1F1" height="2" style="stroke:#181818;stroke-width:0.5;" width="4" x="344.5" y="275.6"/><text fill="#000000" font-family="Sarabun" font-size="14" lengthAdjust="spacing" textLength="53" x="288.5" y="299.552">Timeslot</text></g><!--MD5=[44f3a52d59c3025b4db95949c7e65026]
entity UserRequest--><g id="elem_UserRequest"><rect fill="#F1F1F1" height="48.2" rx="2.5" ry="2.5" style="stroke:#181818;stroke-width:0.5;" width="116" x="402" y="264.6"/><rect fill="#F1F1F1" height="10" style="stroke:#181818;stroke-width:0.5;" width="15" x="498" y="269.6"/><rect fill="#F1F1F1" height="2" style="stroke:#181818;stroke-width:0.5;" width="4" x="496" y="271.6"/><rect fill="#F1F1F1" height="2" style="stroke:#181818;stroke-width:0.5;" width="4" x="496" y="275.6"/><text fill="#000000" font-family="Sarabun" font-size="14" lengthAdjust="spacing" textLength="76" x="417" y="299.552">UserRequest</text></g><!--MD5=[72f9e91ef33e5796de31506d898bd6e3]
entity Receipt--><g id="elem_Receipt"><rect fill="#F1F1F1" height="48.2" rx="2.5" ry="2.5" style="stroke:#181818;stroke-width:0.5;" width="85" x="690.5" y="654.2"/><rect fill="#F1F1F1" height="10" style="stroke:#181818;stroke-width:0.5;" width="15" x="755.5" y="659.2"/><rect fill="#F1F1F1" height="2" style="stroke:#181818;stroke-width:0.5;" width="4" x="753.5" y="661.2"/><rect fill="#F1F1F1" height="2" style="stroke:#181818;stroke-width:0.5;" width="4" x="753.5" y="665.2"/><text fill="#000000" font-family="Sarabun" font-size="14" lengthAdjust="spacing" textLength="45" x="705.5" y="689.152">Receipt</text></g><!--MD5=[b0409e5c3682df0773313caf4fc6fe9c]
entity TeacherController--><g id="elem_TeacherController"><rect fill="#F1F1F1" height="48.2" rx="2.5" ry="2.5" style="stroke:#181818;stroke-width:0.5;" width="151" x="129.5" y="155.4"/><rect fill="#F1F1F1" height="10" style="stroke:#181818;stroke-width:0.5;" width="15" x="260.5" y="160.4"/><rect fill="#F1F1F1" height="2" style="stroke:#181818;stroke-width:0.5;" width="4" x="258.5" y="162.4"/><rect fill="#F1F1F1" height="2" style="stroke:#181818;stroke-width:0.5;" width="4" x="258.5" y="166.4"/><text fill="#000000" font-family="Sarabun" font-size="14" lengthAdjust="spacing" textLength="111" x="144.5" y="190.352">TeacherController</text></g><!--MD5=[9e6f260a02182dc4495be0746f2bfef2]
entity StudentController--><g id="elem_StudentController"><rect fill="#F1F1F1" height="48.2" rx="2.5" ry="2.5" style="stroke:#181818;stroke-width:0.5;" width="150" x="364" y="46.2"/><rect fill="#F1F1F1" height="10" style="stroke:#181818;stroke-width:0.5;" width="15" x="494" y="51.2"/><rect fill="#F1F1F1" height="2" style="stroke:#181818;stroke-width:0.5;" width="4" x="492" y="53.2"/><rect fill="#F1F1F1" height="2" style="stroke:#181818;stroke-width:0.5;" width="4" x="492" y="57.2"/><text fill="#000000" font-family="Sarabun" font-size="14" lengthAdjust="spacing" textLength="110" x="379" y="81.152">StudentController</text></g><!--MD5=[295e7f979b0f2f51125e70a714eb5aaf]
entity UserController--><g id="elem_UserController"><rect fill="#F1F1F1" height="48.2" rx="2.5" ry="2.5" style="stroke:#181818;stroke-width:0.5;" width="129" x="139.5" y="545"/><rect fill="#F1F1F1" height="10" style="stroke:#181818;stroke-width:0.5;" width="15" x="248.5" y="550"/><rect fill="#F1F1F1" height="2" style="stroke:#181818;stroke-width:0.5;" width="4" x="246.5" y="552"/><rect fill="#F1F1F1" height="2" style="stroke:#181818;stroke-width:0.5;" width="4" x="246.5" y="556"/><text fill="#000000" font-family="Sarabun" font-size="14" lengthAdjust="spacing" textLength="89" x="154.5" y="579.952">UserController</text></g><!--MD5=[309edd467eda01668817ab7eeb9b9d37]
entity RegisterController--><g id="elem_RegisterController"><rect fill="#F1F1F1" height="48.2" rx="2.5" ry="2.5" style="stroke:#181818;stroke-width:0.5;" width="151" x="128.5" y="654.2"/><rect fill="#F1F1F1" height="10" style="stroke:#181818;stroke-width:0.5;" width="15" x="259.5" y="659.2"/><rect fill="#F1F1F1" height="2" style="stroke:#181818;stroke-width:0.5;" width="4" x="257.5" y="661.2"/><rect fill="#F1F1F1" height="2" style="stroke:#181818;stroke-width:0.5;" width="4" x="257.5" y="665.2"/><text fill="#000000" font-family="Sarabun" font-size="14" lengthAdjust="spacing" textLength="111" x="143.5" y="689.152">RegisterController</text></g><!--MD5=[4311e52da72cc76b162ca38c05be05a6]
entity CourseController--><g id="elem_CourseController"><rect fill="#F1F1F1" height="48.2" rx="2.5" ry="2.5" style="stroke:#181818;stroke-width:0.5;" width="144" x="7" y="404.8"/><rect fill="#F1F1F1" height="10" style="stroke:#181818;stroke-width:0.5;" width="15" x="131" y="409.8"/><rect fill="#F1F1F1" height="2" style="stroke:#181818;stroke-width:0.5;" width="4" x="129" y="411.8"/><rect fill="#F1F1F1" height="2" style="stroke:#181818;stroke-width:0.5;" width="4" x="129" y="415.8"/><text fill="#000000" font-family="Sarabun" font-size="14" lengthAdjust="spacing" textLength="104" x="22" y="439.752">CourseController</text></g><!--MD5=[488b0a924aaea61e634ccc63170dd781]
entity EnrollmentController--><g id="elem_EnrollmentController"><rect fill="#F1F1F1" height="48.2" rx="2.5" ry="2.5" style="stroke:#181818;stroke-width:0.5;" width="171" x="422.5" y="404.8"/><rect fill="#F1F1F1" height="10" style="stroke:#181818;stroke-width:0.5;" width="15" x="573.5" y="409.8"/><rect fill="#F1F1F1" height="2" style="stroke:#181818;stroke-width:0.5;" width="4" x="571.5" y="411.8"/><rect fill="#F1F1F1" height="2" style="stroke:#181818;stroke-width:0.5;" width="4" x="571.5" y="415.8"/><text fill="#000000" font-family="Sarabun" font-size="14" lengthAdjust="spacing" textLength="131" x="437.5" y="439.752">EnrollmentController</text></g><!--MD5=[3f601020e68516507da5d852656645b2]
entity PaymentController--><g id="elem_PaymentController"><rect fill="#F1F1F1" height="48.2" rx="2.5" ry="2.5" style="stroke:#181818;stroke-width:0.5;" width="155" x="655.5" y="763.4"/><rect fill="#F1F1F1" height="10" style="stroke:#181818;stroke-width:0.5;" width="15" x="790.5" y="768.4"/><rect fill="#F1F1F1" height="2" style="stroke:#181818;stroke-width:0.5;" width="4" x="788.5" y="770.4"/><rect fill="#F1F1F1" height="2" style="stroke:#181818;stroke-width:0.5;" width="4" x="788.5" y="774.4"/><text fill="#000000" font-family="Sarabun" font-size="14" lengthAdjust="spacing" textLength="115" x="670.5" y="798.352">PaymentController</text></g><!--MD5=[d9d9065f5a40c09d867e109f2c8b0a3a]
reverse link User to StaffController--><g id="link_User_StaffController"><path d="M229.02,318.08 C250.58,343.54 281.85,380.47 302.06,404.34 " fill="none" id="User-backto-StaffController" style="stroke:#181818;stroke-width:1.0;stroke-dasharray:7.0,7.0;"/><polygon fill="#181818" points="225.83,314.3,228.6121,323.7477,229.0687,318.1093,234.7071,318.5659,225.83,314.3" style="stroke:#181818;stroke-width:1.0;"/></g><!--MD5=[f2cff43ebe1eec8e43cca1cb30b4422b]
reverse link Course to StaffController--><g id="link_Course_StaffController"><path d="M133.11,316.34 C176.28,341.84 240.77,379.93 282.11,404.34 " fill="none" id="Course-backto-StaffController" style="stroke:#181818;stroke-width:1.0;stroke-dasharray:7.0,7.0;"/><polygon fill="#181818" points="129,313.91,134.7107,321.9342,133.3038,316.4551,138.7829,315.0481,129,313.91" style="stroke:#181818;stroke-width:1.0;"/></g><!--MD5=[569009c9ec4c398b047ed0a2cf45c63a]
reverse link Enrollment to StaffController--><g id="link_Enrollment_StaffController"><path d="M553.83,315.88 C501.06,341.37 421.59,379.78 370.75,404.34 " fill="none" id="Enrollment-backto-StaffController" style="stroke:#181818;stroke-width:1.0;stroke-dasharray:7.0,7.0;"/><polygon fill="#181818" points="558.12,313.8,548.276,314.1088,553.6169,315.9729,551.7527,321.3138,558.12,313.8" style="stroke:#181818;stroke-width:1.0;"/></g><!--MD5=[f1fefd8cdd8c75538b2c0de96635cc5e]
reverse link Timeslot to StaffController--><g id="link_Timeslot_StaffController"><path d="M320.43,319.36 C320.8,344.77 321.32,380.87 321.66,404.34 " fill="none" id="Timeslot-backto-StaffController" style="stroke:#181818;stroke-width:1.0;stroke-dasharray:7.0,7.0;"/><polygon fill="#181818" points="320.36,314.66,316.489,323.7162,320.4314,319.6595,324.4882,323.6019,320.36,314.66" style="stroke:#181818;stroke-width:1.0;"/></g><!--MD5=[bb3677843f7f48d9c95779b21b71cbe8]
reverse link UserRequest to StaffController--><g id="link_UserRequest_StaffController"><path d="M432.3,317.44 C406.85,342.92 369.56,380.28 345.52,404.34 " fill="none" id="UserRequest-backto-StaffController" style="stroke:#181818;stroke-width:1.0;stroke-dasharray:7.0,7.0;"/><polygon fill="#181818" points="435.52,314.21,426.3348,317.7641,431.9916,317.7527,432.003,323.4095,435.52,314.21" style="stroke:#181818;stroke-width:1.0;"/></g><!--MD5=[6b13bff97c4d8fa8d2cce20bb624fed0]
link Enrollment to Receipt--><g id="link_Enrollment_Receipt"><path d="M609.1,313.04 C611.64,354.65 619.68,443.99 644,515 C662.02,567.59 696.33,623.22 716.68,653.77 " fill="none" id="Enrollment-Receipt" style="stroke:#181818;stroke-width:1.0;"/><text fill="#000000" font-family="Sarabun" font-size="13" lengthAdjust="spacing" textLength="133" x="652" y="504.884">ReceiptCreationService</text><path d="M648.3985,506.0193 A10,10 0 0 0 635.0193 510.6015" fill="none" style="stroke:#181818;stroke-width:1.5;"/><ellipse cx="644" cy="515" fill="#FFFFFF" rx="6" ry="6" style="stroke:#181818;stroke-width:1.5;"/></g><!--MD5=[eaac62ae164058a1d4bb1b38deacb69c]
link TeacherController to User--><g id="link_TeacherController_User"><path d="M205,204.03 C205,219.94 205,241.1 205,258.15 " fill="none" id="TeacherController-to-User" style="stroke:#181818;stroke-width:1.0;stroke-dasharray:7.0,7.0;"/><polygon fill="#181818" points="205,262.72,209,253.72,205,257.72,201,253.72,205,262.72" style="stroke:#181818;stroke-width:1.0;"/></g><!--MD5=[648584b00b1f88a0fb75e3158c83d2fc]
link TeacherController to Course--><g id="link_TeacherController_Course"><path d="M179.32,204.03 C161.34,220.5 137.24,242.59 118.31,259.93 " fill="none" id="TeacherController-to-Course" style="stroke:#181818;stroke-width:1.0;stroke-dasharray:7.0,7.0;"/><polygon fill="#181818" points="114.73,263.21,124.0706,260.0869,118.4193,259.8353,118.671,254.184,114.73,263.21" style="stroke:#181818;stroke-width:1.0;"/></g><!--MD5=[7d78c781e8252955222333cbfaa0e77c]
link TeacherController to Timeslot--><g id="link_TeacherController_Timeslot"><path d="M230.24,204.03 C247.91,220.5 271.6,242.59 290.21,259.93 " fill="none" id="TeacherController-to-Timeslot" style="stroke:#181818;stroke-width:1.0;stroke-dasharray:7.0,7.0;"/><polygon fill="#181818" points="293.71,263.2,289.861,254.1344,290.0552,259.7879,284.4017,259.9821,293.71,263.2" style="stroke:#181818;stroke-width:1.0;"/></g><!--MD5=[a7507fc74ed88d483ff67faf7f975cea]
link StudentController to User--><g id="link_StudentController_User"><path d="M414.17,94.86 C386.1,121.43 338.98,165.85 298,203.6 C277.34,222.63 253.87,243.85 235.68,260.21 " fill="none" id="StudentController-to-User" style="stroke:#181818;stroke-width:1.0;stroke-dasharray:7.0,7.0;"/><polygon fill="#181818" points="232.3,263.25,241.6655,260.2025,236.0165,259.9052,236.3138,254.2561,232.3,263.25" style="stroke:#181818;stroke-width:1.0;"/></g><!--MD5=[defaa936f90818f4353911648dcaa04a]
link StudentController to Course--><g id="link_StudentController_Course"><path d="M363.82,81.16 C278.22,93.95 145.84,119.03 112,155.4 C86.43,182.89 83.51,228.06 84.88,257.84 " fill="none" id="StudentController-to-Course" style="stroke:#181818;stroke-width:1.0;stroke-dasharray:7.0,7.0;"/><polygon fill="#181818" points="85.17,262.81,88.65,253.5965,84.8848,257.8181,80.6631,254.0529,85.17,262.81" style="stroke:#181818;stroke-width:1.0;"/></g><!--MD5=[6860d3e6333f43bd263d898b45bc5b64]
link StudentController to Enrollment--><g id="link_StudentController_Enrollment"><path d="M457.41,94.87 C488.65,134.87 551.93,215.9 585.65,259.08 " fill="none" id="StudentController-to-Enrollment" style="stroke:#181818;stroke-width:1.0;stroke-dasharray:7.0,7.0;"/><polygon fill="#181818" points="588.68,262.97,586.3048,253.4119,585.6073,259.0255,579.9936,258.3281,588.68,262.97" style="stroke:#181818;stroke-width:1.0;"/></g><!--MD5=[da47b2a3b2396fe6136a7c5f18f1e89e]
link StudentController to UserRequest--><g id="link_StudentController_UserRequest"><path d="M441.29,94.87 C445.13,134.46 452.87,214.25 457.09,257.76 " fill="none" id="StudentController-to-UserRequest" style="stroke:#181818;stroke-width:1.0;stroke-dasharray:7.0,7.0;"/><polygon fill="#181818" points="457.57,262.65,460.705,253.3134,457.0993,257.6722,452.7405,254.0665,457.57,262.65" style="stroke:#181818;stroke-width:1.0;"/></g><!--MD5=[a8f5cfc63d60a28034834cff7013bdfb]
link StudentController to Timeslot--><g id="link_StudentController_Timeslot"><path d="M429.12,94.7 C415.11,127.04 387.95,186.8 359,234.6 C354.04,242.79 348.16,251.3 342.48,259.04 " fill="none" id="StudentController-to-Timeslot" style="stroke:#181818;stroke-width:1.0;stroke-dasharray:7.0,7.0;"/><polygon fill="#181818" points="339.5,263.05,348.0696,258.196,342.4748,259.0312,341.6395,253.4363,339.5,263.05" style="stroke:#181818;stroke-width:1.0;"/></g><!--MD5=[9a32910c7ea8b21d1ca1576bb1b46a42]
link Receipt to StudentController--><g id="link_Receipt_StudentController"><path d="M767.48,653.83 C791.41,634.49 819,604.7 819,570.1 C819,178.5 819,178.5 819,178.5 C819,115.78 624.82,87.95 514.08,77.18 " fill="none" id="Receipt-StudentController" style="stroke:#181818;stroke-width:1.0;"/><text fill="#000000" font-family="Sarabun" font-size="13" lengthAdjust="spacing" textLength="130" x="827" y="364.684">PDFEasy (Nuxt Module)</text><path d="M826.0711,220.3789 A10,10 0 0 0 811.9289 220.3789" fill="none" style="stroke:#181818;stroke-width:1.5;"/><ellipse cx="819" cy="227.45" fill="#FFFFFF" rx="6" ry="6" style="stroke:#181818;stroke-width:1.5;"/></g><!--MD5=[0f0c981ea9f3fc3e9ced3745ad0a971f]
reverse link User to UserController--><g id="link_User_UserController"><path d="M204.89,319.43 C204.69,375.16 204.27,494.24 204.08,544.71 " fill="none" id="User-backto-UserController" style="stroke:#181818;stroke-width:1.0;stroke-dasharray:7.0,7.0;"/><polygon fill="#181818" points="204.91,314.47,200.8586,323.447,204.8814,319.4699,208.8585,323.4927,204.91,314.47" style="stroke:#181818;stroke-width:1.0;"/></g><!--MD5=[47806cddc505b9ba7de50e3b99dccbd4]
reverse link UserController to RegisterController--><g id="link_UserController_RegisterController"><path d="M204,599.71 C204,616.77 204,637.92 204,653.83 " fill="none" id="UserController-backto-RegisterController" style="stroke:#181818;stroke-width:1.0;stroke-dasharray:7.0,7.0;"/><polygon fill="#181818" points="204,595.14,200,604.14,204,600.14,208,604.14,204,595.14" style="stroke:#181818;stroke-width:1.0;"/></g><!--MD5=[6a2df142c3a0bc45671308eb8762e9c7]
reverse link Course to CourseController--><g id="link_Course_CourseController"><path d="M86.07,319.36 C84.41,344.77 82.06,380.87 80.53,404.34 " fill="none" id="Course-backto-CourseController" style="stroke:#181818;stroke-width:1.0;stroke-dasharray:7.0,7.0;"/><polygon fill="#181818" points="86.37,314.65,81.7885,323.3683,86.0421,319.6392,89.7712,323.8929,86.37,314.65" style="stroke:#181818;stroke-width:1.0;"/></g><!--MD5=[4a30fe78072d9e32d94bddb5b546d109]
reverse link Enrollment to EnrollmentController--><g id="link_Enrollment_EnrollmentController"><path d="M587.24,318.4 C568.82,343.85 542.24,380.57 525.05,404.34 " fill="none" id="Enrollment-backto-EnrollmentController" style="stroke:#181818;stroke-width:1.0;stroke-dasharray:7.0,7.0;"/><polygon fill="#181818" points="590.15,314.37,581.6277,319.3067,587.2142,318.4174,588.1035,324.0039,590.15,314.37" style="stroke:#181818;stroke-width:1.0;"/></g><!--MD5=[8edba106d788733827e2e981765bb8e9]
reverse link Receipt to PaymentController--><g id="link_Receipt_PaymentController"><path d="M733,708.91 C733,725.97 733,747.12 733,763.03 " fill="none" id="Receipt-backto-PaymentController" style="stroke:#181818;stroke-width:1.0;stroke-dasharray:7.0,7.0;"/><polygon fill="#181818" points="733,704.34,729,713.34,733,709.34,737,713.34,733,704.34" style="stroke:#181818;stroke-width:1.0;"/></g><!--MD5=[d5b2a02960bc14a1cf583a0c5a029227]
@startuml
skinparam {
    monochrome true
    defaultFontName Sarabun
}

title Component Diagram

[User] <.. [StaffController]
[Course] <.. [StaffController]
[Enrollment] <.. [StaffController]
[Timeslot] <.. [StaffController]
[UserRequest] <.. [StaffController]

[Enrollment] - -(0- - [Receipt]: ReceiptCreationService

[TeacherController] ..> [User]
[TeacherController] ..> [Course]
[TeacherController] ..> [Timeslot]

[StudentController] ...> [User]
[StudentController] ...> [Course]
[StudentController] ...> [Enrollment]
[StudentController] ...> [UserRequest]
[StudentController] ...> [Timeslot]

[Receipt] -0)- [StudentController]: PDFEasy (Nuxt Module)

[User] <... [UserController]
[UserController] <.. [RegisterController]
[Course] <.. [CourseController]
[Enrollment] <.. [EnrollmentController]
[Receipt] <.. [PaymentController]
@enduml

PlantUML version 1.2022.7(Tue Aug 23 00:01:30 ICT 2022)
(GPL source distribution)
Java Runtime: OpenJDK Runtime Environment
JVM: OpenJDK 64-Bit Server VM
Default Encoding: UTF-8
Language: en
Country: TH
--></g></svg>