<?xml version="1.0" encoding="UTF-8" standalone="no"?><svg xmlns="http://www.w3.org/2000/svg" xmlns:xlink="http://www.w3.org/1999/xlink" contentStyleType="text/css" height="1302px" preserveAspectRatio="none" style="width:1054px;height:1302px;background:#FFFFFF;" version="1.1" viewBox="0 0 1054 1302" width="1054px" zoomAndPan="magnify"><defs/><g><rect fill="none" height="28.2" id="_title" style="stroke:none;stroke-width:1.0;" width="141" x="449.5" y="5"/><text fill="#000000" font-family="Sarabun" font-size="14" font-weight="bold" lengthAdjust="spacing" textLength="131" x="454.5" y="24.952">Component Diagram</text><!--MD5=[e8f3788ad7b97e8de68b4194558bc2a1]
cluster db--><g id="cluster_db"><rect fill="none" height="73" rx="2.5" ry="2.5" style="stroke:#181818;stroke-width:1.0;" width="110" x="712" y="46.2"/><rect fill="none" height="10" style="stroke:#181818;stroke-width:1.0;" width="15" x="802" y="51.2"/><rect fill="none" height="2" style="stroke:#181818;stroke-width:1.0;" width="4" x="800" y="53.2"/><rect fill="none" height="2" style="stroke:#181818;stroke-width:1.0;" width="4" x="800" y="57.2"/><text fill="#000000" font-family="Sarabun" font-size="14" font-weight="bold" lengthAdjust="spacing" textLength="62" x="736" y="74.152">:Database</text></g><!--MD5=[50093eb77a31ed1c6cfcedfdeb891791]
cluster ws--><g id="cluster_ws"><rect fill="none" height="447.6" rx="2.5" ry="2.5" style="stroke:#181818;stroke-width:1.0;" width="879" x="7" y="316.2"/><rect fill="none" height="10" style="stroke:#181818;stroke-width:1.0;" width="15" x="866" y="321.2"/><rect fill="none" height="2" style="stroke:#181818;stroke-width:1.0;" width="4" x="864" y="323.2"/><rect fill="none" height="2" style="stroke:#181818;stroke-width:1.0;" width="4" x="864" y="327.2"/><text fill="#000000" font-family="Sarabun" font-size="14" font-weight="bold" lengthAdjust="spacing" textLength="75" x="409" y="344.152">:WebServer</text></g><!--MD5=[05d7c20c4cc3124d6eca689186be5825]
cluster EnrollmentProcessing--><g id="cluster_EnrollmentProcessing"><rect fill="none" height="117.2" rx="2.5" ry="2.5" style="stroke:#181818;stroke-width:1.0;" width="214" x="452" y="393.2"/><rect fill="none" height="10" style="stroke:#181818;stroke-width:1.0;" width="15" x="646" y="398.2"/><rect fill="none" height="2" style="stroke:#181818;stroke-width:1.0;" width="4" x="644" y="400.2"/><rect fill="none" height="2" style="stroke:#181818;stroke-width:1.0;" width="4" x="644" y="404.2"/><text fill="#000000" font-family="Sarabun" font-size="14" font-weight="bold" lengthAdjust="spacing" textLength="141" x="488.5" y="421.152">EnrollmentProcessing</text></g><!--MD5=[56abe3a538bf1ddd00656e73c7f3952c]
cluster wb--><g id="cluster_wb"><rect fill="none" height="336.4" rx="2.5" ry="2.5" style="stroke:#181818;stroke-width:1.0;" width="320" x="728" y="959.8"/><rect fill="none" height="10" style="stroke:#181818;stroke-width:1.0;" width="15" x="1028" y="964.8"/><rect fill="none" height="2" style="stroke:#181818;stroke-width:1.0;" width="4" x="1026" y="966.8"/><rect fill="none" height="2" style="stroke:#181818;stroke-width:1.0;" width="4" x="1026" y="970.8"/><text fill="#000000" font-family="Sarabun" font-size="14" font-weight="bold" lengthAdjust="spacing" textLength="84" x="846" y="987.752">:WebBrowser</text></g><!--MD5=[4d1699eb36b4f106a4187b12ff4ca2f7]
cluster Cookies--><g id="cluster_Cookies"><rect fill="none" height="117.2" rx="2.5" ry="2.5" style="stroke:#181818;stroke-width:1.0;" width="232" x="776" y="1020.8"/><rect fill="none" height="10" style="stroke:#181818;stroke-width:1.0;" width="15" x="988" y="1025.8"/><rect fill="none" height="2" style="stroke:#181818;stroke-width:1.0;" width="4" x="986" y="1027.8"/><rect fill="none" height="2" style="stroke:#181818;stroke-width:1.0;" width="4" x="986" y="1031.8"/><text fill="#000000" font-family="Sarabun" font-size="14" font-weight="bold" lengthAdjust="spacing" textLength="50" x="867" y="1048.752">Cookies</text></g><text fill="#000000" font-family="Sarabun" font-size="14" lengthAdjust="spacing" textLength="81" x="726.5" y="140.152">DBConnector</text><rect fill="#F1F1F1" height="12" style="stroke:#181818;stroke-width:1.5;" width="12" x="761" y="113.2"/><text fill="#000000" font-family="Sarabun" font-size="14" lengthAdjust="spacing" textLength="102" x="716" y="294.952">ServerConnector</text><rect fill="#F1F1F1" height="12" style="stroke:#181818;stroke-width:1.5;" width="12" x="761" y="310.2"/><!--MD5=[b54e9a77db7c004c5cccece494a270c9]
entity DBMS--><g id="elem_DBMS"><rect fill="#F1F1F1" height="48.2" rx="2.5" ry="2.5" style="stroke:#181818;stroke-width:0.5;" width="75" x="786.5" y="438.2"/><rect fill="#F1F1F1" height="10" style="stroke:#181818;stroke-width:0.5;" width="15" x="841.5" y="443.2"/><rect fill="#F1F1F1" height="2" style="stroke:#181818;stroke-width:0.5;" width="4" x="839.5" y="445.2"/><rect fill="#F1F1F1" height="2" style="stroke:#181818;stroke-width:0.5;" width="4" x="839.5" y="449.2"/><text fill="#000000" font-family="Sarabun" font-size="14" lengthAdjust="spacing" textLength="35" x="801.5" y="473.152">DBMS</text></g><!--MD5=[2761986561326581c43d55402af5f14e]
entity Authentication--><g id="elem_Authentication"><rect fill="#F1F1F1" height="48.2" rx="2.5" ry="2.5" style="stroke:#181818;stroke-width:0.5;" width="130" x="152" y="691.6"/><rect fill="#F1F1F1" height="10" style="stroke:#181818;stroke-width:0.5;" width="15" x="262" y="696.6"/><rect fill="#F1F1F1" height="2" style="stroke:#181818;stroke-width:0.5;" width="4" x="260" y="698.6"/><rect fill="#F1F1F1" height="2" style="stroke:#181818;stroke-width:0.5;" width="4" x="260" y="702.6"/><text fill="#000000" font-family="Sarabun" font-size="14" lengthAdjust="spacing" textLength="90" x="167" y="726.552">Authentication</text></g><!--MD5=[4afc81570287e9aa980848dc83f28f7b]
entity UserManagement--><g id="elem_UserManagement"><rect fill="#F1F1F1" height="48.2" rx="2.5" ry="2.5" style="stroke:#181818;stroke-width:0.5;" width="147" x="143.5" y="582.4"/><rect fill="#F1F1F1" height="10" style="stroke:#181818;stroke-width:0.5;" width="15" x="270.5" y="587.4"/><rect fill="#F1F1F1" height="2" style="stroke:#181818;stroke-width:0.5;" width="4" x="268.5" y="589.4"/><rect fill="#F1F1F1" height="2" style="stroke:#181818;stroke-width:0.5;" width="4" x="268.5" y="593.4"/><text fill="#000000" font-family="Sarabun" font-size="14" lengthAdjust="spacing" textLength="107" x="158.5" y="617.352">UserManagement</text></g><!--MD5=[50dbf9f314e8b86335096ad2d078320f]
entity ScheduleManagement--><g id="elem_ScheduleManagement"><rect fill="#F1F1F1" height="48.2" rx="2.5" ry="2.5" style="stroke:#181818;stroke-width:0.5;" width="176" x="31" y="438.2"/><rect fill="#F1F1F1" height="10" style="stroke:#181818;stroke-width:0.5;" width="15" x="187" y="443.2"/><rect fill="#F1F1F1" height="2" style="stroke:#181818;stroke-width:0.5;" width="4" x="185" y="445.2"/><rect fill="#F1F1F1" height="2" style="stroke:#181818;stroke-width:0.5;" width="4" x="185" y="449.2"/><text fill="#000000" font-family="Sarabun" font-size="14" lengthAdjust="spacing" textLength="136" x="46" y="473.152">ScheduleManagement</text></g><!--MD5=[7a980fe5388f2c0b48dbfb0a8ec1f254]
entity Routing--><g id="elem_Routing"><rect fill="#F1F1F1" height="48.2" rx="2.5" ry="2.5" style="stroke:#181818;stroke-width:0.5;" width="88" x="352" y="691.6"/><rect fill="#F1F1F1" height="10" style="stroke:#181818;stroke-width:0.5;" width="15" x="420" y="696.6"/><rect fill="#F1F1F1" height="2" style="stroke:#181818;stroke-width:0.5;" width="4" x="418" y="698.6"/><rect fill="#F1F1F1" height="2" style="stroke:#181818;stroke-width:0.5;" width="4" x="418" y="702.6"/><text fill="#000000" font-family="Sarabun" font-size="14" lengthAdjust="spacing" textLength="48" x="367" y="726.552">Routing</text></g><!--MD5=[5e7bd64abfd2e4b36a41a955c7fff7e1]
entity UserRequestProcessing--><g id="elem_UserRequestProcessing"><rect fill="#F1F1F1" height="48.2" rx="2.5" ry="2.5" style="stroke:#181818;stroke-width:0.5;" width="182" x="369" y="582.4"/><rect fill="#F1F1F1" height="10" style="stroke:#181818;stroke-width:0.5;" width="15" x="531" y="587.4"/><rect fill="#F1F1F1" height="2" style="stroke:#181818;stroke-width:0.5;" width="4" x="529" y="589.4"/><rect fill="#F1F1F1" height="2" style="stroke:#181818;stroke-width:0.5;" width="4" x="529" y="593.4"/><text fill="#000000" font-family="Sarabun" font-size="14" lengthAdjust="spacing" textLength="142" x="384" y="617.352">UserRequestProcessing</text></g><!--MD5=[f8f186945f4954325c4f732edb940ff7]
entity CourseProcessing--><g id="elem_CourseProcessing"><rect fill="#F1F1F1" height="48.2" rx="2.5" ry="2.5" style="stroke:#181818;stroke-width:0.5;" width="148" x="242" y="438.2"/><rect fill="#F1F1F1" height="10" style="stroke:#181818;stroke-width:0.5;" width="15" x="370" y="443.2"/><rect fill="#F1F1F1" height="2" style="stroke:#181818;stroke-width:0.5;" width="4" x="368" y="445.2"/><rect fill="#F1F1F1" height="2" style="stroke:#181818;stroke-width:0.5;" width="4" x="368" y="449.2"/><text fill="#000000" font-family="Sarabun" font-size="14" lengthAdjust="spacing" textLength="108" x="257" y="473.152">CourseProcessing</text></g><!--MD5=[4a54b93525004ad64eac469d17a33f41]
entity PaymentProcessing--><g id="elem_PaymentProcessing"><rect fill="#F1F1F1" height="48.2" rx="2.5" ry="2.5" style="stroke:#181818;stroke-width:0.5;" width="159" x="483.5" y="438.2"/><rect fill="#F1F1F1" height="10" style="stroke:#181818;stroke-width:0.5;" width="15" x="622.5" y="443.2"/><rect fill="#F1F1F1" height="2" style="stroke:#181818;stroke-width:0.5;" width="4" x="620.5" y="445.2"/><rect fill="#F1F1F1" height="2" style="stroke:#181818;stroke-width:0.5;" width="4" x="620.5" y="449.2"/><text fill="#000000" font-family="Sarabun" font-size="14" lengthAdjust="spacing" textLength="119" x="498.5" y="473.152">PaymentProcessing</text></g><!--MD5=[e9dede37b31fdda9664526f66258b036]
entity Browser--><g id="elem_Browser"><rect fill="#F1F1F1" height="48.2" rx="2.5" ry="2.5" style="stroke:#181818;stroke-width:0.5;" width="88" x="760" y="1224"/><rect fill="#F1F1F1" height="10" style="stroke:#181818;stroke-width:0.5;" width="15" x="828" y="1229"/><rect fill="#F1F1F1" height="2" style="stroke:#181818;stroke-width:0.5;" width="4" x="826" y="1231"/><rect fill="#F1F1F1" height="2" style="stroke:#181818;stroke-width:0.5;" width="4" x="826" y="1235"/><text fill="#000000" font-family="Sarabun" font-size="14" lengthAdjust="spacing" textLength="48" x="775" y="1258.952">Browser</text></g><!--MD5=[acfb041fab390599b92d4e350e285e5b]
entity AuthenticationFactors--><g id="elem_AuthenticationFactors"><rect fill="#F1F1F1" height="48.2" rx="2.5" ry="2.5" style="stroke:#181818;stroke-width:0.5;" width="176" x="808" y="1065.8"/><rect fill="#F1F1F1" height="10" style="stroke:#181818;stroke-width:0.5;" width="15" x="964" y="1070.8"/><rect fill="#F1F1F1" height="2" style="stroke:#181818;stroke-width:0.5;" width="4" x="962" y="1072.8"/><rect fill="#F1F1F1" height="2" style="stroke:#181818;stroke-width:0.5;" width="4" x="962" y="1076.8"/><text fill="#000000" font-family="Sarabun" font-size="14" lengthAdjust="spacing" textLength="136" x="823" y="1100.752">AuthenticationFactors</text></g><!--MD5=[b248ea8af533f9b918dd7add286ada43]
reverse link UserManagement to Authentication--><g id="link_UserManagement_Authentication"><path d="M217,637.11 C217,654.17 217,675.32 217,691.23 " fill="none" id="UserManagement-backto-Authentication" style="stroke:#181818;stroke-width:1.0;stroke-dasharray:7.0,7.0;"/><polygon fill="#181818" points="217,632.54,213,641.54,217,637.54,221,641.54,217,632.54" style="stroke:#181818;stroke-width:1.0;"/></g><!--MD5=[d6ea5a3c0b621369d1eeb1c8218c50e2]
link CourseProcessing to UserManagement--><g id="link_CourseProcessing_UserManagement"><path d="M299.65,486.78 C282.46,511.48 255.38,550.37 236.94,576.86 " fill="none" id="CourseProcessing-to-UserManagement" style="stroke:#181818;stroke-width:1.0;stroke-dasharray:7.0,7.0;"/><polygon fill="#181818" points="234.24,580.74,242.6674,575.643,237.0987,576.6378,236.1039,571.0691,234.24,580.74" style="stroke:#181818;stroke-width:1.0;"/><text fill="#000000" font-family="Sarabun" font-size="13" lengthAdjust="spacing" textLength="33" x="267" y="549.284">«use»</text></g><!--MD5=[78e0a357037a572e2397576e878197f0]
link ScheduleManagement to UserManagement--><g id="link_ScheduleManagement_UserManagement"><path d="M135.18,486.78 C152.21,511.48 179.01,550.37 197.26,576.86 " fill="none" id="ScheduleManagement-to-UserManagement" style="stroke:#181818;stroke-width:1.0;stroke-dasharray:7.0,7.0;"/><polygon fill="#181818" points="199.93,580.74,198.1274,571.0575,197.0974,576.6198,191.5351,575.5897,199.93,580.74" style="stroke:#181818;stroke-width:1.0;"/></g><!--MD5=[db42aad207c8c9d953c2ba97a351f408]
reverse link Authentication to Routing--><g id="link_Authentication_Routing"><path d="M288.65,715.7 C309.98,715.7 332.71,715.7 351.74,715.7 " fill="none" id="Authentication-backto-Routing" style="stroke:#181818;stroke-width:1.0;stroke-dasharray:7.0,7.0;"/><polygon fill="#181818" points="283.9,715.7,292.9,719.7,288.9,715.7,292.9,711.7,283.9,715.7" style="stroke:#181818;stroke-width:1.0;"/><text fill="#000000" font-family="Sarabun" font-size="13" lengthAdjust="spacing" textLength="33" x="300.5" y="709.584">«use»</text></g><!--MD5=[794d680164454d095b4c758baefdbd7d]
link ScheduleManagement to CourseProcessing--><g id="link_ScheduleManagement_CourseProcessing"><path d="M207.5,462.3 C216.79,462.3 226.09,462.3 235.39,462.3 " fill="none" id="ScheduleManagement-to-CourseProcessing" style="stroke:#181818;stroke-width:1.0;stroke-dasharray:7.0,7.0;"/><polygon fill="#181818" points="240.31,462.3,231.31,458.3,235.31,462.3,231.31,466.3,240.31,462.3" style="stroke:#181818;stroke-width:1.0;"/></g><!--MD5=[f273d14da2c41318092948a8cd2cbba4]
link EnrollmentProcessing to CourseProcessing--><g id="link_EnrollmentProcessing_CourseProcessing"><path d="M451.9659,462.3 C451.9063,462.3 451.8465,462.3 451.7864,462.3 C451.5459,462.3 451.3009,462.3 451.0512,462.3 C450.552,462.3 450.0345,462.3 449.4996,462.3 C448.4298,462.3 447.29,462.3 446.0859,462.3 C443.6778,462.3 441.0125,462.3 438.135,462.3 C426.625,462.3 411.72,462.3 396.3,462.3 " fill="none" id="EnrollmentProcessing-to-CourseProcessing" style="stroke:#181818;stroke-width:1.0;stroke-dasharray:7.0,7.0;"/><polygon fill="#181818" points="391.62,462.3,400.62,466.3,396.62,462.3,400.62,458.3,391.62,462.3" style="stroke:#181818;stroke-width:1.0;"/><text fill="#000000" font-family="Sarabun" font-size="13" lengthAdjust="spacing" textLength="33" x="408.32" y="456.184">«use»</text></g><!--MD5=[894e3c7c72e387b3f332fb774530e05a]
reverse link EnrollmentProcessing to UserRequestProcessing--><g id="link_EnrollmentProcessing_UserRequestProcessing"><path d="M460,510.8113 C460,511.003 460,511.1949 460,511.387 C460,512.1556 460,512.9282 460,513.7044 C460,515.2568 460,516.8236 460,518.4015 C460,521.5573 460,524.7575 460,527.9753 C460,534.411 460,540.9174 460,547.2814 C460,560.0094 460,572.1675 460,582.05 " fill="none" id="EnrollmentProcessing-backto-UserRequestProcessing" style="stroke:#181818;stroke-width:1.0;stroke-dasharray:7.0,7.0;"/><polygon fill="#181818" points="460,510.8113,456,519.8113,460,515.8113,464,519.8113,460,510.8113" style="stroke:#181818;stroke-width:1.0;"/><text fill="#000000" font-family="Sarabun" font-size="13" lengthAdjust="spacing" textLength="33" x="461" y="549.284">«use»</text></g><!--MD5=[b1a2fd7118dea6ea86a4b0f837051749]
link DBMS to wsServerConnectorPort--><g id="link_DBMS_wsServerConnectorPort"><path d="M814.76,437.94 C801.16,403.56 776.57,341.39 769.16,322.67 " fill="none" id="DBMS-wsServerConnectorPort" style="stroke:#181818;stroke-width:1.0;"/><ellipse cx="789.6388" cy="374.4325" fill="#FFFFFF" rx="6" ry="6" style="stroke:#181818;stroke-width:1.5;"/></g><!--MD5=[b5bf94f1bfa7e2fcaf8aced2d93a4c12]
link Cookies to Browser--><g id="link_Cookies_Browser"><path d="M789.9972,1138.2787 C790.2219,1140.0468 790.4471,1141.8171 790.6715,1143.5804 C791.1203,1147.1069 791.5663,1150.605 792,1154 C795.04,1177.76 798.54,1204.93 800.98,1223.76 " fill="none" id="Cookies-Browser" style="stroke:#181818;stroke-width:1.0;"/><text fill="#000000" font-family="Sarabun" font-size="13" lengthAdjust="spacing" textLength="65" x="804" y="1183.884">BrowserAPI</text><path d="M790.6048,1198.6449 A10,10 0 0 0 804.6311 1196.839" fill="none" style="stroke:#181818;stroke-width:1.5;"/><ellipse cx="796.715" cy="1190.7287" fill="#FFFFFF" rx="6" ry="6" style="stroke:#181818;stroke-width:1.5;"/></g><!--MD5=[db66faae70fed5b0f38a2da6fd730b8c]
link dbConnectorPort to wsServerConnectorPort--><g id="link_dbConnectorPort_wsServerConnectorPort"><path d="M767,125.42 C767,153.03 767,282 767,309.88 " fill="none" id="dbConnectorPort-wsServerConnectorPort" style="stroke:#181818;stroke-width:1.0;"/><path d="M759.9289,224.6198 A10,10 0 0 0 774.0711 224.6198" fill="none" style="stroke:#181818;stroke-width:1.5;"/><ellipse cx="767" cy="217.5487" fill="#FFFFFF" rx="6" ry="6" style="stroke:#181818;stroke-width:1.5;"/></g><!--MD5=[b389d13cfc4a324c9f4342b8f6735d48]
link ws to wb--><g id="link_ws_wb"><path d="M736,766.0376 C736,778.3867 736,791.6856 736,806.0076 C736,834.6516 736,867.3875 736,904.8 C736,914.8675 736,925.2448 736,935.7034 C736,940.9326 736,946.1822 736,951.4234 C736,954.0441 736,956.6626 736,959.2755 " fill="none" id="ws-wb" style="stroke:#181818;stroke-width:1.0;"/><text fill="#000000" font-family="Sarabun" font-size="13" lengthAdjust="spacing" textLength="47" x="744" y="801.684">Internet</text><path d="M728.9289,859.1867 A10,10 0 0 0 743.0711 859.1867" fill="none" style="stroke:#181818;stroke-width:1.5;"/><ellipse cx="736" cy="852.1156" fill="#FFFFFF" rx="6" ry="6" style="stroke:#181818;stroke-width:1.5;"/></g><!--MD5=[7d454f45156bb398443cbafc593a508f]
@startuml
skinparam {
    monochrome true
    defaultFontName Sarabun
}

title Component Diagram

component :Database as db {
    portout DBConnector as dbConnectorPort
}

component :WebServer as ws {
    portin ServerConnector as wsServerConnectorPort

    [DBMS]
    [Authentication]
    [UserManagement]
    [ScheduleManagement]
    [Routing]

    component EnrollmentProcessing  {
        [PaymentProcessing]
    }

    [UserRequestProcessing]
    [CourseProcessing]

    UserManagement <.. Authentication
    UserManagement <.left. CourseProcessing: <<use>>
    UserManagement <.up. ScheduleManagement

    Authentication <.right. Routing: <<use>>

    CourseProcessing <.left. ScheduleManagement
    CourseProcessing <.left. EnrollmentProcessing: <<use>>

    EnrollmentProcessing <.. UserRequestProcessing: <<use>>

    DBMS -0- wsServerConnectorPort
}

component :WebBrowser as wb {
    [Browser]

    component Cookies {
        [AuthenticationFactors]
    }

    Cookies -0)- Browser: BrowserAPI
}

dbConnectorPort - -0)- - wsServerConnectorPort
ws - - -0)- - - wb: Internet
@enduml

PlantUML version 1.2022.7(Tue Aug 23 00:01:30 ICT 2022)
(GPL source distribution)
Java Runtime: OpenJDK Runtime Environment
JVM: OpenJDK 64-Bit Server VM
Default Encoding: UTF-8
Language: en
Country: TH
--></g></svg>