<?xml version="1.0" encoding="UTF-8" standalone="no"?><svg xmlns="http://www.w3.org/2000/svg" xmlns:xlink="http://www.w3.org/1999/xlink" contentStyleType="text/css" height="1120px" preserveAspectRatio="none" style="width:1414px;height:1120px;background:#FFFFFF;" version="1.1" viewBox="0 0 1414 1120" width="1414px" zoomAndPan="magnify"><defs/><g><rect fill="none" height="28.2" id="_title" style="stroke:none;stroke-width:1.0;" width="98" x="651" y="5"/><text fill="#000000" font-family="Sarabun" font-size="14" font-weight="bold" lengthAdjust="spacing" textLength="88" x="656" y="24.952">Class Diagram</text><!--MD5=[4e1e220458966d3c01bec45122e7626a]
class DatabaseModel--><g id="elem_DatabaseModel"><rect codeLine="10" fill="#F1F1F1" height="193.6" id="DatabaseModel" rx="2.5" ry="2.5" style="stroke:#181818;stroke-width:0.5;" width="188" x="627" y="266.4"/><ellipse cx="668.55" cy="282.4" fill="#CDCDCD" rx="11" ry="11" style="stroke:#181818;stroke-width:1.0;"/><path d="M668.4133,277.7481 L667.2595,282.8199 L669.5754,282.8199 Z M666.9191,275.5069 L669.9157,275.5069 L673.2609,287.9 L670.8122,287.9 L670.0485,284.837 L666.7697,284.837 L666.0227,287.9 L663.5739,287.9 Z " fill="#000000"/><text fill="#000000" font-family="Sarabun" font-size="14" font-style="italic" lengthAdjust="spacing" textLength="97" x="688.45" y="288.252">DatabaseModel</text><line style="stroke:#181818;stroke-width:0.5;" x1="628" x2="814" y1="298.4" y2="298.4"/><text fill="#000000" font-family="Sarabun" font-size="14" lengthAdjust="spacing" textLength="39" x="633" y="317.352">-id: int</text><text fill="#000000" font-family="Sarabun" font-size="14" lengthAdjust="spacing" textLength="139" x="633" y="335.552">-createdAt: Timestamp</text><text fill="#000000" font-family="Sarabun" font-size="14" lengthAdjust="spacing" textLength="144" x="633" y="353.752">-updatedAt: Timestamp</text><line style="stroke:#181818;stroke-width:0.5;" x1="628" x2="814" y1="361" y2="361"/><text fill="#000000" font-family="Sarabun" font-size="14" lengthAdjust="spacing" textLength="71" x="633" y="379.952">+getId(): int</text><text fill="#000000" font-family="Sarabun" font-size="14" lengthAdjust="spacing" textLength="171" x="633" y="398.152">+getCreatedAt(): Timestamp</text><text fill="#000000" font-family="Sarabun" font-size="14" lengthAdjust="spacing" textLength="94" x="633" y="416.352">+setCreatedAt()</text><text fill="#000000" font-family="Sarabun" font-size="14" lengthAdjust="spacing" textLength="176" x="633" y="434.552">+getUpdatedAt(): Timestamp</text><text fill="#000000" font-family="Sarabun" font-size="14" lengthAdjust="spacing" textLength="99" x="633" y="452.752">+setUpdatedAt()</text></g><!--MD5=[2eead29e8e0669700ceab0d1094e1913]
class Queryable--><g id="elem_Queryable"><rect codeLine="21" fill="#F1F1F1" height="157.2" id="Queryable" rx="2.5" ry="2.5" style="stroke:#181818;stroke-width:0.5;" width="192" x="625" y="49.2"/><ellipse cx="680.25" cy="65.2" fill="#B1B1B1" rx="11" ry="11" style="stroke:#181818;stroke-width:1.0;"/><path d="M676.6777,61.4651 L676.6777,59.3069 L684.0571,59.3069 L684.0571,61.4651 L681.5918,61.4651 L681.5918,69.5418 L684.0571,69.5418 L684.0571,71.7 L676.6777,71.7 L676.6777,69.5418 L679.1431,69.5418 L679.1431,61.4651 Z " fill="#000000"/><text fill="#000000" font-family="Sarabun" font-size="14" font-style="italic" lengthAdjust="spacing" textLength="62" x="700.75" y="71.052">Queryable</text><rect fill="#FFFFFF" height="17.6" style="stroke:#181818;stroke-width:1.0;stroke-dasharray:2.0,2.0;" width="9" x="811" y="46.2"/><text fill="#000000" font-family="Sarabun" font-size="12" font-style="italic" lengthAdjust="spacing" textLength="7" x="812" y="60.016">T</text><line style="stroke:#181818;stroke-width:0.5;" x1="626" x2="816" y1="81.2" y2="81.2"/><line style="stroke:#181818;stroke-width:0.5;" x1="626" x2="816" y1="89.2" y2="89.2"/><text fill="#000000" font-family="Sarabun" font-size="14" font-style="italic" lengthAdjust="spacing" textLength="47" x="631" y="108.152">find(): T</text><text fill="#000000" font-family="Sarabun" font-size="14" font-style="italic" lengthAdjust="spacing" textLength="47" x="631" y="126.352">first(): T</text><text fill="#000000" font-family="Sarabun" font-size="14" font-style="italic" lengthAdjust="spacing" textLength="121" x="631" y="144.552">get(): Collection&lt;T&gt;</text><text fill="#000000" font-family="Sarabun" font-size="14" font-style="italic" lengthAdjust="spacing" textLength="145" x="631" y="162.752">or(): Collection&lt;Object&gt;</text><text fill="#000000" font-family="Sarabun" font-size="14" font-style="italic" lengthAdjust="spacing" textLength="168" x="631" y="180.952">where(): Collection&lt;Object&gt;</text><text fill="#000000" font-family="Sarabun" font-size="14" font-style="italic" lengthAdjust="spacing" textLength="180" x="631" y="199.152">whereIn(): Collection&lt;Object&gt;</text></g><!--MD5=[3fd616f346a44cd59a91eb10b19e157c]
class User--><g id="elem_User"><rect codeLine="31" fill="#F1F1F1" height="594" id="User" rx="2.5" ry="2.5" style="stroke:#181818;stroke-width:0.5;" width="197" x="740.5" y="520"/><ellipse cx="821.25" cy="536" fill="#C2C2C2" rx="11" ry="11" style="stroke:#181818;stroke-width:1.0;"/><path d="M823.7231,542.1431 Q823.1421,542.4419 822.5029,542.5913 Q821.8638,542.7407 821.1582,542.7407 Q818.6514,542.7407 817.3315,541.0889 Q816.0117,539.437 816.0117,536.3159 Q816.0117,533.1865 817.3315,531.5347 Q818.6514,529.8828 821.1582,529.8828 Q821.8638,529.8828 822.5112,530.0322 Q823.1587,530.1816 823.7231,530.4805 L823.7231,533.2031 Q823.0923,532.6221 822.4988,532.3523 Q821.9053,532.0825 821.2744,532.0825 Q819.9297,532.0825 819.2449,533.1492 Q818.5601,534.2158 818.5601,536.3159 Q818.5601,538.4077 819.2449,539.4744 Q819.9297,540.541 821.2744,540.541 Q821.9053,540.541 822.4988,540.2712 Q823.0923,540.0015 823.7231,539.4204 Z " fill="#000000"/><text fill="#000000" font-family="Sarabun" font-size="14" lengthAdjust="spacing" textLength="27" x="841.75" y="541.852">User</text><line style="stroke:#181818;stroke-width:0.5;" x1="741.5" x2="936.5" y1="552" y2="552"/><text fill="#000000" font-family="Sarabun" font-size="14" lengthAdjust="spacing" textLength="108" x="746.5" y="570.952">-username: String</text><text fill="#000000" font-family="Sarabun" font-size="14" lengthAdjust="spacing" textLength="105" x="746.5" y="589.152">-password: String</text><text fill="#000000" font-family="Sarabun" font-size="14" lengthAdjust="spacing" textLength="72" x="746.5" y="607.352">-role: Enum</text><text fill="#000000" font-family="Sarabun" font-size="14" lengthAdjust="spacing" textLength="108" x="746.5" y="625.552">-firstName: String</text><text fill="#000000" font-family="Sarabun" font-size="14" lengthAdjust="spacing" textLength="126" x="746.5" y="643.752">-middleName: String</text><text fill="#000000" font-family="Sarabun" font-size="14" lengthAdjust="spacing" textLength="106" x="746.5" y="661.952">-lastName: String</text><text fill="#000000" font-family="Sarabun" font-size="14" lengthAdjust="spacing" textLength="96" x="746.5" y="680.152">-birthdate: Date</text><text fill="#000000" font-family="Sarabun" font-size="14" lengthAdjust="spacing" textLength="137" x="746.5" y="698.352">-phoneNumber: String</text><text fill="#000000" font-family="Sarabun" font-size="14" lengthAdjust="spacing" textLength="154" x="746.5" y="716.552">-profileImagePath: String</text><text fill="#000000" font-family="Sarabun" font-size="14" lengthAdjust="spacing" textLength="81" x="746.5" y="734.752">-email: String</text><line style="stroke:#181818;stroke-width:0.5;" x1="741.5" x2="936.5" y1="742" y2="742"/><text fill="#000000" font-family="Sarabun" font-size="14" lengthAdjust="spacing" textLength="140" x="746.5" y="760.952">+getUsername(): String</text><text fill="#000000" font-family="Sarabun" font-size="14" lengthAdjust="spacing" textLength="136" x="746.5" y="779.152">+getPassword(): String</text><text fill="#000000" font-family="Sarabun" font-size="14" lengthAdjust="spacing" textLength="91" x="746.5" y="797.352">+setPassword()</text><text fill="#000000" font-family="Sarabun" font-size="14" lengthAdjust="spacing" textLength="106" x="746.5" y="815.552">+getRole(): Enum</text><text fill="#000000" font-family="Sarabun" font-size="14" lengthAdjust="spacing" textLength="142" x="746.5" y="833.752">+getFirstName(): String</text><text fill="#000000" font-family="Sarabun" font-size="14" lengthAdjust="spacing" textLength="97" x="746.5" y="851.952">+setFirstName()</text><text fill="#000000" font-family="Sarabun" font-size="14" lengthAdjust="spacing" textLength="156" x="746.5" y="870.152">+getMiddleName(): String</text><text fill="#000000" font-family="Sarabun" font-size="14" lengthAdjust="spacing" textLength="111" x="746.5" y="888.352">+setMiddleName()</text><text fill="#000000" font-family="Sarabun" font-size="14" lengthAdjust="spacing" textLength="141" x="746.5" y="906.552">+getLastName(): String</text><text fill="#000000" font-family="Sarabun" font-size="14" lengthAdjust="spacing" textLength="96" x="746.5" y="924.752">+setLastName()</text><text fill="#000000" font-family="Sarabun" font-size="14" lengthAdjust="spacing" textLength="127" x="746.5" y="942.952">+getBirthdate(): Date</text><text fill="#000000" font-family="Sarabun" font-size="14" lengthAdjust="spacing" textLength="168" x="746.5" y="961.152">+getPhoneNumber(): String</text><text fill="#000000" font-family="Sarabun" font-size="14" lengthAdjust="spacing" textLength="123" x="746.5" y="979.352">+setPhoneNumber()</text><text fill="#000000" font-family="Sarabun" font-size="14" lengthAdjust="spacing" textLength="185" x="746.5" y="997.552">+getProfileImagePath(): String</text><text fill="#000000" font-family="Sarabun" font-size="14" lengthAdjust="spacing" textLength="140" x="746.5" y="1015.752">+setProfileImagePath()</text><text fill="#000000" font-family="Sarabun" font-size="14" lengthAdjust="spacing" textLength="113" x="746.5" y="1033.952">+getEmail(): String</text><text fill="#000000" font-family="Sarabun" font-size="14" lengthAdjust="spacing" textLength="68" x="746.5" y="1052.152">+setEmail()</text><text fill="#000000" font-family="Sarabun" font-size="14" lengthAdjust="spacing" textLength="96" x="746.5" y="1070.352">+register(): User</text><text fill="#000000" font-family="Sarabun" font-size="14" lengthAdjust="spacing" textLength="81" x="746.5" y="1088.552">+login(): User</text><text fill="#000000" font-family="Sarabun" font-size="14" lengthAdjust="spacing" textLength="84" x="746.5" y="1106.752">+updateInfo()</text></g><!--MD5=[4066b0363c5a91ff3b6e03e0428953a9]
class Course--><g id="elem_Course"><rect codeLine="66" fill="#F1F1F1" height="557.6" id="Course" rx="2.5" ry="2.5" style="stroke:#181818;stroke-width:0.5;" width="180" x="972" y="538.2"/><ellipse cx="1036.75" cy="554.2" fill="#C2C2C2" rx="11" ry="11" style="stroke:#181818;stroke-width:1.0;"/><path d="M1039.2231,560.3431 Q1038.6421,560.6419 1038.0029,560.7913 Q1037.3638,560.9407 1036.6582,560.9407 Q1034.1514,560.9407 1032.8315,559.2889 Q1031.5117,557.637 1031.5117,554.5159 Q1031.5117,551.3865 1032.8315,549.7347 Q1034.1514,548.0828 1036.6582,548.0828 Q1037.3638,548.0828 1038.0112,548.2322 Q1038.6587,548.3816 1039.2231,548.6805 L1039.2231,551.4031 Q1038.5923,550.8221 1037.9988,550.5523 Q1037.4053,550.2825 1036.7744,550.2825 Q1035.4297,550.2825 1034.7449,551.3492 Q1034.0601,552.4158 1034.0601,554.5159 Q1034.0601,556.6077 1034.7449,557.6744 Q1035.4297,558.741 1036.7744,558.741 Q1037.4053,558.741 1037.9988,558.4712 Q1038.5923,558.2015 1039.2231,557.6204 Z " fill="#000000"/><text fill="#000000" font-family="Sarabun" font-size="14" lengthAdjust="spacing" textLength="42" x="1057.25" y="560.052">Course</text><line style="stroke:#181818;stroke-width:0.5;" x1="973" x2="1151" y1="570.2" y2="570.2"/><text fill="#000000" font-family="Sarabun" font-size="14" lengthAdjust="spacing" textLength="86" x="978" y="589.152">-teacherId: int</text><text fill="#000000" font-family="Sarabun" font-size="14" lengthAdjust="spacing" textLength="72" x="978" y="607.352">-title: String</text><text fill="#000000" font-family="Sarabun" font-size="14" lengthAdjust="spacing" textLength="116" x="978" y="625.552">-description: String</text><text fill="#000000" font-family="Sarabun" font-size="14" lengthAdjust="spacing" textLength="64" x="978" y="643.752">-quota: int</text><text fill="#000000" font-family="Sarabun" font-size="14" lengthAdjust="spacing" textLength="78" x="978" y="661.952">-capacity: int</text><text fill="#000000" font-family="Sarabun" font-size="14" lengthAdjust="spacing" textLength="74" x="978" y="680.152">-minAge: int</text><text fill="#000000" font-family="Sarabun" font-size="14" lengthAdjust="spacing" textLength="76" x="978" y="698.352">-maxAge: int</text><text fill="#000000" font-family="Sarabun" font-size="14" lengthAdjust="spacing" textLength="80" x="978" y="716.552">-duration: int</text><text fill="#000000" font-family="Sarabun" font-size="14" lengthAdjust="spacing" textLength="124" x="978" y="734.752">-opensOn: DateTime</text><text fill="#000000" font-family="Sarabun" font-size="14" lengthAdjust="spacing" textLength="136" x="978" y="752.952">-opensUntil: DateTime</text><text fill="#000000" font-family="Sarabun" font-size="14" lengthAdjust="spacing" textLength="121" x="978" y="771.152">-startsOn: DateTime</text><text fill="#000000" font-family="Sarabun" font-size="14" lengthAdjust="spacing" textLength="85" x="978" y="789.352">-status: Enum</text><text fill="#000000" font-family="Sarabun" font-size="14" lengthAdjust="spacing" textLength="71" x="978" y="807.552">-price: float</text><line style="stroke:#181818;stroke-width:0.5;" x1="973" x2="1151" y1="814.8" y2="814.8"/><text fill="#000000" font-family="Sarabun" font-size="14" lengthAdjust="spacing" text-decoration="underline" textLength="158" x="978" y="833.752">+all(): Collection&lt;Course&gt;</text><text fill="#000000" font-family="Sarabun" font-size="14" lengthAdjust="spacing" textLength="120" x="978" y="851.952">+getTeacherId(): int</text><text fill="#000000" font-family="Sarabun" font-size="14" lengthAdjust="spacing" textLength="106" x="978" y="870.152">+getTitle(): String</text><text fill="#000000" font-family="Sarabun" font-size="14" lengthAdjust="spacing" textLength="148" x="978" y="888.352">+getDescription(): String</text><text fill="#000000" font-family="Sarabun" font-size="14" lengthAdjust="spacing" textLength="96" x="978" y="906.552">+getQuota(): int</text><text fill="#000000" font-family="Sarabun" font-size="14" lengthAdjust="spacing" textLength="110" x="978" y="924.752">+getCapacity(): int</text><text fill="#000000" font-family="Sarabun" font-size="14" lengthAdjust="spacing" textLength="104" x="978" y="942.952">+getMinAge(): int</text><text fill="#000000" font-family="Sarabun" font-size="14" lengthAdjust="spacing" textLength="106" x="978" y="961.152">+getMaxAge(): int</text><text fill="#000000" font-family="Sarabun" font-size="14" lengthAdjust="spacing" textLength="112" x="978" y="979.352">+getDuration(): int</text><text fill="#000000" font-family="Sarabun" font-size="14" lengthAdjust="spacing" textLength="156" x="978" y="997.552">+getOpensOn(): DateTime</text><text fill="#000000" font-family="Sarabun" font-size="14" lengthAdjust="spacing" textLength="168" x="978" y="1015.752">+getOpensUntil(): DateTime</text><text fill="#000000" font-family="Sarabun" font-size="14" lengthAdjust="spacing" textLength="153" x="978" y="1033.952">+getStartsOn(): DateTime</text><text fill="#000000" font-family="Sarabun" font-size="14" lengthAdjust="spacing" textLength="117" x="978" y="1052.152">+getStatus(): Enum</text><text fill="#000000" font-family="Sarabun" font-size="14" lengthAdjust="spacing" textLength="72" x="978" y="1070.352">+setStatus()</text><text fill="#000000" font-family="Sarabun" font-size="14" lengthAdjust="spacing" textLength="102" x="978" y="1088.552">+getPrice(): float</text></g><!--MD5=[a5e519b5507f5347c192db89cdb5223a]
class Enrollment--><g id="elem_Enrollment"><rect codeLine="99" fill="#F1F1F1" height="284.6" id="Enrollment" rx="2.5" ry="2.5" style="stroke:#181818;stroke-width:0.5;" width="220" x="1187" y="674.7"/><ellipse cx="1258.25" cy="690.7" fill="#C2C2C2" rx="11" ry="11" style="stroke:#181818;stroke-width:1.0;"/><path d="M1260.7231,696.8431 Q1260.1421,697.1419 1259.5029,697.2913 Q1258.8638,697.4407 1258.1582,697.4407 Q1255.6514,697.4407 1254.3315,695.7889 Q1253.0117,694.137 1253.0117,691.0159 Q1253.0117,687.8865 1254.3315,686.2347 Q1255.6514,684.5828 1258.1582,684.5828 Q1258.8638,684.5828 1259.5112,684.7322 Q1260.1587,684.8816 1260.7231,685.1805 L1260.7231,687.9031 Q1260.0923,687.3221 1259.4988,687.0523 Q1258.9053,686.7825 1258.2744,686.7825 Q1256.9297,686.7825 1256.2449,687.8492 Q1255.5601,688.9158 1255.5601,691.0159 Q1255.5601,693.1077 1256.2449,694.1744 Q1256.9297,695.241 1258.2744,695.241 Q1258.9053,695.241 1259.4988,694.9712 Q1260.0923,694.7015 1260.7231,694.1204 Z " fill="#000000"/><text fill="#000000" font-family="Sarabun" font-size="14" lengthAdjust="spacing" textLength="69" x="1278.75" y="696.552">Enrollment</text><line style="stroke:#181818;stroke-width:0.5;" x1="1188" x2="1406" y1="706.7" y2="706.7"/><text fill="#000000" font-family="Sarabun" font-size="14" lengthAdjust="spacing" textLength="81" x="1193" y="725.652">-courseId: int</text><text fill="#000000" font-family="Sarabun" font-size="14" lengthAdjust="spacing" textLength="87" x="1193" y="743.852">-studentId: int</text><text fill="#000000" font-family="Sarabun" font-size="14" lengthAdjust="spacing" textLength="177" x="1193" y="762.052">-proofOfPaymentPath: String</text><text fill="#000000" font-family="Sarabun" font-size="14" lengthAdjust="spacing" textLength="85" x="1193" y="780.252">-status: Enum</text><text fill="#000000" font-family="Sarabun" font-size="14" lengthAdjust="spacing" textLength="146" x="1193" y="798.452">-reviewComment: String</text><line style="stroke:#181818;stroke-width:0.5;" x1="1188" x2="1406" y1="805.7" y2="805.7"/><text fill="#000000" font-family="Sarabun" font-size="14" lengthAdjust="spacing" text-decoration="underline" textLength="185" x="1193" y="824.652">+all(): Collection&lt;Enrollment&gt;</text><text fill="#000000" font-family="Sarabun" font-size="14" lengthAdjust="spacing" textLength="113" x="1193" y="842.852">+getCourseId(): int</text><text fill="#000000" font-family="Sarabun" font-size="14" lengthAdjust="spacing" textLength="119" x="1193" y="861.052">+getStudentId(): int</text><text fill="#000000" font-family="Sarabun" font-size="14" lengthAdjust="spacing" textLength="208" x="1193" y="879.252">+getProofOfPaymentPath(): String</text><text fill="#000000" font-family="Sarabun" font-size="14" lengthAdjust="spacing" textLength="117" x="1193" y="897.452">+getStatus(): Enum</text><text fill="#000000" font-family="Sarabun" font-size="14" lengthAdjust="spacing" textLength="72" x="1193" y="915.652">+setStatus()</text><text fill="#000000" font-family="Sarabun" font-size="14" lengthAdjust="spacing" textLength="180" x="1193" y="933.852">+getReviewComment(): String</text><text fill="#000000" font-family="Sarabun" font-size="14" lengthAdjust="spacing" textLength="135" x="1193" y="952.052">+setReviewComment()</text></g><!--MD5=[34b75dd4d6d4601c280a5b76e9c1a953]
class Receipt--><g id="elem_Receipt"><rect codeLine="117" fill="#F1F1F1" height="321" id="Receipt" rx="2.5" ry="2.5" style="stroke:#181818;stroke-width:0.5;" width="244" x="7" y="656.5"/><ellipse cx="102.25" cy="672.5" fill="#C2C2C2" rx="11" ry="11" style="stroke:#181818;stroke-width:1.0;"/><path d="M104.7231,678.6431 Q104.1421,678.9419 103.5029,679.0913 Q102.8638,679.2407 102.1582,679.2407 Q99.6514,679.2407 98.3315,677.5889 Q97.0117,675.937 97.0117,672.8159 Q97.0117,669.6865 98.3315,668.0347 Q99.6514,666.3828 102.1582,666.3828 Q102.8638,666.3828 103.5112,666.5322 Q104.1587,666.6816 104.7231,666.9805 L104.7231,669.7031 Q104.0923,669.1221 103.4988,668.8523 Q102.9053,668.5825 102.2744,668.5825 Q100.9297,668.5825 100.2449,669.6492 Q99.5601,670.7158 99.5601,672.8159 Q99.5601,674.9077 100.2449,675.9744 Q100.9297,677.041 102.2744,677.041 Q102.9053,677.041 103.4988,676.7712 Q104.0923,676.5015 104.7231,675.9204 Z " fill="#000000"/><text fill="#000000" font-family="Sarabun" font-size="14" lengthAdjust="spacing" textLength="45" x="122.75" y="678.352">Receipt</text><line style="stroke:#181818;stroke-width:0.5;" x1="8" x2="250" y1="688.5" y2="688.5"/><text fill="#000000" font-family="Sarabun" font-size="14" lengthAdjust="spacing" textLength="108" x="13" y="707.452">-enrollmentId: int</text><text fill="#000000" font-family="Sarabun" font-size="14" lengthAdjust="spacing" textLength="201" x="13" y="725.652">-paymentTimestamp: Timestamp</text><text fill="#000000" font-family="Sarabun" font-size="14" lengthAdjust="spacing" textLength="190" x="13" y="743.852">-receiptTimestamp: Timestamp</text><text fill="#000000" font-family="Sarabun" font-size="14" lengthAdjust="spacing" textLength="116" x="13" y="762.052">-description: String</text><text fill="#000000" font-family="Sarabun" font-size="14" lengthAdjust="spacing" textLength="89" x="13" y="780.252">-amount: float</text><text fill="#000000" font-family="Sarabun" font-size="14" lengthAdjust="spacing" textLength="92" x="13" y="798.452">-subtotal: float</text><text fill="#000000" font-family="Sarabun" font-size="14" lengthAdjust="spacing" textLength="70" x="13" y="816.652">-total: float</text><line style="stroke:#181818;stroke-width:0.5;" x1="8" x2="250" y1="823.9" y2="823.9"/><text fill="#000000" font-family="Sarabun" font-size="14" lengthAdjust="spacing" textLength="140" x="13" y="842.852">+getEnrollmentId(): int</text><text fill="#000000" font-family="Sarabun" font-size="14" lengthAdjust="spacing" textLength="232" x="13" y="861.052">+getPaymentTimestamp(): Timestamp</text><text fill="#000000" font-family="Sarabun" font-size="14" lengthAdjust="spacing" textLength="224" x="13" y="879.252">+getReceiptTimestamp(): Timestamp</text><text fill="#000000" font-family="Sarabun" font-size="14" lengthAdjust="spacing" textLength="147" x="13" y="897.452">+setReceiptTimestamp()</text><text fill="#000000" font-family="Sarabun" font-size="14" lengthAdjust="spacing" textLength="148" x="13" y="915.652">+getDescription(): String</text><text fill="#000000" font-family="Sarabun" font-size="14" lengthAdjust="spacing" textLength="121" x="13" y="933.852">+getAmount(): float</text><text fill="#000000" font-family="Sarabun" font-size="14" lengthAdjust="spacing" textLength="124" x="13" y="952.052">+getSubtotal(): float</text><text fill="#000000" font-family="Sarabun" font-size="14" lengthAdjust="spacing" textLength="104" x="13" y="970.252">+getTotal(): float</text></g><!--MD5=[c61a9f161dfd14e337298c73b1369717]
class Timeslot--><g id="elem_Timeslot"><rect codeLine="137" fill="#F1F1F1" height="193.6" id="Timeslot" rx="2.5" ry="2.5" style="stroke:#181818;stroke-width:0.5;" width="181" x="286.5" y="720.2"/><ellipse cx="346.25" cy="736.2" fill="#C2C2C2" rx="11" ry="11" style="stroke:#181818;stroke-width:1.0;"/><path d="M348.7231,742.3431 Q348.1421,742.6419 347.5029,742.7913 Q346.8638,742.9407 346.1582,742.9407 Q343.6514,742.9407 342.3315,741.2889 Q341.0117,739.637 341.0117,736.5159 Q341.0117,733.3865 342.3315,731.7347 Q343.6514,730.0828 346.1582,730.0828 Q346.8638,730.0828 347.5112,730.2322 Q348.1587,730.3816 348.7231,730.6805 L348.7231,733.4031 Q348.0923,732.8221 347.4988,732.5523 Q346.9053,732.2825 346.2744,732.2825 Q344.9297,732.2825 344.2449,733.3492 Q343.5601,734.4158 343.5601,736.5159 Q343.5601,738.6077 344.2449,739.6744 Q344.9297,740.741 346.2744,740.741 Q346.9053,740.741 347.4988,740.4712 Q348.0923,740.2015 348.7231,739.6204 Z " fill="#000000"/><text fill="#000000" font-family="Sarabun" font-size="14" lengthAdjust="spacing" textLength="53" x="366.75" y="742.052">Timeslot</text><line style="stroke:#181818;stroke-width:0.5;" x1="287.5" x2="466.5" y1="752.2" y2="752.2"/><text fill="#000000" font-family="Sarabun" font-size="14" lengthAdjust="spacing" textLength="81" x="292.5" y="771.152">-courseId: int</text><text fill="#000000" font-family="Sarabun" font-size="14" lengthAdjust="spacing" textLength="127" x="292.5" y="789.352">-dateTime: DateTime</text><text fill="#000000" font-family="Sarabun" font-size="14" lengthAdjust="spacing" textLength="74" x="292.5" y="807.552">-type: Enum</text><line style="stroke:#181818;stroke-width:0.5;" x1="287.5" x2="466.5" y1="814.8" y2="814.8"/><text fill="#000000" font-family="Sarabun" font-size="14" lengthAdjust="spacing" text-decoration="underline" textLength="169" x="292.5" y="833.752">+all(): Collection&lt;Timeslot&gt;</text><text fill="#000000" font-family="Sarabun" font-size="14" lengthAdjust="spacing" textLength="69" x="292.5" y="851.952">~Timeslot()</text><text fill="#000000" font-family="Sarabun" font-size="14" lengthAdjust="spacing" textLength="113" x="292.5" y="870.152">+getCourseId(): int</text><text fill="#000000" font-family="Sarabun" font-size="14" lengthAdjust="spacing" textLength="159" x="292.5" y="888.352">+getDateTime(): DateTime</text><text fill="#000000" font-family="Sarabun" font-size="14" lengthAdjust="spacing" textLength="108" x="292.5" y="906.552">+getType(): Enum</text></g><!--MD5=[646d8ca932cca2c10e86725eb705c90c]
class UserRequest--><g id="elem_UserRequest"><rect codeLine="150" fill="#F1F1F1" height="357.4" id="UserRequest" rx="2.5" ry="2.5" style="stroke:#181818;stroke-width:0.5;" width="204" x="502" y="638.3"/><ellipse cx="561.75" cy="654.3" fill="#C2C2C2" rx="11" ry="11" style="stroke:#181818;stroke-width:1.0;"/><path d="M564.2231,660.4431 Q563.6421,660.7419 563.0029,660.8913 Q562.3638,661.0407 561.6582,661.0407 Q559.1514,661.0407 557.8315,659.3889 Q556.5117,657.737 556.5117,654.6159 Q556.5117,651.4865 557.8315,649.8347 Q559.1514,648.1828 561.6582,648.1828 Q562.3638,648.1828 563.0112,648.3322 Q563.6587,648.4816 564.2231,648.7805 L564.2231,651.5031 Q563.5923,650.9221 562.9988,650.6523 Q562.4053,650.3825 561.7744,650.3825 Q560.4297,650.3825 559.7449,651.4492 Q559.0601,652.5158 559.0601,654.6159 Q559.0601,656.7077 559.7449,657.7744 Q560.4297,658.841 561.7744,658.841 Q562.4053,658.841 562.9988,658.5712 Q563.5923,658.3015 564.2231,657.7204 Z " fill="#000000"/><text fill="#000000" font-family="Sarabun" font-size="14" lengthAdjust="spacing" textLength="76" x="582.25" y="660.152">UserRequest</text><line style="stroke:#181818;stroke-width:0.5;" x1="503" x2="705" y1="670.3" y2="670.3"/><text fill="#000000" font-family="Sarabun" font-size="14" lengthAdjust="spacing" textLength="100" x="508" y="689.252">-originatorId: int</text><text fill="#000000" font-family="Sarabun" font-size="14" lengthAdjust="spacing" textLength="81" x="508" y="707.452">-courseId: int</text><text fill="#000000" font-family="Sarabun" font-size="14" lengthAdjust="spacing" textLength="74" x="508" y="725.652">-type: Enum</text><text fill="#000000" font-family="Sarabun" font-size="14" lengthAdjust="spacing" textLength="72" x="508" y="743.852">-title: String</text><text fill="#000000" font-family="Sarabun" font-size="14" lengthAdjust="spacing" textLength="116" x="508" y="762.052">-description: String</text><text fill="#000000" font-family="Sarabun" font-size="14" lengthAdjust="spacing" textLength="85" x="508" y="780.252">-status: Enum</text><text fill="#000000" font-family="Sarabun" font-size="14" lengthAdjust="spacing" textLength="146" x="508" y="798.452">-reviewComment: String</text><line style="stroke:#181818;stroke-width:0.5;" x1="503" x2="705" y1="805.7" y2="805.7"/><text fill="#000000" font-family="Sarabun" font-size="14" lengthAdjust="spacing" text-decoration="underline" textLength="192" x="508" y="824.652">+all(): Collection&lt;UserRequest&gt;</text><text fill="#000000" font-family="Sarabun" font-size="14" lengthAdjust="spacing" textLength="132" x="508" y="842.852">+getOriginatorId(): int</text><text fill="#000000" font-family="Sarabun" font-size="14" lengthAdjust="spacing" textLength="113" x="508" y="861.052">+getCourseId(): int</text><text fill="#000000" font-family="Sarabun" font-size="14" lengthAdjust="spacing" textLength="108" x="508" y="879.252">+getType(): Enum</text><text fill="#000000" font-family="Sarabun" font-size="14" lengthAdjust="spacing" textLength="106" x="508" y="897.452">+getTitle(): String</text><text fill="#000000" font-family="Sarabun" font-size="14" lengthAdjust="spacing" textLength="148" x="508" y="915.652">+getDescription(): String</text><text fill="#000000" font-family="Sarabun" font-size="14" lengthAdjust="spacing" textLength="117" x="508" y="933.852">+getStatus(): Enum</text><text fill="#000000" font-family="Sarabun" font-size="14" lengthAdjust="spacing" textLength="72" x="508" y="952.052">+setStatus()</text><text fill="#000000" font-family="Sarabun" font-size="14" lengthAdjust="spacing" textLength="180" x="508" y="970.252">+getReviewComment(): String</text><text fill="#000000" font-family="Sarabun" font-size="14" lengthAdjust="spacing" textLength="135" x="508" y="988.452">+setReviewComment()</text></g><!--MD5=[6503eca41a3ef0ab3dd2b36111c06b45]
reverse link DatabaseModel to User--><g id="link_DatabaseModel_User"><path codeLine="171" d="M751.44,480.76 C754.71,493.27 758.13,506.38 761.65,519.86 " fill="none" id="DatabaseModel-backto-User" style="stroke:#181818;stroke-width:1.0;"/><polygon fill="none" points="744.76,482.88,746.48,461.76,758.31,479.34,744.76,482.88" style="stroke:#181818;stroke-width:1.0;"/></g><!--MD5=[7c67c95cb4e28e549b370a7cb476def4]
reverse link DatabaseModel to Course--><g id="link_DatabaseModel_Course"><path codeLine="172" d="M833.84,419.38 C876.65,444.98 922.79,478.93 955,520 C960.82,527.42 966.34,535.18 971.57,543.2 " fill="none" id="DatabaseModel-backto-Course" style="stroke:#181818;stroke-width:1.0;"/><polygon fill="none" points="830.56,425.56,816.74,409.5,837.56,413.44,830.56,425.56" style="stroke:#181818;stroke-width:1.0;"/></g><!--MD5=[2c780e09e29e56d4e99a0b36d8b8a57f]
reverse link DatabaseModel to Enrollment--><g id="link_DatabaseModel_Enrollment"><path codeLine="173" d="M836.56,377.94 C936.1,395.35 1077.88,434.22 1170,520 C1214.1,561.06 1243.57,619.99 1262.92,674.48 " fill="none" id="DatabaseModel-backto-Enrollment" style="stroke:#181818;stroke-width:1.0;"/><polygon fill="none" points="835.46,384.85,816.86,374.69,837.74,371.04,835.46,384.85" style="stroke:#181818;stroke-width:1.0;"/></g><!--MD5=[63df073afb18ad949d0d15f533093ba9]
reverse link DatabaseModel to Receipt--><g id="link_DatabaseModel_Receipt"><path codeLine="174" d="M605.75,378.52 C506.04,396.31 363.42,435.42 269,520 C228.35,556.41 198.5,607.14 177.07,656.33 " fill="none" id="DatabaseModel-backto-Receipt" style="stroke:#181818;stroke-width:1.0;"/><polygon fill="none" points="604.28,371.67,625.17,375.24,606.61,385.47,604.28,371.67" style="stroke:#181818;stroke-width:1.0;"/></g><!--MD5=[f8da095da073b7be23fd47f97d275c94]
reverse link DatabaseModel to Timeslot--><g id="link_DatabaseModel_Timeslot"><path codeLine="175" d="M608.04,418.77 C564.66,444.41 517.75,478.55 485,520 C438.97,578.27 411.39,657.98 395.63,720 " fill="none" id="DatabaseModel-backto-Timeslot" style="stroke:#181818;stroke-width:1.0;"/><polygon fill="none" points="604.54,412.72,625.38,408.88,611.48,424.87,604.54,412.72" style="stroke:#181818;stroke-width:1.0;"/></g><!--MD5=[706fabe01fcbc6b2024aca7c348fba63]
reverse link DatabaseModel to UserRequest--><g id="link_DatabaseModel_UserRequest"><path codeLine="176" d="M690.77,480.93 C678.38,528.76 663.77,585.21 650.1,637.99 " fill="none" id="DatabaseModel-backto-UserRequest" style="stroke:#181818;stroke-width:1.0;"/><polygon fill="none" points="683.95,479.36,695.74,461.76,697.5,482.87,683.95,479.36" style="stroke:#181818;stroke-width:1.0;"/></g><!--MD5=[9073085da9b1518b949a54992b29a7f3]
reverse link Queryable to User--><g id="link_Queryable_User"><path codeLine="178" d="M810.75,224.51 C819.34,237.81 826.78,251.91 832,266.4 C860.58,345.74 870.26,435.8 870.69,519.72 " fill="none" id="Queryable-backto-User" style="stroke:#181818;stroke-width:1.0;stroke-dasharray:7.0,7.0;"/><polygon fill="none" points="805.03,228.54,799.3,208.14,816.5,220.51,805.03,228.54" style="stroke:#181818;stroke-width:1.0;"/></g><!--MD5=[6a65297abaeea12a2114a746db8363f0]
reverse link Queryable to Course--><g id="link_Queryable_Course"><path codeLine="179" d="M832.97,215.14 C848.9,230.93 863.94,248.22 876,266.4 C930.07,347.94 969.89,446.71 998.48,537.91 " fill="none" id="Queryable-backto-Course" style="stroke:#181818;stroke-width:1.0;stroke-dasharray:7.0,7.0;"/><polygon fill="none" points="828.29,220.35,818.59,201.51,837.92,210.18,828.29,220.35" style="stroke:#181818;stroke-width:1.0;"/></g><!--MD5=[1a6f81a84ad61c5f2daaef5d145516b9]
reverse link Queryable to Enrollment--><g id="link_Queryable_Enrollment"><path codeLine="180" d="M835.68,189.07 C873.15,211.12 913.88,237.76 948,266.4 C1062.73,362.71 1090.15,393.26 1170,520 C1200.1,567.79 1226.22,623.94 1246.81,674.42 " fill="none" id="Queryable-backto-Enrollment" style="stroke:#181818;stroke-width:1.0;stroke-dasharray:7.0,7.0;"/><polygon fill="none" points="832.43,195.27,818.61,179.21,839.44,183.15,832.43,195.27" style="stroke:#181818;stroke-width:1.0;"/></g><!--MD5=[c236200bf6b6635e7a514a38ad17208c]
reverse link Queryable to Receipt--><g id="link_Queryable_Receipt"><path codeLine="181" d="M605.6,177.94 C559.14,200.88 506.78,231 465,266.4 C340.86,371.6 249.29,534.76 193.37,656.01 " fill="none" id="Queryable-backto-Receipt" style="stroke:#181818;stroke-width:1.0;stroke-dasharray:7.0,7.0;"/><polygon fill="none" points="602.35,171.73,623.4,169.36,608.42,184.35,602.35,171.73" style="stroke:#181818;stroke-width:1.0;"/></g><!--MD5=[056edbbcb0f8be6942f408ad774643c2]
reverse link Queryable to Timeslot--><g id="link_Queryable_Timeslot"><path codeLine="182" d="M609.2,214.25 C592.85,230.28 577.37,247.87 565,266.4 C469.79,408.97 418.13,604.55 394.16,719.87 " fill="none" id="Queryable-backto-Timeslot" style="stroke:#181818;stroke-width:1.0;stroke-dasharray:7.0,7.0;"/><polygon fill="none" points="604.26,209.29,623.64,200.72,613.83,219.51,604.26,209.29" style="stroke:#181818;stroke-width:1.0;"/></g><!--MD5=[8169a44efa7b25edc385304d1dc6da5d]
reverse link Queryable to UserRequest--><g id="link_Queryable_UserRequest"><path codeLine="183" d="M631.22,224.5 C622.64,237.8 615.21,251.9 610,266.4 C567.38,385.05 567.15,527.63 576.92,637.83 " fill="none" id="Queryable-backto-UserRequest" style="stroke:#181818;stroke-width:1.0;stroke-dasharray:7.0,7.0;"/><polygon fill="none" points="625.47,220.5,642.67,208.13,636.95,228.53,625.47,220.5" style="stroke:#181818;stroke-width:1.0;"/></g><!--MD5=[5e71ea04a6d22c057b0faabf88c33866]
@startuml
skinparam {
    classAttributeIconSize 0
    monochrome true
    defaultFontName Sarabun
}

title Class Diagram
' mainframe Classes

abstract DatabaseModel {
    {field} -id: int
    {field} -createdAt: Timestamp
    {field} -updatedAt: Timestamp
    {method} +getId(): int
    {method} +getCreatedAt(): Timestamp
    {method} +setCreatedAt()
    {method} +getUpdatedAt(): Timestamp
    {method} +setUpdatedAt()
}

interface "Queryable<T>" as Queryable {
    {abstract} find(): T
    {abstract} first(): T
    {abstract} get(): Collection<T>
    {abstract} or(): Collection<Object>
    {abstract} where(): Collection<Object>
    {abstract} whereIn(): Collection<Object>
}

' class User extends DatabaseModel implements Queryable {
class User {
    {field} -username: String
    {field} -password: String
    {field} -role: Enum
    {field} -firstName: String
    {field} -middleName: String
    {field} -lastName: String
    {field} -birthdate: Date
    {field} -phoneNumber: String
    {field} -profileImagePath: String
    {field} -email: String

    {method} +getUsername(): String
    {method} +getPassword(): String
    {method} +setPassword()
    {method} +getRole(): Enum
    {method} +getFirstName(): String
    {method} +setFirstName()
    {method} +getMiddleName(): String
    {method} +setMiddleName()
    {method} +getLastName(): String
    {method} +setLastName()
    {method} +getBirthdate(): Date
    {method} +getPhoneNumber(): String
    {method} +setPhoneNumber()
    {method} +getProfileImagePath(): String
    {method} +setProfileImagePath()
    {method} +getEmail(): String
    {method} +setEmail()
    {method} +register(): User
    {method} +login(): User
    {method} +updateInfo()
}

' class Course extends DatabaseModel implements Queryable {
class Course {
    {field} -teacherId: int
    {field} -title: String
    {field} -description: String
    {field} -quota: int
    {field} -capacity: int
    {field} -minAge: int
    {field} -maxAge: int
    {field} -duration: int
    {field} -opensOn: DateTime
    {field} -opensUntil: DateTime
    {field} -startsOn: DateTime
    {field} -status: Enum
    {field} -price: float

    {static} +all(): Collection<Course>
    {method} +getTeacherId(): int
    {method} +getTitle(): String
    {method} +getDescription(): String
    {method} +getQuota(): int
    {method} +getCapacity(): int
    {method} +getMinAge(): int
    {method} +getMaxAge(): int
    {method} +getDuration(): int
    {method} +getOpensOn(): DateTime
    {method} +getOpensUntil(): DateTime
    {method} +getStartsOn(): DateTime
    {method} +getStatus(): Enum
    {method} +setStatus()
    {method} +getPrice(): float
}

' class Enrollment extends DatabaseModel implements Queryable {
class Enrollment {
    {field} -courseId: int
    {field} -studentId: int
    {field} -proofOfPaymentPath: String
    {field} -status: Enum
    {field} -reviewComment: String

    {static} +all(): Collection<Enrollment>
    {method} +getCourseId(): int
    {method} +getStudentId(): int
    {method} +getProofOfPaymentPath(): String
    {method} +getStatus(): Enum
    {method} +setStatus()
    {method} +getReviewComment(): String
    {method} +setReviewComment()
}

' class Receipt extends DatabaseModel implements Queryable {
class Receipt {
    {field} -enrollmentId: int
    {field} -paymentTimestamp: Timestamp
    {field} -receiptTimestamp: Timestamp
    {field} -description: String
    {field} -amount: float
    {field} -subtotal: float
    {field} -total: float

    {method} +getEnrollmentId(): int
    {method} +getPaymentTimestamp(): Timestamp
    {method} +getReceiptTimestamp(): Timestamp
    {method} +setReceiptTimestamp()
    {method} +getDescription(): String
    {method} +getAmount(): float
    {method} +getSubtotal(): float
    {method} +getTotal(): float
}

' class Timeslot extends DatabaseModel implements Queryable {
class Timeslot {
    {field} -courseId: int
    {field} -dateTime: DateTime
    {field} -type: Enum

    {static} +all(): Collection<Timeslot>
    {method} ~Timeslot()
    {method} +getCourseId(): int
    {method} +getDateTime(): DateTime
    {method} +getType(): Enum
}

' class UserRequest extends DatabaseModel implements Queryable {
class UserRequest {
    {field} -originatorId: int
    {field} -courseId: int
    {field} -type: Enum
    {field} -title: String
    {field} -description: String
    {field} -status: Enum
    {field} -reviewComment: String

    {static} +all(): Collection<UserRequest>
    {method} +getOriginatorId(): int
    {method} +getCourseId(): int
    {method} +getType(): Enum
    {method} +getTitle(): String
    {method} +getDescription(): String
    {method} +getStatus(): Enum
    {method} +setStatus()
    {method} +getReviewComment(): String
    {method} +setReviewComment()
}

DatabaseModel <|- - User
DatabaseModel <|- - Course
DatabaseModel <|- - Enrollment
DatabaseModel <|- - Receipt
DatabaseModel <|- - Timeslot
DatabaseModel <|- - UserRequest

Queryable <|... User
Queryable <|... Course
Queryable <|... Enrollment
Queryable <|... Receipt
Queryable <|... Timeslot
Queryable <|... UserRequest
@enduml

@startuml
skinparam {
    classAttributeIconSize 0
    monochrome true
    defaultFontName Sarabun
}

title Class Diagram

abstract DatabaseModel {
    {field} -id: int
    {field} -createdAt: Timestamp
    {field} -updatedAt: Timestamp
    {method} +getId(): int
    {method} +getCreatedAt(): Timestamp
    {method} +setCreatedAt()
    {method} +getUpdatedAt(): Timestamp
    {method} +setUpdatedAt()
}

interface "Queryable<T>" as Queryable {
    {abstract} find(): T
    {abstract} first(): T
    {abstract} get(): Collection<T>
    {abstract} or(): Collection<Object>
    {abstract} where(): Collection<Object>
    {abstract} whereIn(): Collection<Object>
}

class User {
    {field} -username: String
    {field} -password: String
    {field} -role: Enum
    {field} -firstName: String
    {field} -middleName: String
    {field} -lastName: String
    {field} -birthdate: Date
    {field} -phoneNumber: String
    {field} -profileImagePath: String
    {field} -email: String

    {method} +getUsername(): String
    {method} +getPassword(): String
    {method} +setPassword()
    {method} +getRole(): Enum
    {method} +getFirstName(): String
    {method} +setFirstName()
    {method} +getMiddleName(): String
    {method} +setMiddleName()
    {method} +getLastName(): String
    {method} +setLastName()
    {method} +getBirthdate(): Date
    {method} +getPhoneNumber(): String
    {method} +setPhoneNumber()
    {method} +getProfileImagePath(): String
    {method} +setProfileImagePath()
    {method} +getEmail(): String
    {method} +setEmail()
    {method} +register(): User
    {method} +login(): User
    {method} +updateInfo()
}

class Course {
    {field} -teacherId: int
    {field} -title: String
    {field} -description: String
    {field} -quota: int
    {field} -capacity: int
    {field} -minAge: int
    {field} -maxAge: int
    {field} -duration: int
    {field} -opensOn: DateTime
    {field} -opensUntil: DateTime
    {field} -startsOn: DateTime
    {field} -status: Enum
    {field} -price: float

    {static} +all(): Collection<Course>
    {method} +getTeacherId(): int
    {method} +getTitle(): String
    {method} +getDescription(): String
    {method} +getQuota(): int
    {method} +getCapacity(): int
    {method} +getMinAge(): int
    {method} +getMaxAge(): int
    {method} +getDuration(): int
    {method} +getOpensOn(): DateTime
    {method} +getOpensUntil(): DateTime
    {method} +getStartsOn(): DateTime
    {method} +getStatus(): Enum
    {method} +setStatus()
    {method} +getPrice(): float
}

class Enrollment {
    {field} -courseId: int
    {field} -studentId: int
    {field} -proofOfPaymentPath: String
    {field} -status: Enum
    {field} -reviewComment: String

    {static} +all(): Collection<Enrollment>
    {method} +getCourseId(): int
    {method} +getStudentId(): int
    {method} +getProofOfPaymentPath(): String
    {method} +getStatus(): Enum
    {method} +setStatus()
    {method} +getReviewComment(): String
    {method} +setReviewComment()
}

class Receipt {
    {field} -enrollmentId: int
    {field} -paymentTimestamp: Timestamp
    {field} -receiptTimestamp: Timestamp
    {field} -description: String
    {field} -amount: float
    {field} -subtotal: float
    {field} -total: float

    {method} +getEnrollmentId(): int
    {method} +getPaymentTimestamp(): Timestamp
    {method} +getReceiptTimestamp(): Timestamp
    {method} +setReceiptTimestamp()
    {method} +getDescription(): String
    {method} +getAmount(): float
    {method} +getSubtotal(): float
    {method} +getTotal(): float
}

class Timeslot {
    {field} -courseId: int
    {field} -dateTime: DateTime
    {field} -type: Enum

    {static} +all(): Collection<Timeslot>
    {method} ~Timeslot()
    {method} +getCourseId(): int
    {method} +getDateTime(): DateTime
    {method} +getType(): Enum
}

class UserRequest {
    {field} -originatorId: int
    {field} -courseId: int
    {field} -type: Enum
    {field} -title: String
    {field} -description: String
    {field} -status: Enum
    {field} -reviewComment: String

    {static} +all(): Collection<UserRequest>
    {method} +getOriginatorId(): int
    {method} +getCourseId(): int
    {method} +getType(): Enum
    {method} +getTitle(): String
    {method} +getDescription(): String
    {method} +getStatus(): Enum
    {method} +setStatus()
    {method} +getReviewComment(): String
    {method} +setReviewComment()
}

DatabaseModel <|- - User
DatabaseModel <|- - Course
DatabaseModel <|- - Enrollment
DatabaseModel <|- - Receipt
DatabaseModel <|- - Timeslot
DatabaseModel <|- - UserRequest

Queryable <|... User
Queryable <|... Course
Queryable <|... Enrollment
Queryable <|... Receipt
Queryable <|... Timeslot
Queryable <|... UserRequest
@enduml

PlantUML version 1.2022.7(Tue Aug 23 00:01:30 ICT 2022)
(GPL source distribution)
Java Runtime: OpenJDK Runtime Environment
JVM: OpenJDK 64-Bit Server VM
Default Encoding: UTF-8
Language: en
Country: TH
--></g></svg>